<svg xmlns="http://www.w3.org/2000/svg" width="234.955" height="234.955" viewBox="0 0 234.955 234.955"><path d="M120.477,90.108V31.369L91.108,2,61.739,31.369v19.58H3V188.006H179.216v-97.9ZM42.159,168.426H22.58v-19.58h19.58Zm0-39.159H22.58v-19.58h19.58Zm0-39.159H22.58V70.528h19.58ZM100.9,168.426H81.318v-19.58H100.9Zm0-39.159H81.318v-19.58H100.9Zm0-39.159H81.318V70.528H100.9Zm0-39.159H81.318V31.369H100.9Zm58.739,117.477h-19.58v-19.58h19.58Zm0-39.159h-19.58v-19.58h19.58Z" transform="translate(26.369 17.58)" fill="#fff"/><path d="M0,0H234.955V234.955H0Z" fill="none"/></svg>