<svg xmlns="http://www.w3.org/2000/svg" width="276.917" height="276.435" viewBox="0 0 276.917 276.435"><g transform="translate(0)"><path d="M0,0H276.435V276.435H0Z" fill="none"/><path d="M179.531,97.145c-13.822,0-35.361,3.916-51.832,11.518-16.471-7.717-38.01-11.518-51.832-11.518C50.873,97.145,1,109.585,1,134.579v31.675H254.4V134.579C254.4,109.585,204.525,97.145,179.531,97.145Zm-46.073,51.832H18.277v-14.4c0-6.22,29.486-20.157,57.591-20.157s57.591,13.937,57.591,20.157Zm103.663,0H150.736v-14.4c0-5.3-2.3-9.906-5.989-14.052a111.121,111.121,0,0,1,34.785-6.1c28.1,0,57.591,13.937,57.591,20.157ZM75.868,85.627A40.313,40.313,0,1,0,35.554,45.313,40.358,40.358,0,0,0,75.868,85.627Zm0-63.35A23.036,23.036,0,1,1,52.832,45.313,23.1,23.1,0,0,1,75.868,22.277Zm103.663,63.35a40.313,40.313,0,1,0-40.313-40.313A40.358,40.358,0,0,0,179.531,85.627Zm0-63.35a23.036,23.036,0,1,1-23.036,23.036A23.1,23.1,0,0,1,179.531,22.277Z" transform="translate(22.518 52.591)" fill="#fff"/></g></svg>