<svg xmlns="http://www.w3.org/2000/svg" width="174.695" height="339.028" viewBox="0 0 174.695 339.028"><g transform="translate(0 0)"><g transform="translate(105.702 107.705)"><path d="M260.124,300.035s11.382,13.833,42.1,13.857a13.772,13.772,0,0,0,.669-2.906c.034-.392.089-.829.154-1.3-23.656-.1-37.51-10.91-41.619-14.676C260.479,298.691,260.124,300.035,260.124,300.035Z" transform="translate(-260.124 -228.351)" fill="#574ecb"/><path d="M298.137,259.089c-12.172-3.421-21.212,2.739-28.864,32.851-4.494,17.7-7.069,27.711-8.427,32.962,4.108,3.766,17.963,14.58,41.619,14.676,1.9-13.536,16.212-58.838,16.884-66.115C320.043,265.933,310.307,262.512,298.137,259.089Z" transform="translate(-259.537 -258.242)" fill="#fff"/></g><g transform="translate(57.299 108.737)"><path d="M272.367,273.593,238.218,260.83l-4.792,3.631L271,290.021l19.629-8.323-5.517-13.733Z" transform="translate(-233.426 -257.17)" fill="#9699f8"/><path d="M286.365,258.811l-24.43,10.794,5.517,13.733,23.143-9.814Z" transform="translate(-210.249 -258.811)" fill="#fff"/></g><path d="M301.68,297.781s-51.119,23.79-67.114,41.5-25.557,65.437-25.557,65.437l7.823,2.573s17.735-48.25,36.165-60.912,57.377-23.612,57.377-23.612-16.69,41.408-17.386,61.6,19.8,68.1,19.8,68.1H321.5s-16.344-53.385-12.171-74.259c3.872-19.372,29.889-52.58,34.454-66.561C313.062,311.614,301.68,297.781,301.68,297.781Z" transform="translate(-195.978 -118.393)" fill="#f4d87d"/><g transform="translate(1.778)"><path d="M297.093,203.443c-36.332-13.7-77.071,4.177-90.993,39.931-10.352,26.585,6.151,91.325,15.3,122.782a14.483,14.483,0,0,0,21.518,8.115c28.163-17.388,84.4-54.7,94.757-81.283C351.591,257.234,333.425,217.143,297.093,203.443ZM272.576,324.062c-31.118,0-56.342-24.823-56.342-55.446s25.226-55.446,56.342-55.446,56.344,24.823,56.344,55.446S303.694,324.062,272.576,324.062Z" transform="translate(-202.801 -198.834)" fill="#574ecb"/><path d="M269.463,220.173c-18.264-6.887-38.743,2.1-45.741,20.073a34.684,34.684,0,0,0,20.4,45.014c18.264,6.887,38.745-2.1,45.743-20.073A34.685,34.685,0,0,0,269.463,220.173Z" transform="translate(-187.708 -183.369)" fill="none" stroke="#343771" stroke-width="0.501"/><path d="M266.553,206.742c-31.118,0-56.342,24.823-56.342,55.446s25.226,55.446,56.342,55.446S322.9,292.811,322.9,262.188,297.671,206.742,266.553,206.742Zm32.378,67.479c-7,17.974-27.479,26.961-45.743,20.073a34.684,34.684,0,0,1-20.4-45.014c7-17.974,27.477-26.961,45.741-20.073A34.684,34.684,0,0,1,298.931,274.221Z" transform="translate(-196.778 -192.405)" fill="#343771"/></g><path d="M284.947,271.216h0a6.672,6.672,0,0,1-4.453-8.389l3.537-11.094,12.977,4-3.537,11.1A6.82,6.82,0,0,1,284.947,271.216Z" transform="translate(-138.117 -155.827)" fill="#9699f8"/><path d="M237.822,266.474c3.64,1.218,6.692,1.594,6.858,1.347s.415-.571-1.913-2.127c-4.324-2.373-5.569-3.845-4.906-4.581s5.82,2.946,7.232,3.669,2.411.5.334-1.624c-3.575-3.437-4.322-5.151-3.243-5.481s4.739,4.008,7.232,6.461,3.408.654,2.743-1.717c-.665-2.7-.165-4.008,1-3.927s1,3.109,2.244,6.461a10.467,10.467,0,0,1,2.078,6.137l-2.244,3.762c-4.239.983-8.894-1.963-12.386-2.127s-5.569-1.474-4.241-1.882c.6-.187,5.736.491,5.736-.163s-4.532-1.759-6.61-2.413S235.991,265.9,237.822,266.474Z" transform="translate(-173.783 -151.011)" fill="#9699f8"/><path d="M214.851,357.318s-11.445-3.561-13.03,1.392l19.323,5.988,1.581-4.94Z" transform="translate(-201.821 -70.997)" fill="#343771"/><path d="M272.092,382.979s-12-.013-12,5.178h20.258l-.406-5.178Z" transform="translate(-154.452 -49.129)" fill="#343771"/><g transform="translate(78.908 116.424)"><path d="M284.286,277.833,250.137,265.07l-4.792,3.631,37.574,25.559,27.92-11.839L304.83,269.1Z" transform="translate(-245.345 -261.41)" fill="#9699f8"/><path d="M296.235,263.051l-18.079,7.687,6.008,13.325,14.852-6.3Z" transform="translate(-218.671 -263.051)" fill="#fff"/></g><path d="M313.365,251.734q.063-.726.082-1.416c.495-18.394-25.67-23.9-33.215-7.069-.063.14-.125.281-.187.422a25.339,25.339,0,0,0-1.916,9.281c-.169,6.461,1.271,17.279,12.294,19.941s17.392-6.277,20.28-12.082A25.351,25.351,0,0,0,313.365,251.734Z" transform="translate(-139.795 -170.929)" fill="#9699f8"/><path d="M275.812,245.725a4.331,4.331,0,0,0,3.227,5.241,4.411,4.411,0,0,0,5.326-3.176,4.332,4.332,0,0,0-3.227-5.241A4.409,4.409,0,0,0,275.812,245.725Z" transform="translate(-141.772 -163.397)" fill="#9699f8"/><path d="M293.448,249.983a4.332,4.332,0,0,0,3.227,5.241A4.41,4.41,0,0,0,302,252.05a4.332,4.332,0,0,0-3.227-5.241A4.406,4.406,0,0,0,293.448,249.983Z" transform="translate(-127.434 -159.934)" fill="#9699f8"/><path d="M311.969,258.547a24.664,24.664,0,0,1-18.891-16.993c-5.39,8.662-12.751.566-14.823,8.875,0,0,1.813-22.106,22.151-17.194C320.6,238.109,311.969,258.547,311.969,258.547Z" transform="translate(-139.682 -171.446)" fill="#574ecb"/><g transform="translate(135.888 80.647)"><path d="M282.02,245.65a1.379,1.379,0,0,0,.832,1.755,1.4,1.4,0,0,0,1.585-1.149,1.378,1.378,0,0,0-.832-1.755A1.4,1.4,0,0,0,282.02,245.65Z" transform="translate(-272.556 -242.381)" fill="#343771"/><path d="M283.492,248.468s2.738,3.776,9.612,2.569" transform="translate(-271.312 -239.129)" fill="none" stroke="#343771" stroke-linecap="round" stroke-linejoin="round" stroke-width="0.428"/><path d="M288.271,245.32s-5.27,3.744-1.824,5.493" transform="translate(-269.86 -241.688)" fill="none" stroke="#343771" stroke-linecap="round" stroke-linejoin="round" stroke-width="0.428"/><path d="M276.774,244.227a1.9,1.9,0,0,1,2.491.174c-1.57.917-1.818,2.3-.132,3.242" transform="translate(-276.774 -242.909)" fill="none" stroke="#343771" stroke-linecap="round" stroke-linejoin="round" stroke-width="0.428"/><path d="M299.061,249.933a1.873,1.873,0,0,0-2.11-1.316c.711,1.657.078,2.908-1.849,2.685" transform="translate(-261.875 -239.048)" fill="none" stroke="#343771" stroke-linecap="round" stroke-linejoin="round" stroke-width="0.428"/><path d="M282.174,243.633s2.206-1.1,3.363.8" transform="translate(-272.384 -243.317)" fill="none" stroke="#343771" stroke-linecap="round" stroke-linejoin="round" stroke-width="0.428"/><path d="M290.336,247.775a1.378,1.378,0,0,0,.832,1.755,1.4,1.4,0,0,0,1.585-1.148,1.379,1.379,0,0,0-.832-1.755A1.4,1.4,0,0,0,290.336,247.775Z" transform="translate(-265.796 -240.651)" fill="#343771"/><path d="M290.489,245.759s2.206-1.1,3.363.8" transform="translate(-265.624 -241.588)" fill="none" stroke="#343771" stroke-linecap="round" stroke-linejoin="round" stroke-width="0.428"/></g></g></svg>