<svg xmlns="http://www.w3.org/2000/svg" xmlns:xlink="http://www.w3.org/1999/xlink" width="600" height="650" viewBox="0 0 1344.873 1295.264"><defs><linearGradient id="a" x1="-21.808" y1="5.398" x2="-20.653" y2="5.398" gradientUnits="objectBoundingBox"><stop offset="0" stop-color="#42e8e0"/><stop offset="0.151" stop-color="#43e3e0"/><stop offset="0.329" stop-color="#45d5df"/><stop offset="0.52" stop-color="#49bddd"/><stop offset="0.721" stop-color="#4e9cdb"/><stop offset="0.927" stop-color="#5472d8"/><stop offset="1" stop-color="#5761d7"/></linearGradient><linearGradient id="b" x1="3.957" y1="23.634" x2="4.957" y2="23.634" xlink:href="#a"/><linearGradient id="c" x1="3.013" y1="3.84" x2="3.013" y2="3.372" gradientUnits="objectBoundingBox"><stop offset="0" stop-color="#c0bff6"/><stop offset="0.294" stop-color="#c5c4f7"/><stop offset="0.64" stop-color="#d3d2f9"/><stop offset="1" stop-color="#e9e9fd"/></linearGradient><linearGradient id="d" x1="0.603" y1="0.5" x2="1.603" y2="0.5" xlink:href="#a"/><linearGradient id="e" x1="0.125" y1="0.5" x2="1.125" y2="0.5" xlink:href="#c"/><linearGradient id="f" x1="-4.093" y1="0.5" x2="-3.093" y2="0.5" gradientUnits="objectBoundingBox"><stop offset="0" stop-color="#5761d7"/><stop offset="0.178" stop-color="#5c66d9"/><stop offset="0.388" stop-color="#6a73df"/><stop offset="0.613" stop-color="#8289e8"/><stop offset="0.849" stop-color="#a3a7f5"/><stop offset="1" stop-color="#bcbeff"/></linearGradient><linearGradient id="g" x1="0.57" y1="0.5" x2="1.57" y2="0.5" xlink:href="#f"/><linearGradient id="h" x1="0.906" y1="0.5" x2="1.906" y2="0.5" xlink:href="#c"/><linearGradient id="i" x1="3.27" y1="0.5" x2="4.27" y2="0.5" xlink:href="#c"/><clipPath id="j"><path d="M349.027,66.808l471.818,272.4L762.339,684.147,290.833,411.926Z" transform="translate(-290.833 -66.808)" opacity="0.11"/></clipPath><linearGradient id="k" x1="0.142" y1="0.5" x2="1.142" y2="0.5" xlink:href="#c"/><linearGradient id="l" x1="-1.553" y1="0.5" x2="-0.553" y2="0.5" xlink:href="#c"/><linearGradient id="m" x1="2.316" y1="0.5" x2="3.316" y2="0.5" xlink:href="#a"/><linearGradient id="n" x1="1.764" y1="-1.778" x2="2.919" y2="-1.778" xlink:href="#f"/><radialGradient id="o" cx="-2495.459" cy="219.599" fx="-2672.192864727578" fy="157.253195469988" r="200.112" gradientTransform="matrix(-0.936, 0, 0, 0.936, -5185.184, 0.869)" gradientUnits="userSpaceOnUse"><stop offset="0" stop-color="#2b237c"/><stop offset="1" stop-color="#180d5b"/></radialGradient><linearGradient id="p" x1="2.419" y1="0.5" x2="3.419" y2="0.5" xlink:href="#f"/><linearGradient id="q" x1="2.182" y1="-1.68" x2="3.336" y2="-1.68" xlink:href="#c"/><linearGradient id="r" x1="2.84" y1="0.5" x2="3.84" y2="0.5" gradientUnits="objectBoundingBox"><stop offset="0" stop-color="#5761d7"/><stop offset="0.073" stop-color="#5472d8"/><stop offset="0.279" stop-color="#4e9cdb"/><stop offset="0.48" stop-color="#49bddd"/><stop offset="0.672" stop-color="#45d5df"/><stop offset="0.849" stop-color="#43e3e0"/><stop offset="1" stop-color="#42e8e0"/></linearGradient><linearGradient id="s" x1="-1.118" y1="0.5" x2="-0.118" y2="0.5" xlink:href="#a"/><linearGradient id="t" x1="0" y1="0.5" x2="1" y2="0.5" xlink:href="#a"/><linearGradient id="u" x1="0.576" y1="0.889" x2="0.857" y2="0.111" xlink:href="#a"/><linearGradient id="v" x1="30.413" y1="5.24" x2="31.447" y2="5.24" xlink:href="#r"/><linearGradient id="w" x1="13.847" y1="3.014" x2="14.829" y2="3.014" xlink:href="#r"/><linearGradient id="x" x1="8.245" y1="1.323" x2="9.201" y2="1.323" xlink:href="#r"/><linearGradient id="y" x1="1.705" y1="0.762" x2="2.595" y2="0.122" xlink:href="#f"/><linearGradient id="z" x1="3.322" y1="0.684" x2="3.65" y2="0.255" xlink:href="#c"/><linearGradient id="ac" y1="0.5" x2="0.713" y2="0.5" gradientUnits="objectBoundingBox"><stop offset="0.247" stop-color="#5761d7"/><stop offset="0.436" stop-color="#6c74df"/><stop offset="0.825" stop-color="#a2a6f5"/><stop offset="1" stop-color="#bcbeff"/></linearGradient><linearGradient id="ad" x1="0" y1="0.5" x2="1" y2="0.5" xlink:href="#c"/></defs><g transform="translate(0)"><path d="M368.644,267.432a3.439,3.439,0,0,1-1.737-.47L207.592,174.979a3.487,3.487,0,0,1,3.486-6.039l159.315,91.982a3.489,3.489,0,0,1-1.749,6.509Z" transform="translate(202.625 242.658)" fill="url(#a)"/><path d="M376.761,474.424a3.72,3.72,0,0,1-1.88-.508L99.088,313.432a3.747,3.747,0,0,1,.1-6.532L351.934,169.754a3.748,3.748,0,0,1,3.576,6.588L108.621,310.307l270.032,157.13a3.748,3.748,0,0,1-1.892,6.987Z" transform="translate(-97.226 244.946)" fill="url(#b)"/><g transform="translate(227.794)"><path d="M272,276.443,570.834,448.979c8.168,4.712,14.79-.29,14.79-11.18V270.3c0-10.891-6.622-23.541-14.79-28.257L272,69.5c-8.168-4.716-14.79.29-14.79,11.18v167.5C257.21,259.077,263.828,271.731,272,276.443Z" transform="translate(116.609 -35.434)" fill="url(#c)"/><g transform="translate(181.066)"><g transform="translate(29.421 475.176)"><path d="M658.5,615.976,218.885,362.159a10.235,10.235,0,0,1,0-17.72L492.049,186.731l2.136-1.23L954.624,451.332a10.231,10.231,0,0,1,0,17.72L700.149,615.976a41.757,41.757,0,0,1-41.644,0ZM223.16,351.833a1.691,1.691,0,0,0,0,2.926L662.777,608.575a33.215,33.215,0,0,0,33.1,0L950.352,461.651a1.684,1.684,0,0,0,0-2.922L494.185,195.357Z" transform="translate(-213.774 -185.501)" fill="url(#d)"/></g><g transform="translate(301.484)"><path d="M288.266,429.43,349.514,66.065l-4.926-2.072,7.4-4.242-.015.045c1.436-.955,3.467-.9,5.7.391l489.481,282.6c4.016,2.32,7.062,8.273,6.352,12.436L791.778,721.476a4.584,4.584,0,0,1-2.58,3.727l.008,0-7.243,4.182-1.241-6.761.41.124L294.618,441.862C290.6,439.542,287.559,433.593,288.266,429.43Z" transform="translate(-280.482 -59.142)" fill="url(#e)"/><path d="M500.624,139.826l8.048-3.561a11.059,11.059,0,0,1,1.034,6.058L447.973,508.576a4.584,4.584,0,0,1-2.58,3.727l.008,0-7.243,4.182-1.241-6.761.41.124-24.62-14.211Z" transform="translate(63.323 153.758)" fill="url(#f)"/><path d="M292.581,443.05l489.477,282.6c3.779,2.181,7.013.921,7.679-2.99l61.733-366.252c.707-4.163-2.335-10.112-6.352-12.436L355.634,61.372c-3.779-2.181-7.013-.921-7.679,2.99L286.223,430.614C285.519,434.777,288.561,440.73,292.581,443.05Z" transform="translate(-286.121 -55.922)" fill="#24126a"/><g transform="translate(17.719 28.829)" opacity="0.51"><path d="M349.027,66.808l471.818,272.4L762.339,684.147,290.833,411.926Z" transform="translate(-290.833 -66.808)" fill="#453c9e"/></g></g><g transform="translate(0 385.856)"><path d="M206.019,312.762l26.715,13.952L500.588,172.066c4.482-2.587,12.308-2.264,17.483.722L980.048,439.51c4.422-2.471,24.575-12.165,24.575-12.165l-9.778,25.478s-.034-.026-.041-.034a5.814,5.814,0,0,1-2.738,3.035L709.963,618.7c-4.482,2.587-12.308,2.264-17.483-.722L219.734,345.035a8.443,8.443,0,0,1-3.964-4.219l-.038.026Z" transform="translate(-205.76 -138.092)" fill="url(#g)"/><path d="M210.338,340.811l484.5,279.727c5.3,3.061,13.327,3.392,17.923.741l289.12-166.926c4.592-2.651,4.016-7.284-1.29-10.345L516.091,164.28c-5.3-3.061-13.324-3.392-17.919-.741L209.052,330.461C204.456,333.117,205.036,337.749,210.338,340.811Z" transform="translate(-205.95 -161.749)" fill="url(#h)"/><path d="M210.3,211.871,694.8,491.6c5.3,3.061,13.327,3.4,17.923.745l289.121-166.926a5.952,5.952,0,0,0,2.805-3.125c.726,2.177-.143,4.381-2.805,5.915L712.721,495.133c-4.6,2.651-12.617,2.32-17.923-.741L210.3,214.665c-3.569-2.061-4.938-4.821-4.1-7.22A8.539,8.539,0,0,0,210.3,211.871Z" transform="translate(-205.912 -35.604)" fill="#fff"/><path d="M389.577,272v-5.314c0-.5-.3-.733-.684-.519l-18.739,10.819a1.641,1.641,0,0,0-.684,1.309v5.314c0,.508.3.733.684.519l18.739-10.819A1.636,1.636,0,0,0,389.577,272Z" transform="translate(245.447 126.278)" fill="#2842a2"/><path d="M382.125,276.3v-5.314c0-.508-.3-.733-.684-.519L362.7,281.289a1.636,1.636,0,0,0-.684,1.309v5.314c0,.5.3.733.684.519l18.739-10.819A1.641,1.641,0,0,0,382.125,276.3Z" transform="translate(224.876 138.156)" fill="#2842a2"/><path d="M805.86,406.893,403.243,174.44a8.668,8.668,0,0,0-8.676,0L251.194,257.4a3.09,3.09,0,0,0,0,5.351L653.63,495.092a8.672,8.672,0,0,0,8.668,0l143.566-82.844A3.093,3.093,0,0,0,805.86,406.893Z" transform="translate(-85.311 -129.922)" fill="#adb1f2"/><path d="M805.863,412.248l-1.44.835L403.242,181.461a8.668,8.668,0,0,0-8.676,0l-141.93,82.115-1.44-.831a3.09,3.09,0,0,1,0-5.351l143.374-82.953a8.669,8.669,0,0,1,8.676,0L805.859,406.893A3.091,3.091,0,0,1,805.863,412.248Z" transform="translate(-85.314 -129.922)" fill="#9198db"/><g transform="translate(185.818 56.555)"><path d="M285.31,185.764,635.046,387.682l15.546-8.98L300.86,176.788Z" transform="translate(-172.694 -176.788)" fill="#24126a"/><path d="M275.172,191.617l328.034,189.4,15.553-8.98L290.726,182.641Z" transform="translate(-200.68 -160.631)" fill="#24126a"/><path d="M268.569,195.429,654.8,418.421l15.55-8.98L284.122,186.453Z" transform="translate(-218.908 -150.107)" fill="#24126a"/><path d="M261.966,199.245,648.195,422.233l15.554-8.976L277.52,190.265Z" transform="translate(-237.135 -139.584)" fill="#24126a"/><path d="M255.363,203.057,641.591,426.045l15.55-8.976L270.917,194.077Z" transform="translate(-255.363 -129.061)" fill="#24126a"/><path d="M383.931,242.7l15.546,8.98,15.553-8.98-15.553-8.973Z" transform="translate(99.552 -19.607)" fill="#24126a"/><path d="M369.345,245.985l32.277,18.637,15.55-8.976-32.277-18.633Z" transform="translate(59.287 -10.538)" fill="#24126a"/></g><path d="M368.4,335.691,259.838,273.015c-4.242-2.448-4.242-6.423,0-8.871l74.237-42.859a16.992,16.992,0,0,1,15.365,0L458,283.961c4.246,2.448,4.246,6.423,0,8.871l-74.24,42.859A16.96,16.96,0,0,1,368.4,335.691Z" transform="translate(-65.973 -2.467)" fill="url(#i)"/><path d="M457.97,287.59,349.411,224.914a16.969,16.969,0,0,0-15.366,0l-74.237,42.859a6.658,6.658,0,0,0-2.666,2.621c-1.121-2.14-.267-4.558,2.666-6.25l74.237-42.859a16.992,16.992,0,0,1,15.366,0L457.97,283.961c2.933,1.692,3.791,4.11,2.67,6.25A6.669,6.669,0,0,0,457.97,287.59Z" transform="translate(-65.943 -2.467)" fill="#9198db"/></g><g transform="translate(319.204 28.829)" opacity="0.11"><g clip-path="url(#j)"><path d="M291.515,293.714l484.5,279.726c5.3,3.061,13.327,3.4,17.919.745L1083.057,407.26c4.592-2.651,4.012-7.284-1.29-10.345l-484.5-279.727c-5.3-3.061-13.324-3.4-17.919-.745L290.226,283.365C285.637,286.02,286.213,290.653,291.515,293.714Z" transform="translate(-301.059 65.273)" fill="url(#k)"/><path d="M499.546,260.937,390.988,198.261c-4.246-2.448-4.246-6.423,0-8.871l74.233-42.859a17,17,0,0,1,15.369,0l108.559,62.677c4.242,2.448,4.242,6.423,0,8.871l-74.236,42.859A16.991,16.991,0,0,1,499.546,260.937Z" transform="translate(-23.144 148.2)" fill="url(#l)"/><path d="M589.119,212.835,480.56,150.159a17,17,0,0,0-15.369,0l-74.233,42.859a6.645,6.645,0,0,0-2.67,2.621c-1.121-2.144-.263-4.558,2.67-6.25l74.233-42.859a17,17,0,0,1,15.369,0l108.559,62.677c2.933,1.692,3.791,4.106,2.666,6.25A6.682,6.682,0,0,0,589.119,212.835Z" transform="translate(-23.115 148.197)" fill="#9198db"/><g transform="translate(57.515 273.473)"><path d="M862.337,373.145,459.717,140.692a8.669,8.669,0,0,0-8.676,0l-143.37,82.953a3.089,3.089,0,0,0,0,5.351L710.108,461.344a8.663,8.663,0,0,0,8.668,0L862.341,378.5A3.093,3.093,0,0,0,862.337,373.145Z" transform="translate(-306.127 -139.53)" fill="#adb1f2"/><path d="M862.338,378.5l-1.444.831L459.717,147.713a8.669,8.669,0,0,0-8.676,0L309.116,229.831,307.672,229a3.09,3.09,0,0,1,0-5.351L451.041,140.7a8.669,8.669,0,0,1,8.676,0l402.62,232.453A3.092,3.092,0,0,1,862.338,378.5Z" transform="translate(-306.127 -139.53)" fill="#9198db"/><g transform="translate(25.168 17.012)"><path d="M326.719,160.394,677.47,362.9l-13.9,8.021L312.82,168.415Z" transform="translate(-312.82 -98.947)" fill="#24126a"/><path d="M336.543,154.72,669.929,347.2l-13.9,8.021L322.648,162.741Z" transform="translate(-285.69 -114.61)" fill="#24126a"/><path d="M431.817,209.727,462.951,227.7l-13.891,8.021-31.137-17.979Z" transform="translate(-22.684 37.238)" fill="#24126a"/><path d="M424.5,216.852l21.68,12.519-13.9,8.021-21.679-12.519Z" transform="translate(-42.871 56.907)" fill="#24126a"/><path d="M342.7,151.165,732.116,376l-13.895,8.017L328.807,159.186Z" transform="translate(-268.688 -124.424)" fill="#24126a"/><path d="M348.859,147.609l389.417,224.83-13.9,8.021L334.964,155.634Z" transform="translate(-251.691 -134.24)" fill="#24126a"/><path d="M355.013,144.054l389.417,224.83-13.891,8.021L341.122,152.079Z" transform="translate(-234.692 -144.054)" fill="#24126a"/></g></g></g></g><g transform="translate(776.164 305.874)"><g transform="translate(2.298)"><path d="M420.176,149.744l9.3,5.949,1.128-6.9-9.3-5.949Z" transform="translate(-393.036 -133.965)" fill="#42e8e0"/><path d="M418.147,186.761l9.307,5.949,6.6-40.411-9.307-5.949Z" transform="translate(-398.638 -124.276)" fill="#42e8e0"/><path d="M417.178,174.812l9.3,5.949,2.621-16.042L419.8,158.77Z" transform="translate(-401.312 -89.99)" fill="#42e8e0"/><path d="M416.172,180.968l9.3,5.949,2.621-16.042-9.3-5.949Z" transform="translate(-404.09 -72.996)" fill="#42e8e0"/><path d="M415.516,160.033l9.3,5.949,2.625-16.042-9.307-5.949Z" transform="translate(-405.9 -130.788)" fill="#42e8e0"/><path d="M414.185,173.706l9.3,5.949,3.847-23.556-9.307-5.953Z" transform="translate(-409.575 -113.797)" fill="#42e8e0"/><path d="M412.959,178.752l9.307,5.949,3.3-20.205-9.307-5.953Z" transform="translate(-412.959 -90.617)" fill="#42e8e0"/><path d="M415.167,187.124l9.307,5.949,2.617-16.042-9.307-5.949Z" transform="translate(-406.864 -56.002)" fill="#42e8e0"/><path d="M416.486,147.384l9.3,5.949,1.132-6.9-9.307-5.953Z" transform="translate(-403.223 -140.48)" fill="#42e8e0"/></g><path d="M412.348,185.061l16.238,10.383,1.094-6.7L413.442,178.36Z" transform="translate(-412.348 -35.911)" fill="#42e8e0"/></g></g><g transform="translate(0 551.949)"><path d="M540.818,524.983h0L162.483,306.553c-2.978-1.715-4.682-4.381-4.682-7.307,0-3.283,2.136-6.4,5.859-8.548l78.629-45.393c5.957-3.445,14.775-3.749,20.085-.684L640.7,463.055c2.978,1.719,4.686,4.385,4.686,7.31,0,3.283-2.14,6.4-5.859,8.544L560.906,524.3a22.712,22.712,0,0,1-11.1,2.794A18.2,18.2,0,0,1,540.818,524.983ZM245.985,251.7l-78.629,45.393c-1.8,1.034-2.17,1.959-2.17,2.151,0,.09.233.478.993.91l378.335,218.43v0c3.061,1.764,9,1.455,12.692-.684l78.632-45.394c1.8-1.034,2.162-1.959,2.162-2.151,0-.086-.237-.478-.993-.91L258.677,251.018a10.731,10.731,0,0,0-5.231-1.151A15.522,15.522,0,0,0,245.985,251.7Z" transform="translate(-157.801 -104.904)" fill="url(#m)"/><g transform="translate(19.028)"><path d="M246.405,219.93a112.287,112.287,0,0,1,27.726,23.383c11.62-37.327,47.067-48.906,89-24.692,34.695,20.032,64.933,59.431,80.93,101.173,5.3.169,11.206,1.914,17.46,5.524,22.642,13.075,41,44.863,41,71.006,0,.56-.057,1.076-.075,1.628,6.457.444,13.594,2.73,21.1,7.062,28.956,16.719,52.433,57.382,52.433,90.813S552.508,542.82,523.552,526.1L246.405,366.09c-34.954-20.183-63.293-69.261-63.293-109.619S211.448,199.747,246.405,219.93Z" transform="translate(-106.958 -205.916)" fill="url(#n)"/><path d="M246.408,219.929a101.27,101.27,0,0,1,16.648,12.2l30.99-17.908,0,.008c17.024-11.97,41.67-11.447,69.1,4.389,34.695,20.032,64.933,59.431,80.93,101.173,5.3.169,11.206,1.914,17.46,5.524,22.642,13.075,41,44.863,41,71.006,0,.56-.057,1.076-.075,1.628,6.457.444,13.594,2.73,21.1,7.062,28.956,16.719,52.433,57.382,52.433,90.813,0,16.573-5.78,28.242-15.121,33.777l.023.011-.237.139a.519.519,0,0,1-.049.026L484.69,573.846l-16.58-79.757-221.705-128c-34.954-20.183-63.293-69.261-63.293-109.619S211.45,199.746,246.408,219.929Z" transform="translate(-106.96 -205.915)" fill="url(#o)"/><path d="M167.5,260.38l76.91-44.686,0,.019c11.481-6.837,27.441-5.979,45.1,4.216a101.27,101.27,0,0,1,16.648,12.2l30.99-17.908,0,.008c17.024-11.97,41.67-11.447,69.1,4.389,34.695,20.032,64.933,59.431,80.93,101.173,5.3.169,11.206,1.914,17.46,5.524,22.642,13.075,41,44.863,41,71.006,0,.56-.056,1.076-.075,1.628,6.457.444,13.594,2.73,21.1,7.062,28.956,16.719,52.433,57.382,52.433,90.813,0,16.573-5.78,28.242-15.121,33.777l.023.011-.237.139a.52.52,0,0,1-.049.026l-75.914,44.066-16.58-79.757-221.705-128c-28.335-16.362-52.316-51.707-60.383-86.011Z" transform="translate(-150.058 -205.915)" fill="url(#p)"/><path d="M226.154,231.684a112.305,112.305,0,0,1,27.726,23.387c11.62-37.331,47.067-48.909,89-24.7,34.695,20.032,64.933,59.431,80.93,101.173,5.3.173,11.206,1.918,17.46,5.528,22.642,13.072,41,44.863,41,71,0,.564-.056,1.079-.075,1.628,6.457.447,13.594,2.73,21.1,7.066,28.956,16.715,52.433,57.378,52.433,90.813s-23.477,46.988-52.433,30.272L226.154,377.844c-34.954-20.179-63.293-69.258-63.293-109.619S191.2,211.505,226.154,231.684Z" transform="translate(-162.861 -173.469)" fill="url(#q)"/><g transform="translate(16.779 44.214)"><path d="M239.025,252.647A112.306,112.306,0,0,0,211.3,229.26c-17.092-9.868-32.589-10.981-43.976-4.84,11.564-7.792,28.121-7.3,46.518,3.317A110.819,110.819,0,0,1,240.093,249.5C239.717,250.53,239.36,251.575,239.025,252.647Z" transform="translate(-167.323 -213.736)" fill="#fff"/><path d="M470.71,509.1c0-33.438-23.473-74.1-52.433-90.813-7.51-4.336-14.647-6.622-21.1-7.066.015-.549.075-1.061.075-1.628,0-26.143-18.355-57.931-40.993-71-6.254-3.614-12.158-5.355-17.46-5.528-16-41.742-46.236-81.141-80.93-101.173-25.365-14.643-48.342-16.174-65.125-6.855,16.96-10.969,40.993-10.063,67.663,5.332C295.1,250.4,325.336,289.8,341.333,331.539c5.3.173,11.206,1.918,17.46,5.528,22.642,13.072,41,44.859,41,71,0,.564-.056,1.079-.075,1.628,6.457.448,13.594,2.73,21.1,7.066,28.956,16.716,52.433,57.378,52.433,90.813,0,17.171-6.2,29.08-16.148,34.356C465.559,536.067,470.71,524.766,470.71,509.1Z" transform="translate(-97.159 -217.674)" fill="#fff"/></g></g><path d="M460.62,428.372l6.761-4.55-189.5-114.087-3.806,6.329Z" transform="translate(163.176 80.677)" fill="url(#r)"/></g><path d="M452.715,513.982a3.749,3.749,0,0,1-1.794-7.043L612.252,419.4l-233.732-136a3.746,3.746,0,1,1,3.768-6.475l239.5,139.357a3.748,3.748,0,0,1-.1,6.532L454.5,513.53A3.729,3.729,0,0,1,452.715,513.982Z" transform="translate(446.355 540.628)" fill="url(#s)"/><g transform="translate(492.072 468.254)"><g transform="translate(0 503.87)"><path d="M565.751,640.79a3.739,3.739,0,0,1-1.873-.5L290.526,482.468a3.748,3.748,0,0,1,0-6.491l273.36-157.825a3.743,3.743,0,0,1,3.745,0L840.984,475.973a3.748,3.748,0,0,1,0,6.491L567.624,640.289A3.74,3.74,0,0,1,565.751,640.79ZM299.889,479.222,565.751,632.716l265.869-153.5L565.758,325.725Z" transform="translate(-288.653 -317.65)" fill="url(#t)"/><path d="M495.576,542.33,677.081,437.539l-181.5-104.791L314.074,437.543Z" transform="translate(-218.478 -275.97)" fill="url(#u)"/></g><g transform="translate(145.705)"><path d="M385.3,344.938s-3.11,3.087-6.348,6.731-12.214,8.615-15.99,10.83-21.119,14.7-24.992,27.32,8.251,14.606,20.754,12.707,24.413-13.09,27.907-17.156,15.5-13.181,30.972-20.706,6.5-18.389,6.5-18.389Z" transform="translate(-300.244 261.551)" fill="#160a5b"/><path d="M406.977,355.727a47.231,47.231,0,0,1,2.907,13.143c.534,7.371,1.166,23.327,1.429,28a39.416,39.416,0,0,1-8.341,26.794c-8.473,10.721-12.82,14.926-23.616,10.36s-10.093-22.86-7.927-32.224,4.475-30.377,4.332-32.6a6.553,6.553,0,0,1,.715-3.606Z" transform="translate(-209.459 291.335)" fill="#160a5b"/><path d="M341.438,312.456s.214,83.976,18.664,129.012a323.9,323.9,0,0,1,13.726,86.3s-3.433,7.954.993,14.6,32.987,13.338,38.267-8,4.452-61.541-.35-78.418,3.418-62.85,3.418-62.85,7.724,5.208,17.189,38.62,16.716,46.251,20.029,55.5,5.171,65.523,2.249,92.9c0,0,23.169,3.877,30.167-7.07s10.676-68.4,9.428-86.767-7.457-77.3-5.953-95.442,5.656-32.815,1.952-51.064-125.4-61.624-125.4-61.624Z" transform="translate(-288.644 77.187)" fill="#24126a"/><path d="M489.267,372.561c1.5-18.145,5.656-32.814,1.952-51.064-1.392-6.859-19.461-17.272-41.467-27.595-37.466-4.358-84.992-9.522-88.282-9.1-2.978.38-10.815,3.133-17.314,5.554l-2.719,3.824s.015,5.107.308,13.455c8.694,2.839,25.613.549,25.613.549,2.226,5.949,16.339,27.238,34.311,36.725s71.307,7.709,74.278,11.214,2.425,49.47,1.94,55.3,3.96,42.746,8.1,75.391c4.076,32.119-4.306,70.818-4.577,72.059a13.105,13.105,0,0,0,4.377-4.1c7-10.947,10.676-68.4,9.428-86.767S487.763,390.705,489.267,372.561Z" transform="translate(-288.646 95.466)" fill="#160a5b"/><path d="M408.045,221.5s-27.373,5.536-36.586,7.453a4.706,4.706,0,0,0-3.384,2.794c-2.809,6.626-9.958,27.256-5.716,57.743,5.212,37.462,2.644,62.537,2.644,62.537l-14.219,65.219s-17.377,62.019-16.057,63.76,35.744,29.313,46.8,25.823,7.608-9.785,7.608-9.785,7.758,45.454,47.085,45.991,71.443,1.47,78.512-14.26.229-82.747-6.047-109.371-21.446-79.757-21.446-79.757l59.164-62.3-48.278-38.809S486.911,216.4,482.147,213.5s-7.344-.609-7.344-.609Z" transform="translate(-307.368 -105.33)" fill="#453c9e"/><g transform="translate(28.464 376.71)"><path d="M381.7,294.237c-.023,2.271-1.433,5.618-8.555,7.871-7.7,2.429-26.121-9.409-38.173-18.272,6,5.246,35.586,27.986,45.7,24.8a17.9,17.9,0,0,0,4.994-2.343A80.01,80.01,0,0,1,381.7,294.237Z" transform="translate(-334.968 -283.835)" fill="url(#v)"/><path d="M462.121,312.126c-7.461,16.6-41.354,15.621-82.856,15.05a44.365,44.365,0,0,1-25.609-8.074,41.934,41.934,0,0,0,30.111,12.6c39.328.545,71.442,1.47,78.512-14.26,2.317-5.163,3.133-15.869,2.967-28.843C465.077,299.125,464.14,307.62,462.121,312.126Z" transform="translate(-283.379 -270.692)" fill="url(#w)"/></g><path d="M421.169,212.908s9.751,12.413-5.118,28.471c-9.157,9.886-25.015,31.3-38.628,53.606-8.506,13.933-16.227,21.281-20.8,33.322,0,0-.237-14.444-.259-36.74-.019-21.04.241-42.9,1.32-48.375C359.9,231.913,410.2,207.12,421.169,212.908Z" transform="translate(-247.443 -105.304)" fill="#f0f6ff"/><path d="M395.364,320.974s-5.231,3.072-7,2.764-7.333-5.991-7.333-5.991-14.264-.613-15.67-6.765-2.279-12.342-3.648-15.557-7.141-18.618-7.036-24.808.613-17.242-1.914-23.161-4.674-64.583,51.843-61.526S442.1,247.279,442.1,247.279s4.088,1.861,1.4,9.36-3.268,8.266-4.637,11.989-2.057,6.111-5.727,9.07l-1.109,6.942a27.965,27.965,0,0,1-4.866,20.867C419.871,315.671,395.364,320.974,395.364,320.974Z" transform="translate(-260.15 -177.713)" fill="#fcd1c5"/><path d="M389.914,216.7s-6.051.748-26.843,49.488c-11.6,27.192-29.159,55.223-33.239,75.549s-2.629,42.2,1.369,43.833c3.847,1.576,73.5,29.633,95.3,38.482a2.069,2.069,0,0,0,2.805-1.516l6.912-33.8L393.006,370.8s-8.059-10.364-15.775-14.369c0,0,9.149-15.9,8.7-20.314s2.016-49.913-2.636-68.573S389.914,216.7,389.914,216.7Z" transform="translate(-327.399 -92.442)" fill="#24126a"/><path d="M375.976,258.365s-5.908-4.185-7.378-4.8-9.443-3.554-10.958-4.279c-1.124-.542-5.818-.263-8.168-.087a2.543,2.543,0,0,0-2.027,1.279c-1.944,3.4-7.363,13.293-6.878,17.133,0,0,14.3,9.54,15.82,13.673l2.305.557S368.94,261.208,375.976,258.365Z" transform="translate(-291.134 -3.372)" fill="#fcd1c5"/><path d="M450.7,283.855c-1.508-6.4-3.535-14.346-5.739-22.714l-89.3,35.68S381.3,330,427.711,329.064c12.692-.256,22.048-4.6,28.933-8.36A353.988,353.988,0,0,0,450.7,283.855Z" transform="translate(-249.386 30.228)" fill="#24126a"/><path d="M523.7,229.4s-23.383,2.625-42.949,32-34.146,63.564-34.146,63.564l-.745,3.866a15.716,15.716,0,0,1-22.195,11.225c-19.66-9.367-48.77-23.522-54.155-27.685a50.683,50.683,0,0,0-23.225,32.171c-4.287,18.242-3.317,18.321-3.317,18.321s77.557,38.572,107.871,38.963,71.228-98.285,75.974-118.772S536.9,235.555,523.7,229.4Z" transform="translate(-284.668 -57.386)" fill="#24126a"/><path d="M523.7,229.4s-23.383,2.625-42.949,32-34.146,63.564-34.146,63.564l-.745,3.866a15.716,15.716,0,0,1-22.195,11.225c-19.66-9.367-48.77-23.522-54.155-27.685a50.683,50.683,0,0,0-23.225,32.171c-4.287,18.242-3.317,18.321-3.317,18.321s77.557,38.572,107.871,38.963,71.228-98.285,75.974-118.772S536.9,235.555,523.7,229.4Z" transform="translate(-284.668 -57.386)" fill="#4846a5"/><path d="M367.327,275.061s9.665,9.5,14.1,4.539,3.181-5.554,3.181-5.554,8.905.139,10.127-5.415,5.535-2.493,5.941-8.7-7.085-5.122-7.085-5.122Z" transform="translate(-217.176 12.539)" fill="#453c9e"/><path d="M364.179,281.722s2.786-2.463,6.367-5.351,9.567-15.027,10.556-16.087,13.053-9.849,18.761-9.864,1.316,6.269-.023,7.134-6.976,3.5-6.976,3.5-5.855,4.671-6.521,5.363,15.967-.745,18.562.936,1.876,5.908-.011,7.013a6.455,6.455,0,0,1-3.305,1.03s1.745,5.039-3.294,7.232-6.149.876-6.149.876-.643,8.615-8.822,6.7Z" transform="translate(-225.867 0.629)" fill="#fcd1c5"/><path d="M353.062,223.42s-7.968,23.319,11.635,17.114,37.459-16.96,43.457-12.545c4.565,3.362,4.107,13.3,3.625,17.855a6.785,6.785,0,0,0,1.057,4.411l5.554,8.518a6.427,6.427,0,0,1,1.038,3.219l.263,5.836a2.924,2.924,0,0,0,2.678,2.779l1.327.109a2.918,2.918,0,0,0,3.106-2.339l1.711-8.521s4.862-11.4,14.418-6.637c0,0,6.679-8.529,4.994-27.155s-9.529-38.151-45.9-42.144S353.062,223.42,353.062,223.42Z" transform="translate(-260.978 -183.66)" fill="#aa8383"/><path d="M379.128,232.977l-5.351-4.366s-5.148,4.069-7.224,8.465-.455,18.569-.455,18.569l-1.733,2.817-1.955-3.787-1.316-16.749s2.162-12.3,2.35-12.613,10.492,1.361,10.492,1.361A21.446,21.446,0,0,1,379.128,232.977Z" transform="translate(-234.388 -68.782)" fill="#c4ccd6"/><path d="M365.276,222.729s-5.84.241-8.518,2.358c0,0,6.107.451,7.077.587S365.276,222.729,365.276,222.729Z" transform="translate(-246.352 -75.81)" fill="#c4ccd6"/><path d="M372.356,224.21l9.552,9.386s-8.687,3.738-11.274,11.357c0,0-10.691,1.722-11.564-2.155s.365-13.564-.8-17.9S372.356,224.21,372.356,224.21Z" transform="translate(-242.358 -75.7)" fill="#24126a"/><path d="M365.295,228.124s-2.016,7.961-4.084,11.218-4.193,6.908-4.193,6.908l-.925,46.935s18.145-35.15,22.07-42.261c0,0-.15-17.152-1.7-20.435S365.295,228.124,365.295,228.124Z" transform="translate(-248.188 -61.243)" fill="#24126a"/><path d="M403.839,209.9c-12.15,32.434-44.3,41.354-44.3,41.354s5.566,5.682,7.333,5.991,7-2.764,7-2.764,24.507-5.31,31.792-15.471a27.984,27.984,0,0,0,4.866-20.867l1.109-6.942C406.543,212.736,403.839,209.9,403.839,209.9Z" transform="translate(-238.662 -111.222)" fill="#e2b1a6"/><path d="M435.795,220.256s-4.858,15.332-5.449,15.9-11.233-.933-11.233-.933l4.937,9.947s-55.129,56.254-67.027,86.955c0,0,26.384-38.632,72.27-84.413l-6.088-9.736,10.92,2.414Z" transform="translate(-245.621 -82.636)" fill="#24126a"/><path d="M365.291,216.048l-2.929,3.181,3.268,3.212-10.15,8.728s-4.6,62.917,6.491,104.949c0,0-15.512-38.685-10.086-106.754l10.928-7.021-3.433-3.546Z" transform="translate(-262.985 -94.253)" fill="#24126a"/><path d="M373.42,319.62a3.642,3.642,0,0,1,.365.3L360.239,304.77c6.194,9.213-2.23,50.5-3.23,59.965s6.7,29.287,9.2,52.331c2.493,23.011-4.6,55.6-4.622,55.7,4.035-2.2,7.292-5.96,8.758-11.879,5.276-21.341,4.452-61.541-.35-78.418S373.42,319.62,373.42,319.62Z" transform="translate(-245.908 150.666)" fill="#160a5b"/><path d="M450.838,370.281c30.31.391,71.228-98.285,75.974-118.772.79-3.418,1.595-7.021,2.328-10.676-.117.3-8.5,21.612-16.546,40.5-8.1,19.017-50.045,76.222-70.829,79.5-18.746,2.956-85.1-30.047-97.943-36.556-1.35,6.968-.854,7.043-.854,7.043S420.524,369.887,450.838,370.281Z" transform="translate(-284.668 -25.833)" fill="url(#x)"/><path d="M378.638,238.517a2.918,2.918,0,0,0,3.106-2.339l1.711-8.521s4.862-11.4,14.418-6.637c0,0,6.3-8.1,5.092-25.7-11.15,15.869-35.183,22.729-35.183,22.729l5.554,8.518a6.424,6.424,0,0,1,1.038,3.219l.263,5.836a2.924,2.924,0,0,0,2.677,2.779Z" transform="translate(-215.923 -151.462)" fill="#936d6d"/></g></g><path d="M325.156,93.465l175.632,101.4c8.168,4.716,14.79,17.366,14.79,28.257v167.5c0,10.89-6.622,15.9-14.79,11.18L293.357,282.044Z" transform="translate(216.404 35.608)" fill="#24126a"/><g transform="translate(373.815 25.927)"><path d="M258.45,73.68,267,67.569h0c2.677-2.042,6.385-2.125,10.484.241L576.323,240.347c8.168,4.716,14.79,17.366,14.79,28.257V436.1c0,5.7-1.82,9.762-4.719,11.688l.03.011-8.882,6.348-.493-6.5c-.241-.124-.477-.229-.722-.368L277.49,274.748c-8.168-4.716-14.79-17.366-14.79-28.257V78.99a21.867,21.867,0,0,1,.432-4.407Z" transform="translate(-253.772 -66.036)" fill="url(#y)"/><path d="M419.195,131.078l-78.881,45.54-19.867-11.47L410.03,113.43A38.064,38.064,0,0,1,419.195,131.078Z" transform="translate(-82.628 64.795)" fill="url(#z)"/><path d="M272,276.443,570.834,448.979c8.168,4.712,14.79-.29,14.79-11.18V270.3c0-10.891-6.622-23.541-14.79-28.257L272,69.5c-8.168-4.716-14.79.29-14.79,11.18v167.5C257.21,259.077,263.828,271.731,272,276.443Z" transform="translate(-257.206 -61.361)" fill="url(#c)"/><path d="M580.66,438.647v-167.5c0-10.89-6.622-23.541-14.79-28.257L267.032,70.356c-3.215-1.858-6.19-2.189-8.615-1.26,2.659-1.869,6.261-1.892,10.236.4L567.491,242.036c8.168,4.716,14.79,17.366,14.79,28.257v167.5c0,6.6-2.437,11.018-6.175,12.44C578.911,448.259,580.66,444.239,580.66,438.647Z" transform="translate(-253.863 -61.351)" fill="#fff"/><path d="M271.579,129.68l243.9,140.681c1.88,1.087,3.486,1.673,4.588-.023.173-.263.079-.647.079-1.012v-37c0-2.873-1.749-6.212-3.9-7.457L270.451,82.967c-.192-.113-.372-.3-.568-.274-1.843.3-1.914,2-1.914,4.622l-.594,35.488A8.555,8.555,0,0,0,271.579,129.68Z" transform="translate(-229.134 -20.066)" fill="#5761d7"/><path d="M271.071,151,515.38,291.805c1.88,1.087,4.31,2.226,4.682.079a6.112,6.112,0,0,0,.079-1.019v-37c0-2.873-1.749-6.212-3.9-7.457L270.45,104.5a3.646,3.646,0,0,0-.564-.271c-1.888-.726-2.384,1.715-2.384,4.332l-.128,35.041C267.378,146.484,268.916,149.755,271.071,151Z" transform="translate(-229.137 39.052)" fill="#5761d7"/><path d="M270.486,82.837a5.972,5.972,0,0,0-.079,1v37c0,2.873,1.749,6.212,3.9,7.457L520.1,270.2a4.09,4.09,0,0,0,.572.252c-.365,2.159-1.937,3.035-3.824,1.944L271.058,130.49c-2.155-1.245-3.9-4.584-3.9-7.457v-37C267.158,83.431,268.606,82.123,270.486,82.837Z" transform="translate(-229.744 -20.192)" fill="#fff"/><path d="M270.486,104.286a5.973,5.973,0,0,0-.079,1v37c0,2.873,1.749,6.212,3.9,7.457L520.1,291.651a3.689,3.689,0,0,0,.572.252c-.365,2.159-1.937,3.035-3.824,1.944L271.058,151.94c-2.155-1.245-3.9-4.584-3.9-7.457V107.49C267.158,104.877,268.606,103.572,270.486,104.286Z" transform="translate(-229.744 39.018)" fill="#fff"/><g transform="translate(96.867 110.457)"><g transform="translate(113 65.241)"><path d="M323.9,132.219l-3,5.686-5.716-7.179,4.34-4.475-6.5-6.622,2.125-5.483,5.87,7.2-.794-8.585,7.19,4.152-.756,7.66,5.874-.354,2.174,7.9-6.412-.835,4.306,9.533-5.618.6Z" transform="translate(-313.014 -112.758)" fill="#fff"/></g><g transform="translate(84.747 48.928)"><path d="M316.388,127.881l-3.008,5.686-5.716-7.179,4.34-4.475-6.5-6.622,2.125-5.483,5.87,7.2-.794-8.585,7.19,4.152-.756,7.66,5.874-.354,2.177,7.9-6.412-.835,4.3,9.533-5.618.6Z" transform="translate(-305.501 -108.42)" fill="#fff"/></g><g transform="translate(56.502 32.623)"><path d="M308.869,123.541l-3,5.69-5.716-7.179,4.343-4.475-6.5-6.622,2.125-5.483,5.866,7.2-.79-8.585,7.19,4.152-.752,7.66,5.874-.353,2.173,7.9-6.412-.835,4.3,9.533-5.618.6Z" transform="translate(-297.99 -104.084)" fill="#fff"/></g><g transform="translate(28.249 16.306)"><path d="M301.36,119.206l-3,5.69-5.716-7.179,4.34-4.475-6.5-6.626,2.125-5.483,5.866,7.2-.79-8.585,7.19,4.152-.756,7.656,5.874-.354,2.174,7.9-6.412-.835,4.3,9.537-5.618.6Z" transform="translate(-290.477 -99.745)" fill="#fff"/></g><path d="M293.844,114.866l-3,5.69-5.716-7.179,4.343-4.475-6.5-6.622L285.09,96.8l5.866,7.2-.79-8.585,7.19,4.152-.756,7.66,5.874-.357,2.177,7.908-6.412-.839,4.3,9.533-5.622.6Z" transform="translate(-282.965 -95.409)" fill="#fff"/></g><g transform="translate(96.867 191.112)"><g transform="translate(113 65.241)"><path d="M323.9,153.667l-3,5.686-5.716-7.179,4.34-4.475-6.5-6.622,2.125-5.487,5.87,7.2-.794-8.585,7.19,4.152-.756,7.66,5.874-.354,2.174,7.9-6.412-.835,4.306,9.533-5.618.6Z" transform="translate(-313.014 -134.206)" fill="#fff"/></g><g transform="translate(84.747 48.936)"><path d="M316.388,149.327l-3.008,5.69-5.716-7.179,4.34-4.475-6.5-6.622,2.125-5.483,5.87,7.2-.794-8.585,7.19,4.152-.756,7.66,5.874-.357,2.177,7.9-6.412-.835,4.3,9.533-5.618.6Z" transform="translate(-305.501 -129.87)" fill="#fff"/></g><g transform="translate(56.502 32.626)"><path d="M308.869,144.99l-3,5.69-5.716-7.179,4.343-4.475-6.5-6.622,2.125-5.483,5.866,7.2-.79-8.585,7.19,4.152-.752,7.66,5.874-.353,2.173,7.9-6.412-.835,4.3,9.537-5.618.6Z" transform="translate(-297.99 -125.533)" fill="#fff"/></g><g transform="translate(28.249 16.313)"><path d="M301.36,140.652l-3,5.69-5.716-7.179,4.34-4.475-6.5-6.622,2.125-5.483,5.866,7.2-.79-8.585,7.19,4.152-.756,7.66,5.874-.353,2.174,7.9-6.412-.839,4.3,9.537-5.618.6Z" transform="translate(-290.477 -121.195)" fill="#fff"/></g><path d="M293.844,136.318l-3,5.69-5.716-7.179,4.343-4.475-6.5-6.626,2.125-5.483,5.866,7.2-.79-8.589,7.19,4.152-.756,7.66,5.874-.353,2.177,7.9-6.412-.835,4.3,9.537-5.622.6Z" transform="translate(-282.965 -116.857)" fill="#fff"/></g></g></g><path d="M337.812,356.714l-37.274,21.521-37.274-21.521,37.274-21.522Z" transform="translate(361.123 702.901)" fill="#4846a5" opacity="0.3"/><path d="M370.837,312.223l-37.27,21.518-37.274-21.518L333.563,290.7Z" transform="translate(452.301 580.083)" fill="#4846a5" opacity="0.1"/><path d="M326.8,160.319,289.53,181.837l-37.274-21.518L289.53,138.8Z" transform="translate(330.738 160.751)" fill="#4846a5" opacity="0.1"/><path d="M381.845,331.292l-37.27,21.518L307.3,331.288l37.274-21.518Z" transform="translate(482.689 632.723)" fill="#4846a5" opacity="0.3"/><path d="M502.936,299.512l-37.27,21.522-37.274-21.522,37.271-21.521Z" transform="translate(816.963 544.996)" fill="#4846a5" opacity="0.3"/><path d="M269.564,210.032,232.29,231.55l-37.27-21.521,37.27-21.518Z" transform="translate(172.734 297.985)" fill="#4846a5" opacity="0.3"/><path d="M509.58,209.876l-37.274,21.518-37.274-21.522,37.274-21.518Z" transform="translate(835.293 297.554)" fill="#4846a5" opacity="0.3"/><path d="M204.614,220.068l-37.274,21.518-37.274-21.521,37.274-21.522Z" transform="translate(-6.573 325.678)" fill="#4846a5" opacity="0.1"/><g transform="translate(168.024 183.443)"><path d="M305.753,325.493a6.851,6.851,0,0,1-3.4-.9L145.314,233.924a6.821,6.821,0,0,1,0-11.808l157.032-90.662a6.833,6.833,0,0,1,6.818,0l157.032,90.659a6.815,6.815,0,0,1-.007,11.808L309.164,324.586A6.91,6.91,0,0,1,305.753,325.493Zm.335-7.4h0Zm-156.017-90.08L305.753,317.9l155.674-89.88-155.678-89.88Z" transform="translate(-141.907 -45.476)" fill="url(#t)"/><path d="M430.791,168.684V140.138L289.324,218.191,147.857,140.134v28.55l141.471,81.675Z" transform="translate(-125.482 -19.004)" fill="url(#ac)"/><path d="M289.328,281.768,147.857,200.09l141.467-81.675,141.467,81.679Z" transform="translate(-125.482 -78.96)" fill="url(#ad)"/><path d="M289.328,220.323,149.9,139.821,147.857,141l141.471,81.675L430.791,141l-2.038-1.177Z" transform="translate(-125.482 -19.868)" fill="#fff" opacity="0.5"/><path d="M249.675,227.689,162.22,177.2l87.455-50.489L337.129,177.2Z" transform="translate(-85.832 -56.067)" fill="#0f054c"/><g transform="translate(76.388)"><path d="M249.675,227.693,162.22,177.2l87.455-50.489L337.129,177.2Z" transform="translate(-162.22 -56.067)" opacity="0.5" fill="url(#t)"/><path d="M185.476,107.923l87.455,50.5v70.638l-87.455-50.5Z" transform="translate(-98.021 -107.923)" opacity="0.5" fill="url(#t)"/><path d="M249.675,178.561,162.22,229.053V158.416l87.455-50.493Z" transform="translate(-162.22 -107.923)" opacity="0.5" fill="url(#t)"/><path d="M249.675,208.908,162.22,158.416l87.455-50.493,87.455,50.5Z" transform="translate(-162.22 -107.923)" opacity="0.5" fill="url(#t)"/><path d="M185.476,171.84v70.641l87.455-50.493V121.351Z" transform="translate(-98.021 -70.855)" opacity="0.5" fill="url(#t)"/><path d="M162.22,121.35v70.638l87.455,50.5V171.843Z" transform="translate(-162.22 -70.857)" opacity="0.5" fill="url(#t)"/></g></g></g></svg>