<svg xmlns="http://www.w3.org/2000/svg" xmlns:xlink="http://www.w3.org/1999/xlink" width="523.116" height="399.897" viewBox="0 0 523.116 399.897"><defs><clipPath id="a"><rect width="320.74" height="166.39" fill="none"/></clipPath><linearGradient id="b" y1="0.49" x2="1" y2="0.49" gradientUnits="objectBoundingBox"><stop offset="0" stop-color="#f7941e"/><stop offset="1" stop-color="#f7941e" stop-opacity="0"/></linearGradient></defs><g transform="translate(0 0)"><path d="M146.033,400.13s-37.31-20.05-33.7-59.88c4.015-44.34,37.862-50.83,42.448-77.87,9.366-55.23-27.489-48.7-26.531-114.34.968-67.75,59.932-133.8,146.5-98.42,76.981,31.46,94.04,63.23,146.038,64.33s91.863-31.15,136.43,4.4c30.208,24.11,48.544,76.13,12.966,136.49s-8.428,74.65,5.622,101,5.622,44.25,5.622,44.25Z" transform="translate(-104.373 -39.753)" fill="#ebf8ff" opacity="0.5"/><path d="M337.06,414.37c-68.49.15-164,.25-228.74,0-2.18,0-9,.07,2.78-7.54,10-6.45,41.63-.65,41.63-.65s-7.36-3-7.33-6.76,2.92-7.16,6.39-8.74S159.2,389,163,389.21a71.489,71.489,0,0,1,22.59,5.05,6.55,6.55,0,1,1,7.6-10.64C188.33,377,180.82,347.9,203.9,335c28.93-16.1,50.89-2.85,55.58,6.84,2.38-9.51,13.29-16.72,20.48-18.5,16.4-4.07,27.08-2.86,42.38,4.28,5.41,2.53,12.66,11.17,16.26,15.94,5.64,7.47,6.52,17.41,6.83,26.76q.35,10.53.09,21.07" transform="translate(-104.373 -39.753)" fill="#c5f4ff"/><path d="M404.25,414.32c71.07.2,168.63.26,235.17,0,2.24,0,9.28.07-2.86-7.76-10.29-6.63-42.8-.67-42.8-.67s7.57-3,7.53-6.95-3-7.36-6.57-9-7.62-1.74-11.53-1.52a73.49,73.49,0,0,0-23.22,5.2,6.74,6.74,0,1,0-7.81-10.94c5-6.76,12.71-36.73-11-49.94-29.74-16.56-52.33-2.93-57.14,7-2.44-9.78-13.67-17.19-21.06-19-16.86-4.19-27.84-2.94-43.57,4.4-5.57,2.6-13,11.48-16.72,16.38-5.8,7.68-6.7,17.9-7,27.51q-.36,10.83-.1,21.66" transform="translate(-120.373 -39.753)" fill="#c5f4ff"/><path d="M200.63,271.91c-2.41-5.05-4.87-10.34-4.74-15.94.13-5.18-.07-10.94,1.28-16a42,42,0,0,0,1-15.43c-1.76-16.17-8.58-15.17-11.12-14.23s-3.9,3.38-4.49,7.54c-.47,3.34.19,19.29-4.68,16.42-5.63-3.32-3.69-19.69-4-25.25-.52-8.32-2.94-17.4-8.59-23.74-2.78-3.12-7.1-5.65-11-4.22a9.68,9.68,0,0,0-5.09,5.26c-3.17,6.85-1.49,14.49.6,21.38.87,2.88,9,16.64,1.31,14.57-1.84-.49-16.15-14.36-19-1.86-1,4.4,3.5,9.5,10.81,16.06,4.57,4.09,21.88,15.35,20.44,20.19s-10.75-4.11-10.52,5.2c.13,5.22,6.5,9.64,10.88,12.06,2.08,1.15,4.39,1.89,6.39,3.18,2.38,1.53,5.13,4.91,2.9,7.68-1,1.21-2.66,1.69-3.59,2.93a4.42,4.42,0,0,0-.19,4.5,10.25,10.25,0,0,0,3.15,3.48c8,6.17,18.69,8.15,28.76,7.24s19.72-4.5,29-8.55" transform="translate(-104.373 -39.753)" fill="#c5f4ff"/><g transform="translate(35.227 150.447)" opacity="0.25"><path d="M158.22,190.2S162.93,245.06,192,282" transform="translate(-139.6 -190.2)" fill="none" stroke="#fff" stroke-linecap="round" stroke-linejoin="round" stroke-width="1.24"/><path d="M139.6,224.08s16.73,16.14,31.51,19.77" transform="translate(-139.6 -190.2)" fill="none" stroke="#fff" stroke-linecap="round" stroke-linejoin="round" stroke-width="1.24"/><path d="M189.13,217.35c.07,8.55-1.67,32.23-10.87,42.77" transform="translate(-139.6 -190.2)" fill="none" stroke="#fff" stroke-linecap="round" stroke-linejoin="round" stroke-width="1.24"/><path d="M159.33,264.39s6.51,6.94,28.4,11.78" transform="translate(-139.6 -190.2)" fill="none" stroke="#fff" stroke-linecap="round" stroke-linejoin="round" stroke-width="1.24"/><path d="M173.56,289.71s11.22,3.22,22-1.69" transform="translate(-139.6 -190.2)" fill="none" stroke="#fff" stroke-linecap="round" stroke-linejoin="round" stroke-width="1.24"/></g><path d="M534.55,181c2.19-4.59,4.43-9.4,4.31-14.49-.12-4.71.07-10-1.16-14.51a38.179,38.179,0,0,1-.94-14c1.6-14.71,7.8-13.79,10.11-12.94s3.55,3.08,4.08,6.86c.43,3-.17,17.54,4.25,14.93,5.12-3,3.36-17.91,3.67-23,.48-7.56,2.68-15.83,7.82-21.59,2.53-2.84,6.46-5.14,10-3.83a8.81,8.81,0,0,1,4.63,4.79c2.88,6.23,1.35,13.18-.55,19.45-.79,2.62-8.19,15.13-1.19,13.25,1.67-.45,14.69-13.06,17.29-1.69.92,4-3.18,8.64-9.83,14.61-4.15,3.72-19.9,14-18.59,18.36s9.78-3.74,9.57,4.73c-.12,4.74-5.91,8.76-9.89,11-1.89,1-4,1.72-5.81,2.89-2.16,1.39-4.66,4.46-2.64,7,.89,1.1,2.42,1.54,3.27,2.67a4,4,0,0,1,.17,4.09,9.321,9.321,0,0,1-2.86,3.16c-7.3,5.61-17,7.41-26.16,6.58s-17.93-4.09-26.37-7.77" transform="translate(-120.373 -39.753)" fill="#c5f4ff"/><g transform="translate(418.787 66.938)" opacity="0.25"><path d="M573.11,106.69s-4.29,49.89-30.75,83.49" transform="translate(-539.16 -106.69)" fill="none" stroke="#fff" stroke-linecap="round" stroke-linejoin="round" stroke-width="1.13"/><path d="M590,137.5s-15.21,14.68-28.65,18" transform="translate(-539.16 -106.69)" fill="none" stroke="#fff" stroke-linecap="round" stroke-linejoin="round" stroke-width="1.13"/><path d="M545,131.38c-.06,7.78,1.52,29.31,9.88,38.9" transform="translate(-539.16 -106.69)" fill="none" stroke="#fff" stroke-linecap="round" stroke-linejoin="round" stroke-width="1.13"/><path d="M572.1,174.16s-5.92,6.31-25.82,10.72" transform="translate(-539.16 -106.69)" fill="none" stroke="#fff" stroke-linecap="round" stroke-linejoin="round" stroke-width="1.13"/><path d="M559.16,197.18s-10.21,2.92-20-1.54" transform="translate(-539.16 -106.69)" fill="none" stroke="#fff" stroke-linecap="round" stroke-linejoin="round" stroke-width="1.13"/></g><g transform="translate(148.206 313.422)" opacity="0.5"><path d="M455.35,406.55c3-1.12,4.9-2.58,5.07-4.47.31-3.35-7.21-3.36-13-2.75,7.67-4.36,14.37-10,11.83-15.66-5.3-11.83-22.53,1.21-28.37,8.76,0,0,26-32.69,9.82-38.7-14.48-5.37-20.52,29.9-21.09,33.46.52-3.4,5-35.18-11.66-33.67C390.46,355.11,393.31,409,393.31,409s29.1,2.13,49,.14l-20.4,5.44H474.1C477,405.59,464.64,405.47,455.35,406.55Z" transform="translate(-260.257 -353.175)" fill="#8ae9ff"/><path d="M337.17,353.55c-17.82-1.61-13,32.42-12.48,36.06-.61-3.81-7.08-41.58-22.58-35.83-17.35,6.43,10.52,41.44,10.52,41.44-6.25-8.09-22.36-20.06-28-7.39-2.47,5.52,2.83,10.66,9.59,14.71-4.33-1-8.77-1.51-10.21.24-1.74,2.13-1.17,4.41,1.33,6.34-7.42-1.85-28.38-6.14-24.64,5.42h52.19l-5.27-1c3.3-.35,5.19-1.31,6.23-2.47l.31.1,38.76,1.75L347,393S355.93,355.24,337.17,353.55Z" transform="translate(-260.257 -353.175)" fill="#8ae9ff"/></g><path d="M325.95,409.94s-18.23-7-13.83-13.13c2.77-3.83,8.13,2.68,8.13,2.68s-7-9.22-1-12c6.33-2.92,9.72,7.71,9.72,7.71s-2.35-9.31,2.46-10.63,5.18,9.31,5.18,9.31,6.22-8.38,9.93-1.7c3.36,6.06-6.84,18.14-6.84,18.14" transform="translate(-110.955 -39.753)" fill="#00a4d6" opacity="0.2"/><path d="M420,411.17s18.23-7,13.83-13.12c-2.77-3.83-8.13,2.68-8.13,2.68s7-9.22,1-12c-6.33-2.92-9.72,7.71-9.72,7.71s2.35-9.31-2.46-10.63-5.18,9.31-5.18,9.31-6.22-8.38-9.93-1.7c-3.36,6.06,6.84,18.14,6.84,18.14" transform="translate(-113.73 -39.753)" fill="#00a4d6" opacity="0.2"/><path d="M410.31,405.96H337.72l7.88-31,1.79-7.03,3.47-13.61h46.31l3.47,13.61,1.78,7.03Z" transform="translate(-112.376 -39.753)" fill="#1a92c1"/><path d="M544.78,153.72V359.23a8.79,8.79,0,0,1-6.49,8.62,8,8,0,0,1-2,.24H212.73a8.18,8.18,0,0,1-4.54-1.38,8.958,8.958,0,0,1-3.91-7.48V153.72a8.67,8.67,0,0,1,8.45-8.86h323.6A8.67,8.67,0,0,1,544.78,153.72Z" transform="translate(-112.421 -39.753)" fill="#1a92c1"/><path d="M402.42,374.96H345.6l1.79-7.03h53.25Z" transform="translate(-112.375 -39.753)" fill="#107999"/><path d="M438.16,414.53H309.86a5.57,5.57,0,0,1-5.57-5.57h0a5.57,5.57,0,0,1,5.57-5.57h128.3a5.57,5.57,0,0,1,5.57,5.57h0a5.57,5.57,0,0,1-5.57,5.57Z" transform="translate(-112.376 -39.753)" fill="#107999"/><path d="M544.78,153.73V330.91H204.28V153.73a8.67,8.67,0,0,1,8.46-8.86h323.6A8.67,8.67,0,0,1,544.78,153.73Z" transform="translate(-112.421 -39.753)" fill="#46a6d1"/><rect width="320.74" height="166.39" transform="translate(101.743 115.598)" fill="#ebf8ff"/><g transform="translate(101.743 115.598)" opacity="0.7"><g clip-path="url(#a)"><g transform="translate(-33.23 -25.427)" opacity="0.5"><g transform="translate(0 27.847)" opacity="0.3"><path d="M185.38,158.15h-1.06a6.49,6.49,0,0,1-2.28.78v.88h2v7.84h-2.47v1.13h6.09v-1.13h-2.23Z" transform="translate(-180.93 -157.77)" fill="#56a4fe"/><path d="M220.23,158.15h-1.07a6.48,6.48,0,0,1-2.28.78v.88h2v7.84h-2.47v1.13h6.09v-1.13h-2.23Z" transform="translate(-180.93 -157.77)" fill="#56a4fe"/><path d="M202,158c-2.16,0-3.47,1.92-3.47,5.49S199.84,169,202,169s3.45-2,3.45-5.55S204.15,158,202,158Zm0,9.94c-1.27,0-2.11-1.33-2.11-4.45s.84-4.39,2.11-4.39,2.1,1.27,2.1,4.39-.85,4.4-2.1,4.4Z" transform="translate(-180.93 -157.77)" fill="#56a4fe"/><path d="M256,158c-2.16,0-3.47,1.92-3.47,5.49S253.86,169,256,169s3.45-2,3.45-5.55S258.17,158,256,158Zm0,9.94c-1.27,0-2.11-1.33-2.11-4.45s.84-4.39,2.11-4.39,2.1,1.27,2.1,4.39-.82,4.4-2.1,4.4Z" transform="translate(-180.93 -157.77)" fill="#56a4fe"/><path d="M275.49,158.15h-1.07a6.48,6.48,0,0,1-2.28.78v.88h2v7.84h-2.47v1.13h6.09v-1.13h-2.23Z" transform="translate(-180.93 -157.77)" fill="#56a4fe"/><path d="M184.4,176.72c-2.16,0-3.47,1.92-3.47,5.49s1.3,5.55,3.47,5.55,3.45-2,3.45-5.55S186.55,176.72,184.4,176.72Zm0,9.94c-1.27,0-2.11-1.33-2.11-4.45s.84-4.39,2.11-4.39,2.1,1.27,2.1,4.39S185.65,186.66,184.4,186.66Z" transform="translate(-180.93 -157.77)" fill="#56a4fe"/><path d="M220.23,176.92h-1.07a6.481,6.481,0,0,1-2.28.78v.88h2v7.84h-2.47v1.13h6.09v-1.13h-2.23Z" transform="translate(-180.93 -157.77)" fill="#56a4fe"/><path d="M237.9,176.72c-2.16,0-3.47,1.92-3.47,5.49s1.3,5.55,3.47,5.55,3.45-2,3.45-5.55S240,176.72,237.9,176.72Zm0,9.94c-1.27,0-2.11-1.33-2.11-4.45s.84-4.39,2.11-4.39,2.1,1.27,2.1,4.39S239.15,186.66,237.9,186.66Z" transform="translate(-180.93 -157.77)" fill="#56a4fe"/><path d="M202,176.72c-2.16,0-3.47,1.92-3.47,5.49s1.3,5.55,3.47,5.55,3.45-2,3.45-5.55S204.15,176.72,202,176.72Zm0,9.94c-1.27,0-2.11-1.33-2.11-4.45s.84-4.39,2.11-4.39,2.1,1.27,2.1,4.39S203.25,186.66,202,186.66Z" transform="translate(-180.93 -157.77)" fill="#56a4fe"/><path d="M185.38,195.69h-1.06a6.49,6.49,0,0,1-2.28.78v.88h2v7.84h-2.47v1.13h6.09v-1.13h-2.23Z" transform="translate(-180.93 -157.77)" fill="#56a4fe"/><path d="M238.88,195.69h-1.06a6.48,6.48,0,0,1-2.28.78v.88h2v7.84H235v1.13h6.09v-1.13h-2.23Z" transform="translate(-180.93 -157.77)" fill="#56a4fe"/><path d="M202,195.49c-2.16,0-3.47,1.92-3.47,5.49s1.3,5.55,3.47,5.55,3.45-2,3.45-5.55S204.15,195.49,202,195.49Zm0,9.94c-1.27,0-2.11-1.33-2.11-4.45s.84-4.39,2.11-4.39,2.1,1.27,2.1,4.39-.85,4.45-2.1,4.45Z" transform="translate(-180.93 -157.77)" fill="#56a4fe"/><path d="M184.4,214.25c-2.16,0-3.47,1.92-3.47,5.49s1.3,5.55,3.47,5.55,3.45-2,3.45-5.55S186.55,214.25,184.4,214.25Zm0,9.94c-1.27,0-2.11-1.33-2.11-4.45s.84-4.39,2.11-4.39,2.1,1.27,2.1,4.39S185.65,224.19,184.4,224.19Z" transform="translate(-180.93 -157.77)" fill="#56a4fe"/><path d="M220.23,214.45h-1.07a6.49,6.49,0,0,1-2.28.78v.88h2V224h-2.47v1.13h6.09V224h-2.23Z" transform="translate(-180.93 -157.77)" fill="#56a4fe"/><path d="M238.88,214.45h-1.06a6.49,6.49,0,0,1-2.28.78v.88h2V224H235v1.13h6.09V224h-2.23Z" transform="translate(-180.93 -157.77)" fill="#56a4fe"/><path d="M202,214.25c-2.16,0-3.47,1.92-3.47,5.49s1.3,5.55,3.47,5.55,3.45-2,3.45-5.55S204.15,214.25,202,214.25Zm0,9.94c-1.27,0-2.11-1.33-2.11-4.45s.84-4.39,2.11-4.39,2.1,1.27,2.1,4.39S203.25,224.19,202,224.19Z" transform="translate(-180.93 -157.77)" fill="#56a4fe"/><path d="M256,214.25c-2.16,0-3.47,1.92-3.47,5.49s1.3,5.55,3.47,5.55,3.45-2,3.45-5.55S258.17,214.25,256,214.25Zm0,9.94c-1.27,0-2.11-1.33-2.11-4.45s.84-4.39,2.11-4.39,2.1,1.27,2.1,4.39S257.28,224.19,256,224.19Z" transform="translate(-180.93 -157.77)" fill="#56a4fe"/><path d="M274.51,214.25c-2.16,0-3.47,1.92-3.47,5.49s1.3,5.55,3.47,5.55,3.45-2,3.45-5.55S276.66,214.25,274.51,214.25Zm0,9.94c-1.27,0-2.11-1.33-2.11-4.45s.84-4.39,2.11-4.39,2.1,1.27,2.1,4.39S275.76,224.19,274.51,224.19Z" transform="translate(-180.93 -157.77)" fill="#56a4fe"/><path d="M185.38,233.22h-1.06A6.49,6.49,0,0,1,182,234v.88h2v7.84h-2.47v1.13h6.09v-1.13h-2.23Z" transform="translate(-180.93 -157.77)" fill="#56a4fe"/><path d="M237.9,233c-2.16,0-3.47,1.92-3.47,5.49s1.3,5.55,3.47,5.55,3.45-2,3.45-5.55S240,233,237.9,233Zm0,9.94c-1.27,0-2.11-1.33-2.11-4.45s.84-4.39,2.11-4.39,2.1,1.27,2.1,4.39-.85,4.51-2.1,4.51Z" transform="translate(-180.93 -157.77)" fill="#56a4fe"/><path d="M202,233c-2.16,0-3.47,1.92-3.47,5.49s1.3,5.55,3.47,5.55,3.45-2,3.45-5.55S204.15,233,202,233Zm0,9.94c-1.27,0-2.11-1.33-2.11-4.45s.84-4.39,2.11-4.39,2.1,1.27,2.1,4.39S203.25,243,202,243Z" transform="translate(-180.93 -157.77)" fill="#56a4fe"/><path d="M256,233c-2.16,0-3.47,1.92-3.47,5.49s1.3,5.55,3.47,5.55,3.45-2,3.45-5.55S258.17,233,256,233Zm0,9.94c-1.27,0-2.11-1.33-2.11-4.45s.84-4.39,2.11-4.39,2.1,1.27,2.1,4.39S257.28,243,256,243Z" transform="translate(-180.93 -157.77)" fill="#56a4fe"/><path d="M185.38,251.26h-1.06A6.49,6.49,0,0,1,182,252v.88h2v7.84h-2.47v1.13h6.09v-1.13h-2.23Z" transform="translate(-180.93 -157.77)" fill="#56a4fe"/><path d="M220.23,251.26h-1.07a6.49,6.49,0,0,1-2.28.78v.88h2v7.84h-2.47v1.13h6.09v-1.13h-2.23Z" transform="translate(-180.93 -157.77)" fill="#56a4fe"/><path d="M238.88,251.26h-1.06a6.49,6.49,0,0,1-2.28.78v.88h2v7.84H235v1.13h6.09v-1.13h-2.23Z" transform="translate(-180.93 -157.77)" fill="#56a4fe"/><path d="M202,251.06c-2.16,0-3.47,1.92-3.47,5.49s1.3,5.55,3.47,5.55,3.45-2,3.45-5.55S204.15,251.06,202,251.06Zm0,9.94c-1.27,0-2.11-1.33-2.11-4.45s.84-4.39,2.11-4.39,2.1,1.27,2.1,4.39S203.25,261,202,261Z" transform="translate(-180.93 -157.77)" fill="#56a4fe"/><path d="M256,251.06c-2.16,0-3.47,1.92-3.47,5.49s1.3,5.55,3.47,5.55,3.45-2,3.45-5.55S258.17,251.06,256,251.06Zm0,9.94c-1.27,0-2.11-1.33-2.11-4.45s.84-4.39,2.11-4.39,2.1,1.27,2.1,4.39S257.28,261,256,261Z" transform="translate(-180.93 -157.77)" fill="#56a4fe"/><path d="M275.49,251.26h-1.07a6.489,6.489,0,0,1-2.28.78v.88h2v7.84h-2.47v1.13h6.09v-1.13h-2.23Z" transform="translate(-180.93 -157.77)" fill="#56a4fe"/><path d="M184.4,269.83c-2.16,0-3.47,1.92-3.47,5.49s1.3,5.55,3.47,5.55,3.45-2,3.45-5.55S186.55,269.83,184.4,269.83Zm0,9.94c-1.27,0-2.11-1.33-2.11-4.45s.84-4.39,2.11-4.39,2.1,1.27,2.1,4.39S185.65,279.77,184.4,279.77Z" transform="translate(-180.93 -157.77)" fill="#56a4fe"/><path d="M220.23,270h-1.07a6.5,6.5,0,0,1-2.28.78v.89h2v7.84h-2.47v1.13h6.09v-1.13h-2.23Z" transform="translate(-180.93 -157.77)" fill="#56a4fe"/><path d="M237.9,269.83c-2.16,0-3.47,1.92-3.47,5.49s1.3,5.55,3.47,5.55,3.45-2,3.45-5.55S240,269.83,237.9,269.83Zm0,9.94c-1.27,0-2.11-1.33-2.11-4.45s.84-4.39,2.11-4.39,2.1,1.27,2.1,4.39S239.15,279.77,237.9,279.77Z" transform="translate(-180.93 -157.77)" fill="#56a4fe"/><path d="M202,269.83c-2.16,0-3.47,1.92-3.47,5.49s1.3,5.55,3.47,5.55,3.45-2,3.45-5.55S204.15,269.83,202,269.83Zm0,9.94c-1.27,0-2.11-1.33-2.11-4.45s.84-4.39,2.11-4.39,2.1,1.27,2.1,4.39S203.25,279.77,202,279.77Z" transform="translate(-180.93 -157.77)" fill="#56a4fe"/><path d="M257,270h-1.07a6.5,6.5,0,0,1-2.28.78v.89h2v7.84h-2.47v1.13h6.09v-1.13H257Z" transform="translate(-180.93 -157.77)" fill="#56a4fe"/><path d="M274.51,269.83c-2.16,0-3.47,1.92-3.47,5.49s1.3,5.55,3.47,5.55,3.45-2,3.45-5.55S276.66,269.83,274.51,269.83Zm0,9.94c-1.27,0-2.11-1.33-2.11-4.45s.84-4.39,2.11-4.39,2.1,1.27,2.1,4.39S275.76,279.77,274.51,279.77Z" transform="translate(-180.93 -157.77)" fill="#56a4fe"/><path d="M185.38,288.79h-1.06a6.5,6.5,0,0,1-2.28.78v.88h2v7.84h-2.47v1.13h6.09V298.3h-2.23Z" transform="translate(-180.93 -157.77)" fill="#56a4fe"/><path d="M219.25,288.59c-2.16,0-3.47,1.92-3.47,5.49s1.3,5.55,3.47,5.55,3.45-2,3.45-5.55S221.39,288.59,219.25,288.59Zm0,9.94c-1.27,0-2.11-1.33-2.11-4.45s.84-4.39,2.11-4.39,2.1,1.27,2.1,4.39S220.5,298.53,219.25,298.53Z" transform="translate(-180.93 -157.77)" fill="#56a4fe"/><path d="M238.88,288.79h-1.06a6.5,6.5,0,0,1-2.28.78v.88h2v7.84H235v1.13h6.09V298.3h-2.23Z" transform="translate(-180.93 -157.77)" fill="#56a4fe"/><path d="M202,288.59c-2.16,0-3.47,1.92-3.47,5.49s1.3,5.55,3.47,5.55,3.45-2,3.45-5.55S204.15,288.59,202,288.59Zm0,9.94c-1.27,0-2.11-1.33-2.11-4.45s.84-4.39,2.11-4.39,2.1,1.27,2.1,4.39S203.25,298.53,202,298.53Z" transform="translate(-180.93 -157.77)" fill="#56a4fe"/><path d="M256,288.59c-2.16,0-3.47,1.92-3.47,5.49s1.3,5.55,3.47,5.55,3.45-2,3.45-5.55S258.17,288.59,256,288.59Zm0,9.94c-1.27,0-2.11-1.33-2.11-4.45s.84-4.39,2.11-4.39,2.1,1.27,2.1,4.39S257.28,298.53,256,298.53Z" transform="translate(-180.93 -157.77)" fill="#56a4fe"/><path d="M275.49,288.79h-1.07a6.5,6.5,0,0,1-2.28.78v.88h2v7.84h-2.47v1.13h6.09V298.3h-2.23Z" transform="translate(-180.93 -157.77)" fill="#56a4fe"/><path d="M184.4,307.36c-2.16,0-3.47,1.92-3.47,5.49s1.3,5.55,3.47,5.55,3.45-2,3.45-5.55S186.55,307.36,184.4,307.36Zm0,9.94c-1.27,0-2.11-1.33-2.11-4.45s.84-4.39,2.11-4.39,2.1,1.27,2.1,4.39S185.65,317.3,184.4,317.3Z" transform="translate(-180.93 -157.77)" fill="#56a4fe"/><path d="M220.23,307.56h-1.07a6.5,6.5,0,0,1-2.28.78v.88h2v7.84h-2.47v1.13h6.09v-1.13h-2.23Z" transform="translate(-180.93 -157.77)" fill="#56a4fe"/><path d="M202,307.36c-2.16,0-3.47,1.92-3.47,5.49s1.3,5.55,3.47,5.55,3.45-2,3.45-5.55S204.15,307.36,202,307.36Zm0,9.94c-1.27,0-2.11-1.33-2.11-4.45s.84-4.39,2.11-4.39,2.1,1.27,2.1,4.39S203.25,317.3,202,317.3Z" transform="translate(-180.93 -157.77)" fill="#56a4fe"/><path d="M256,307.36c-2.16,0-3.47,1.92-3.47,5.49s1.3,5.55,3.47,5.55,3.45-2,3.45-5.55S258.17,307.36,256,307.36Zm0,9.94c-1.27,0-2.11-1.33-2.11-4.45s.84-4.39,2.11-4.39,2.1,1.27,2.1,4.39S257.28,317.3,256,317.3Z" transform="translate(-180.93 -157.77)" fill="#56a4fe"/><path d="M274.51,307.36c-2.16,0-3.47,1.92-3.47,5.49s1.3,5.55,3.47,5.55,3.45-2,3.45-5.55S276.66,307.36,274.51,307.36Zm0,9.94c-1.27,0-2.11-1.33-2.11-4.45s.84-4.39,2.11-4.39,2.1,1.27,2.1,4.39S275.76,317.3,274.51,317.3Z" transform="translate(-180.93 -157.77)" fill="#56a4fe"/><path d="M294.15,158.15h-1.07a6.49,6.49,0,0,1-2.28.78v.88h2v7.84h-2.5v1.13h6.09v-1.13h-2.23Z" transform="translate(-180.93 -157.77)" fill="#56a4fe"/><path d="M329,158.15h-1.07a6.49,6.49,0,0,1-2.28.78v.88h2v7.84h-2.47v1.13h6.09v-1.13H329Z" transform="translate(-180.93 -157.77)" fill="#56a4fe"/><path d="M347.65,158.15h-1.06a6.49,6.49,0,0,1-2.28.78v.88h2v7.84H343.8v1.13h6.09v-1.13h-2.23Z" transform="translate(-180.93 -157.77)" fill="#56a4fe"/><path d="M310.77,158c-2.16,0-3.47,1.92-3.47,5.49s1.3,5.55,3.47,5.55,3.45-2,3.45-5.55S312.92,158,310.77,158Zm0,9.94c-1.27,0-2.11-1.33-2.11-4.45s.84-4.39,2.11-4.39,2.1,1.27,2.1,4.39-.87,4.4-2.1,4.4Z" transform="translate(-180.93 -157.77)" fill="#56a4fe"/><path d="M364.8,158c-2.16,0-3.47,1.92-3.47,5.49s1.3,5.55,3.47,5.55,3.45-2,3.45-5.55S366.94,158,364.8,158Zm0,9.94c-1.27,0-2.11-1.33-2.11-4.45s.84-4.39,2.11-4.39,2.1,1.27,2.1,4.39-.9,4.4-2.1,4.4Z" transform="translate(-180.93 -157.77)" fill="#56a4fe"/><path d="M329,176.92h-1.07a6.48,6.48,0,0,1-2.28.78v.88h2v7.84h-2.47v1.13h6.09v-1.13H329Z" transform="translate(-180.93 -157.77)" fill="#56a4fe"/><path d="M346.67,176.72c-2.16,0-3.47,1.92-3.47,5.49s1.3,5.55,3.47,5.55,3.45-2,3.45-5.55S348.82,176.72,346.67,176.72Zm0,9.94c-1.27,0-2.11-1.33-2.11-4.45s.84-4.39,2.11-4.39,2.1,1.27,2.1,4.39S347.92,186.66,346.67,186.66Z" transform="translate(-180.93 -157.77)" fill="#56a4fe"/><path d="M365.78,176.92h-1.07a6.48,6.48,0,0,1-2.28.78v.88h2v7.84h-2.47v1.13H368v-1.13h-2.23Z" transform="translate(-180.93 -157.77)" fill="#56a4fe"/><path d="M383.28,176.72c-2.16,0-3.47,1.92-3.47,5.49s1.3,5.55,3.47,5.55,3.45-2,3.45-5.55S385.43,176.72,383.28,176.72Zm0,9.94c-1.27,0-2.11-1.33-2.11-4.45s.84-4.39,2.11-4.39,2.1,1.27,2.1,4.39S384.53,186.66,383.28,186.66Z" transform="translate(-180.93 -157.77)" fill="#56a4fe"/><path d="M328,195.49c-2.16,0-3.47,1.92-3.47,5.49s1.3,5.55,3.47,5.55,3.45-2,3.45-5.55S330.16,195.49,328,195.49Zm0,9.94c-1.27,0-2.11-1.33-2.11-4.45s.84-4.39,2.11-4.39,2.1,1.27,2.1,4.39-.83,4.45-2.1,4.45Z" transform="translate(-180.93 -157.77)" fill="#56a4fe"/><path d="M347.65,195.69h-1.06a6.49,6.49,0,0,1-2.28.78v.88h2v7.84H343.8v1.13h6.09v-1.13h-2.23Z" transform="translate(-180.93 -157.77)" fill="#56a4fe"/><path d="M364.8,195.49c-2.16,0-3.47,1.92-3.47,5.49s1.3,5.55,3.47,5.55,3.45-2,3.45-5.55S366.94,195.49,364.8,195.49Zm0,9.94c-1.27,0-2.11-1.33-2.11-4.45s.84-4.39,2.11-4.39,2.1,1.27,2.1,4.39-.9,4.45-2.1,4.45Z" transform="translate(-180.93 -157.77)" fill="#56a4fe"/><path d="M384.26,195.69H383.2a6.48,6.48,0,0,1-2.28.78v.88h2v7.84h-2.47v1.13h6.09v-1.13h-2.23Z" transform="translate(-180.93 -157.77)" fill="#56a4fe"/><path d="M293.17,214.25c-2.16,0-3.47,1.92-3.47,5.49s1.3,5.55,3.47,5.55,3.45-2,3.45-5.55S295.32,214.25,293.17,214.25Zm0,9.94c-1.27,0-2.11-1.33-2.11-4.45s.84-4.39,2.11-4.39,2.1,1.27,2.1,4.39S294.42,224.19,293.17,224.19Z" transform="translate(-180.93 -157.77)" fill="#56a4fe"/><path d="M329,214.46h-1.07a6.49,6.49,0,0,1-2.28.78v.88h2V224h-2.47v1.13h6.09V224H329Z" transform="translate(-180.93 -157.77)" fill="#56a4fe"/><path d="M347.65,214.46h-1.06a6.49,6.49,0,0,1-2.28.78v.88h2V224H343.8v1.13h6.09V224h-2.23Z" transform="translate(-180.93 -157.77)" fill="#56a4fe"/><path d="M310.77,214.25c-2.16,0-3.47,1.92-3.47,5.49s1.3,5.55,3.47,5.55,3.45-2,3.45-5.55S312.92,214.25,310.77,214.25Zm0,9.94c-1.27,0-2.11-1.33-2.11-4.45s.84-4.39,2.11-4.39,2.1,1.27,2.1,4.39S312,224.19,310.77,224.19Z" transform="translate(-180.93 -157.77)" fill="#56a4fe"/><path d="M383.28,214.25c-2.16,0-3.47,1.92-3.47,5.49s1.3,5.55,3.47,5.55,3.45-2,3.45-5.55S385.43,214.25,383.28,214.25Zm0,9.94c-1.27,0-2.11-1.33-2.11-4.45s.84-4.39,2.11-4.39,2.1,1.27,2.1,4.39S384.53,224.19,383.28,224.19Z" transform="translate(-180.93 -157.77)" fill="#56a4fe"/><path d="M294.15,251.26h-1.07a6.49,6.49,0,0,1-2.28.78v.88h2v7.84h-2.5v1.13h6.09v-1.13h-2.23Z" transform="translate(-180.93 -157.77)" fill="#56a4fe"/><path d="M329,251.26h-1.07a6.49,6.49,0,0,1-2.28.78v.88h2v7.84h-2.47v1.13h6.09v-1.13H329Z" transform="translate(-180.93 -157.77)" fill="#56a4fe"/><path d="M347.65,251.26h-1.06a6.49,6.49,0,0,1-2.28.78v.88h2v7.84H343.8v1.13h6.09v-1.13h-2.23Z" transform="translate(-180.93 -157.77)" fill="#56a4fe"/><path d="M310.77,251.06c-2.16,0-3.47,1.92-3.47,5.49s1.3,5.55,3.47,5.55,3.45-2,3.45-5.55S312.92,251.06,310.77,251.06Zm0,9.94c-1.27,0-2.11-1.33-2.11-4.45s.84-4.39,2.11-4.39,2.1,1.27,2.1,4.39S312,261,310.77,261Z" transform="translate(-180.93 -157.77)" fill="#56a4fe"/><path d="M364.8,251.06c-2.16,0-3.47,1.92-3.47,5.49s1.3,5.55,3.47,5.55,3.45-2,3.45-5.55S366.94,251.06,364.8,251.06Zm0,9.94c-1.27,0-2.11-1.33-2.11-4.45s.84-4.39,2.11-4.39,2.1,1.27,2.1,4.39S366,261,364.8,261Z" transform="translate(-180.93 -157.77)" fill="#56a4fe"/><path d="M384.26,251.26H383.2a6.49,6.49,0,0,1-2.28.78v.88h2v7.84h-2.47v1.13h6.09v-1.13h-2.23Z" transform="translate(-180.93 -157.77)" fill="#56a4fe"/><path d="M293.17,269.83c-2.16,0-3.47,1.92-3.47,5.49s1.3,5.55,3.47,5.55,3.45-2,3.45-5.55S295.32,269.83,293.17,269.83Zm0,9.94c-1.27,0-2.11-1.33-2.11-4.45s.84-4.39,2.11-4.39,2.1,1.27,2.1,4.39S294.42,279.77,293.17,279.77Z" transform="translate(-180.93 -157.77)" fill="#56a4fe"/><path d="M329,270h-1.07a6.5,6.5,0,0,1-2.28.78v.89h2v7.84h-2.47v1.13h6.09v-1.13H329Z" transform="translate(-180.93 -157.77)" fill="#56a4fe"/><path d="M346.67,269.83c-2.16,0-3.47,1.92-3.47,5.49s1.3,5.55,3.47,5.55,3.45-2,3.45-5.55S348.82,269.83,346.67,269.83Zm0,9.94c-1.27,0-2.11-1.33-2.11-4.45s.84-4.39,2.11-4.39,2.1,1.27,2.1,4.39S347.92,279.77,346.67,279.77Z" transform="translate(-180.93 -157.77)" fill="#56a4fe"/><path d="M310.77,269.83c-2.16,0-3.47,1.92-3.47,5.49s1.3,5.55,3.47,5.55,3.45-2,3.45-5.55S312.92,269.83,310.77,269.83Zm0,9.94c-1.27,0-2.11-1.33-2.11-4.45s.84-4.39,2.11-4.39,2.1,1.27,2.1,4.39S312,279.77,310.77,279.77Z" transform="translate(-180.93 -157.77)" fill="#56a4fe"/><path d="M365.78,270h-1.07a6.5,6.5,0,0,1-2.28.78v.89h2v7.84h-2.47v1.13H368v-1.13h-2.23Z" transform="translate(-180.93 -157.77)" fill="#56a4fe"/><path d="M328,288.59c-2.16,0-3.47,1.92-3.47,5.49s1.3,5.55,3.47,5.55,3.45-2,3.45-5.55S330.16,288.59,328,288.59Zm0,9.94c-1.27,0-2.11-1.33-2.11-4.45s.84-4.39,2.11-4.39,2.1,1.27,2.1,4.39S329.27,298.53,328,298.53Z" transform="translate(-180.93 -157.77)" fill="#56a4fe"/><path d="M347.65,288.79h-1.06a6.5,6.5,0,0,1-2.28.78v.88h2v7.84H343.8v1.13h6.09V298.3h-2.23Z" transform="translate(-180.93 -157.77)" fill="#56a4fe"/><path d="M364.8,288.59c-2.16,0-3.47,1.92-3.47,5.49s1.3,5.55,3.47,5.55,3.45-2,3.45-5.55S366.94,288.59,364.8,288.59Zm0,9.94c-1.27,0-2.11-1.33-2.11-4.45s.84-4.39,2.11-4.39,2.1,1.27,2.1,4.39S366,298.53,364.8,298.53Z" transform="translate(-180.93 -157.77)" fill="#56a4fe"/><path d="M384.26,288.79H383.2a6.5,6.5,0,0,1-2.28.78v.88h2v7.84h-2.47v1.13h6.09V298.3h-2.23Z" transform="translate(-180.93 -157.77)" fill="#56a4fe"/><path d="M293.17,307.36c-2.16,0-3.47,1.92-3.47,5.49s1.3,5.55,3.47,5.55,3.45-2,3.45-5.55S295.32,307.36,293.17,307.36Zm0,9.94c-1.27,0-2.11-1.33-2.11-4.45s.84-4.39,2.11-4.39,2.1,1.27,2.1,4.39S294.42,317.3,293.17,317.3Z" transform="translate(-180.93 -157.77)" fill="#56a4fe"/><path d="M329,307.56h-1.07a6.5,6.5,0,0,1-2.28.78v.88h2v7.84h-2.47v1.13h6.09v-1.13H329Z" transform="translate(-180.93 -157.77)" fill="#56a4fe"/><path d="M347.65,307.56h-1.06a6.51,6.51,0,0,1-2.28.78v.88h2v7.84H343.8v1.13h6.09v-1.13h-2.23Z" transform="translate(-180.93 -157.77)" fill="#56a4fe"/><path d="M310.77,307.36c-2.16,0-3.47,1.92-3.47,5.49s1.3,5.55,3.47,5.55,3.45-2,3.45-5.55S312.92,307.36,310.77,307.36Zm0,9.94c-1.27,0-2.11-1.33-2.11-4.45s.84-4.39,2.11-4.39,2.1,1.27,2.1,4.39S312,317.3,310.77,317.3Z" transform="translate(-180.93 -157.77)" fill="#56a4fe"/><path d="M364.8,307.36c-2.16,0-3.47,1.92-3.47,5.49s1.3,5.55,3.47,5.55,3.45-2,3.45-5.55S366.94,307.36,364.8,307.36Zm0,9.94c-1.27,0-2.11-1.33-2.11-4.45s.84-4.39,2.11-4.39,2.1,1.27,2.1,4.39S366,317.3,364.8,317.3Z" transform="translate(-180.93 -157.77)" fill="#56a4fe"/><path d="M383.28,307.36c-2.16,0-3.47,1.92-3.47,5.49s1.3,5.55,3.47,5.55,3.45-2,3.45-5.55S385.43,307.36,383.28,307.36Zm0,9.94c-1.27,0-2.11-1.33-2.11-4.45s.84-4.39,2.11-4.39,2.1,1.27,2.1,4.39S384.53,317.3,383.28,317.3Z" transform="translate(-180.93 -157.77)" fill="#56a4fe"/><path d="M402.92,158.06h-1.07a6.49,6.49,0,0,1-2.28.78v.88h2v7.84H399.1v1.13h6.09v-1.13h-2.23Z" transform="translate(-180.93 -157.77)" fill="#56a4fe"/><path d="M437.77,158.06h-1.06a6.491,6.491,0,0,1-2.28.78v.88h2v7.84h-2.47v1.13H440v-1.13h-2.23Z" transform="translate(-180.93 -157.77)" fill="#56a4fe"/><path d="M419.54,157.86c-2.16,0-3.47,1.92-3.47,5.49s1.3,5.55,3.47,5.55,3.45-2,3.45-5.55S421.69,157.86,419.54,157.86Zm0,9.94c-1.27,0-2.11-1.33-2.11-4.45s.84-4.39,2.11-4.39,2.1,1.27,2.1,4.39S420.8,167.8,419.54,167.8Z" transform="translate(-180.93 -157.77)" fill="#56a4fe"/><path d="M401.94,176.63c-2.16,0-3.47,1.92-3.47,5.49s1.3,5.55,3.47,5.55,3.45-2,3.45-5.55S404.09,176.63,401.94,176.63Zm0,9.94c-1.27,0-2.11-1.33-2.11-4.45s.84-4.39,2.11-4.39,2.1,1.27,2.1,4.39S403.19,186.57,401.94,186.57Z" transform="translate(-180.93 -157.77)" fill="#56a4fe"/><path d="M437.77,176.83h-1.06a6.491,6.491,0,0,1-2.28.78v.88h2v7.84h-2.47v1.13H440v-1.13h-2.23Z" transform="translate(-180.93 -157.77)" fill="#56a4fe"/><path d="M455.44,176.63c-2.16,0-3.47,1.92-3.47,5.49s1.3,5.55,3.47,5.55,3.45-2,3.45-5.55S457.59,176.63,455.44,176.63Zm0,9.94c-1.27,0-2.11-1.33-2.11-4.45s.84-4.39,2.11-4.39,2.1,1.27,2.1,4.39S456.69,186.57,455.44,186.57Z" transform="translate(-180.93 -157.77)" fill="#56a4fe"/><path d="M419.54,176.63c-2.16,0-3.47,1.92-3.47,5.49s1.3,5.55,3.47,5.55,3.45-2,3.45-5.55S421.69,176.63,419.54,176.63Zm0,9.94c-1.27,0-2.11-1.33-2.11-4.45s.84-4.39,2.11-4.39,2.1,1.27,2.1,4.39S420.8,186.57,419.54,186.57Z" transform="translate(-180.93 -157.77)" fill="#56a4fe"/><path d="M474.55,176.83h-1.07a6.49,6.49,0,0,1-2.28.78v.88h2v7.84h-2.5v1.13h6.09v-1.13h-2.23Z" transform="translate(-180.93 -157.77)" fill="#56a4fe"/><path d="M492.05,176.63c-2.16,0-3.47,1.92-3.47,5.49s1.3,5.55,3.47,5.55,3.45-2,3.45-5.55S494.2,176.63,492.05,176.63Zm0,9.94c-1.27,0-2.11-1.33-2.11-4.45s.84-4.39,2.11-4.39,2.1,1.27,2.1,4.39S493.3,186.57,492.05,186.57Z" transform="translate(-180.93 -157.77)" fill="#56a4fe"/><path d="M402.92,195.6h-1.07a6.49,6.49,0,0,1-2.28.78v.88h2v7.84H399.1v1.13h6.09V205.1h-2.23Z" transform="translate(-180.93 -157.77)" fill="#56a4fe"/><path d="M436.79,195.4c-2.16,0-3.47,1.92-3.47,5.49s1.3,5.55,3.47,5.55,3.45-2,3.45-5.55S438.94,195.4,436.79,195.4Zm0,9.94c-1.27,0-2.11-1.33-2.11-4.45s.84-4.39,2.11-4.39,2.1,1.27,2.1,4.39S438,205.34,436.79,205.34Z" transform="translate(-180.93 -157.77)" fill="#56a4fe"/><path d="M456.42,195.6h-1.07a6.491,6.491,0,0,1-2.28.78v.88h2v7.84H452.6v1.13h6.09V205.1h-2.23Z" transform="translate(-180.93 -157.77)" fill="#56a4fe"/><path d="M419.54,195.4c-2.16,0-3.47,1.92-3.47,5.49s1.3,5.55,3.47,5.55,3.45-2,3.45-5.55S421.69,195.4,419.54,195.4Zm0,9.94c-1.27,0-2.11-1.33-2.11-4.45s.84-4.39,2.11-4.39,2.1,1.27,2.1,4.39S420.8,205.34,419.54,205.34Z" transform="translate(-180.93 -157.77)" fill="#56a4fe"/><path d="M473.57,195.4c-2.16,0-3.47,1.92-3.47,5.49s1.3,5.55,3.47,5.55,3.45-2,3.45-5.55S475.72,195.4,473.57,195.4Zm0,9.94c-1.27,0-2.11-1.33-2.11-4.45s.84-4.39,2.11-4.39,2.1,1.27,2.1,4.39S474.82,205.34,473.57,205.34Z" transform="translate(-180.93 -157.77)" fill="#56a4fe"/><path d="M493,195.6h-1a6.49,6.49,0,0,1-2.28.78v.88h2v7.84h-2.47v1.13h6.09V205.1H493Z" transform="translate(-180.93 -157.77)" fill="#56a4fe"/><path d="M401.94,214.16c-2.16,0-3.47,1.92-3.47,5.49s1.3,5.55,3.47,5.55,3.45-2,3.45-5.55S404.09,214.16,401.94,214.16Zm0,9.94c-1.27,0-2.11-1.33-2.11-4.45s.84-4.39,2.11-4.39,2.1,1.27,2.1,4.39S403.19,224.1,401.94,224.1Z" transform="translate(-180.93 -157.77)" fill="#56a4fe"/><path d="M437.77,214.36h-1.06a6.491,6.491,0,0,1-2.28.78V216h2v7.84h-2.47V225H440v-1.13h-2.23Z" transform="translate(-180.93 -157.77)" fill="#56a4fe"/><path d="M456.42,214.36h-1.07a6.49,6.49,0,0,1-2.28.78V216h2v7.84H452.6V225h6.09v-1.13h-2.23Z" transform="translate(-180.93 -157.77)" fill="#56a4fe"/><path d="M419.54,214.16c-2.16,0-3.47,1.92-3.47,5.49s1.3,5.55,3.47,5.55,3.45-2,3.45-5.55S421.69,214.16,419.54,214.16Zm0,9.94c-1.27,0-2.11-1.33-2.11-4.45s.84-4.39,2.11-4.39,2.1,1.27,2.1,4.39S420.8,224.1,419.54,224.1Z" transform="translate(-180.93 -157.77)" fill="#56a4fe"/><path d="M473.57,214.16c-2.16,0-3.47,1.92-3.47,5.49s1.3,5.55,3.47,5.55,3.45-2,3.45-5.55S475.72,214.16,473.57,214.16Zm0,9.94c-1.27,0-2.11-1.33-2.11-4.45s.84-4.39,2.11-4.39,2.1,1.27,2.1,4.39S474.82,224.1,473.57,224.1Z" transform="translate(-180.93 -157.77)" fill="#56a4fe"/><path d="M492.05,214.16c-2.16,0-3.47,1.92-3.47,5.49s1.3,5.55,3.47,5.55,3.45-2,3.45-5.55S494.2,214.16,492.05,214.16Zm0,9.94c-1.27,0-2.11-1.33-2.11-4.45s.84-4.39,2.11-4.39,2.1,1.27,2.1,4.39S493.3,224.1,492.05,224.1Z" transform="translate(-180.93 -157.77)" fill="#56a4fe"/><path d="M402.92,251.17h-1.07a6.48,6.48,0,0,1-2.28.78v.88h2v7.84H399.1v1.13h6.09v-1.13h-2.23Z" transform="translate(-180.93 -157.77)" fill="#56a4fe"/><path d="M437.77,251.17h-1.06a6.491,6.491,0,0,1-2.28.78v.88h2v7.84h-2.47v1.13H440v-1.13h-2.23Z" transform="translate(-180.93 -157.77)" fill="#56a4fe"/><path d="M456.42,251.17h-1.07a6.479,6.479,0,0,1-2.28.78v.88h2v7.84H452.6v1.13h6.09v-1.13h-2.23Z" transform="translate(-180.93 -157.77)" fill="#56a4fe"/><path d="M419.54,251c-2.16,0-3.47,1.92-3.47,5.49s1.3,5.55,3.47,5.55,3.45-2,3.45-5.55S421.69,251,419.54,251Zm0,9.94c-1.27,0-2.11-1.33-2.11-4.45s.84-4.39,2.11-4.39,2.1,1.27,2.1,4.39-.84,4.42-2.1,4.42Z" transform="translate(-180.93 -157.77)" fill="#56a4fe"/><path d="M473.57,251c-2.16,0-3.47,1.92-3.47,5.49s1.3,5.55,3.47,5.55,3.45-2,3.45-5.55S475.72,251,473.57,251Zm0,9.94c-1.27,0-2.11-1.33-2.11-4.45s.84-4.39,2.11-4.39,2.1,1.27,2.1,4.39-.85,4.42-2.1,4.42Z" transform="translate(-180.93 -157.77)" fill="#56a4fe"/><path d="M493,251.17h-1a6.49,6.49,0,0,1-2.28.78v.88h2v7.84h-2.47v1.13h6.09v-1.13H493Z" transform="translate(-180.93 -157.77)" fill="#56a4fe"/><path d="M401.94,269.73c-2.16,0-3.47,1.92-3.47,5.49s1.3,5.55,3.47,5.55,3.45-2,3.45-5.55S404.09,269.73,401.94,269.73Zm0,9.94c-1.27,0-2.11-1.33-2.11-4.45s.84-4.39,2.11-4.39,2.1,1.27,2.1,4.39-.85,4.46-2.1,4.46Z" transform="translate(-180.93 -157.77)" fill="#56a4fe"/><path d="M455.44,269.73c-2.16,0-3.47,1.92-3.47,5.49s1.3,5.55,3.47,5.55,3.45-2,3.45-5.55S457.59,269.73,455.44,269.73Zm0,9.94c-1.27,0-2.11-1.33-2.11-4.45s.84-4.39,2.11-4.39,2.1,1.27,2.1,4.39-.85,4.46-2.1,4.46Z" transform="translate(-180.93 -157.77)" fill="#56a4fe"/><path d="M474.55,269.94h-1.07a6.5,6.5,0,0,1-2.28.78v.89h2v7.84h-2.5v1.13h6.09v-1.13h-2.23Z" transform="translate(-180.93 -157.77)" fill="#56a4fe"/><path d="M492.05,269.73c-2.16,0-3.47,1.92-3.47,5.49s1.3,5.55,3.47,5.55,3.45-2,3.45-5.55S494.2,269.73,492.05,269.73Zm0,9.94c-1.27,0-2.11-1.33-2.11-4.45s.84-4.39,2.11-4.39,2.1,1.27,2.1,4.39-.85,4.46-2.1,4.46Z" transform="translate(-180.93 -157.77)" fill="#56a4fe"/><path d="M473.57,288.5c-2.16,0-3.47,1.92-3.47,5.49s1.3,5.55,3.47,5.55,3.45-2,3.45-5.55S475.72,288.5,473.57,288.5Zm0,9.94c-1.27,0-2.11-1.33-2.11-4.45s.84-4.39,2.11-4.39,2.1,1.27,2.1,4.39S474.82,298.44,473.57,298.44Z" transform="translate(-180.93 -157.77)" fill="#56a4fe"/><path d="M493,288.7h-1a6.51,6.51,0,0,1-2.28.78v.88h2v7.84h-2.47v1.13h6.09V298.2H493Z" transform="translate(-180.93 -157.77)" fill="#56a4fe"/><path d="M473.57,307.27c-2.16,0-3.47,1.92-3.47,5.49s1.3,5.55,3.47,5.55,3.45-2,3.45-5.55S475.72,307.27,473.57,307.27Zm0,9.94c-1.27,0-2.11-1.33-2.11-4.45s.84-4.39,2.11-4.39,2.1,1.27,2.1,4.39S474.82,317.21,473.57,317.21Z" transform="translate(-180.93 -157.77)" fill="#56a4fe"/><path d="M492.05,307.27c-2.16,0-3.47,1.92-3.47,5.49s1.3,5.55,3.47,5.55,3.45-2,3.45-5.55S494.2,307.27,492.05,307.27Zm0,9.94c-1.27,0-2.11-1.33-2.11-4.45s.84-4.39,2.11-4.39,2.1,1.27,2.1,4.39S493.3,317.21,492.05,317.21Z" transform="translate(-180.93 -157.77)" fill="#56a4fe"/><path d="M546.54,158h-1.06a6.48,6.48,0,0,1-2.28.78v.88h2v7.84h-2.47v1.13h6.09V167.5h-2.23Z" transform="translate(-180.93 -157.77)" fill="#56a4fe"/><path d="M565.2,158h-1.06a6.491,6.491,0,0,1-2.28.78v.88h2v7.84h-2.47v1.13h6.09V167.5H565.2Z" transform="translate(-180.93 -157.77)" fill="#56a4fe"/><path d="M528.31,157.77c-2.16,0-3.47,1.92-3.47,5.49s1.3,5.55,3.47,5.55,3.45-2,3.45-5.55S530.46,157.77,528.31,157.77Zm0,9.94c-1.27,0-2.11-1.33-2.11-4.45s.84-4.39,2.11-4.39,2.1,1.27,2.1,4.39S529.57,167.71,528.31,167.71Z" transform="translate(-180.93 -157.77)" fill="#56a4fe"/><path d="M582.34,157.77c-2.16,0-3.47,1.92-3.47,5.49s1.3,5.55,3.47,5.55,3.45-2,3.45-5.55S584.49,157.77,582.34,157.77Zm0,9.94c-1.27,0-2.11-1.33-2.11-4.45s.84-4.39,2.11-4.39,2.1,1.27,2.1,4.39S583.59,167.71,582.34,167.71Z" transform="translate(-180.93 -157.77)" fill="#56a4fe"/><path d="M601.81,158h-1.07a6.49,6.49,0,0,1-2.28.78v.88h2v7.84H598v1.13h6V167.5h-2.23Z" transform="translate(-180.93 -157.77)" fill="#56a4fe"/><path d="M510.72,176.54c-2.16,0-3.47,1.92-3.47,5.49s1.3,5.55,3.47,5.55,3.45-2,3.45-5.55S512.86,176.54,510.72,176.54Zm0,9.94c-1.27,0-2.11-1.33-2.11-4.45s.84-4.39,2.11-4.39,2.1,1.27,2.1,4.39S512,186.48,510.72,186.48Z" transform="translate(-180.93 -157.77)" fill="#56a4fe"/><path d="M546.54,176.74h-1.06a6.48,6.48,0,0,1-2.28.78v.88h2v7.84h-2.47v1.13h6.09v-1.13h-2.23Z" transform="translate(-180.93 -157.77)" fill="#56a4fe"/><path d="M564.22,176.54c-2.16,0-3.47,1.92-3.47,5.49s1.3,5.55,3.47,5.55,3.45-2,3.45-5.55S566.37,176.54,564.22,176.54Zm0,9.94c-1.27,0-2.11-1.33-2.11-4.45s.84-4.39,2.11-4.39,2.1,1.27,2.1,4.39S565.47,186.48,564.22,186.48Z" transform="translate(-180.93 -157.77)" fill="#56a4fe"/><path d="M528.31,176.54c-2.16,0-3.47,1.92-3.47,5.49s1.3,5.55,3.47,5.55,3.45-2,3.45-5.55S530.46,176.54,528.31,176.54Zm0,9.94c-1.27,0-2.11-1.33-2.11-4.45s.84-4.39,2.11-4.39,2.1,1.27,2.1,4.39S529.57,186.48,528.31,186.48Z" transform="translate(-180.93 -157.77)" fill="#56a4fe"/><path d="M583.32,176.74h-1.06a6.491,6.491,0,0,1-2.28.78v.88h2v7.84h-2.47v1.13h6.09v-1.13h-2.23Z" transform="translate(-180.93 -157.77)" fill="#56a4fe"/><path d="M600.83,176.54c-2.16,0-3.47,1.92-3.47,5.49s1.3,5.55,3.47,5.55,3.45-2,3.45-5.55S603,176.54,600.83,176.54Zm0,9.94c-1.27,0-2.11-1.33-2.11-4.45s.84-4.39,2.11-4.39,2.1,1.27,2.1,4.39S602.08,186.48,600.83,186.48Z" transform="translate(-180.93 -157.77)" fill="#56a4fe"/><path d="M511.7,195.51h-1.06a6.49,6.49,0,0,1-2.28.78v.88h2V205h-2.47v1.13h6.09V205H511.7Z" transform="translate(-180.93 -157.77)" fill="#56a4fe"/><path d="M545.56,195.31c-2.16,0-3.47,1.92-3.47,5.49s1.3,5.55,3.47,5.55,3.45-2,3.45-5.55S547.71,195.31,545.56,195.31Zm0,9.94c-1.27,0-2.11-1.33-2.11-4.45s.84-4.39,2.11-4.39,2.1,1.27,2.1,4.39S546.81,205.25,545.56,205.25Z" transform="translate(-180.93 -157.77)" fill="#56a4fe"/><path d="M565.2,195.51h-1.06a6.491,6.491,0,0,1-2.28.78v.88h2V205h-2.47v1.13h6.09V205H565.2Z" transform="translate(-180.93 -157.77)" fill="#56a4fe"/><path d="M528.31,195.31c-2.16,0-3.47,1.92-3.47,5.49s1.3,5.55,3.47,5.55,3.45-2,3.45-5.55S530.46,195.31,528.31,195.31Zm0,9.94c-1.27,0-2.11-1.33-2.11-4.45s.84-4.39,2.11-4.39,2.1,1.27,2.1,4.39S529.57,205.25,528.31,205.25Z" transform="translate(-180.93 -157.77)" fill="#56a4fe"/><path d="M582.34,195.31c-2.16,0-3.47,1.92-3.47,5.49s1.3,5.55,3.47,5.55,3.45-2,3.45-5.55S584.49,195.31,582.34,195.31Zm0,9.94c-1.27,0-2.11-1.33-2.11-4.45s.84-4.39,2.11-4.39,2.1,1.27,2.1,4.39S583.59,205.25,582.34,205.25Z" transform="translate(-180.93 -157.77)" fill="#56a4fe"/><path d="M601.81,195.51h-1.07a6.489,6.489,0,0,1-2.28.78v.88h2V205H598v1.13h6V205h-2.23Z" transform="translate(-180.93 -157.77)" fill="#56a4fe"/><path d="M510.72,214.07c-2.16,0-3.47,1.92-3.47,5.49s1.3,5.55,3.47,5.55,3.45-2,3.45-5.55S512.86,214.07,510.72,214.07Zm0,9.94c-1.27,0-2.11-1.33-2.11-4.45s.84-4.39,2.11-4.39,2.1,1.27,2.1,4.39S512,224,510.72,224Z" transform="translate(-180.93 -157.77)" fill="#56a4fe"/><path d="M546.54,214.27h-1.06a6.48,6.48,0,0,1-2.28.78v.88h2v7.84h-2.47v1.13h6.09v-1.13h-2.23Z" transform="translate(-180.93 -157.77)" fill="#56a4fe"/><path d="M565.2,214.27h-1.06a6.491,6.491,0,0,1-2.28.78v.88h2v7.84h-2.47v1.13h6.09v-1.13H565.2Z" transform="translate(-180.93 -157.77)" fill="#56a4fe"/><path d="M528.31,214.07c-2.16,0-3.47,1.92-3.47,5.49s1.3,5.55,3.47,5.55,3.45-2,3.45-5.55S530.46,214.07,528.31,214.07Zm0,9.94c-1.27,0-2.11-1.33-2.11-4.45s.84-4.39,2.11-4.39,2.1,1.27,2.1,4.39-.84,4.44-2.1,4.44Z" transform="translate(-180.93 -157.77)" fill="#56a4fe"/><path d="M582.34,214.07c-2.16,0-3.47,1.92-3.47,5.49s1.3,5.55,3.47,5.55,3.45-2,3.45-5.55S584.49,214.07,582.34,214.07Zm0,9.94c-1.27,0-2.11-1.33-2.11-4.45s.84-4.39,2.11-4.39,2.1,1.27,2.1,4.39-.85,4.44-2.1,4.44Z" transform="translate(-180.93 -157.77)" fill="#56a4fe"/><path d="M600.83,214.07c-2.16,0-3.47,1.92-3.47,5.49s1.3,5.55,3.47,5.55,3.45-2,3.45-5.55S603,214.07,600.83,214.07Zm0,9.94c-1.27,0-2.11-1.33-2.11-4.45s.84-4.39,2.11-4.39,2.1,1.27,2.1,4.39-.85,4.44-2.1,4.44Z" transform="translate(-180.93 -157.77)" fill="#56a4fe"/><path d="M511.7,233h-1.06a6.48,6.48,0,0,1-2.28.78v.88h2v7.84h-2.47v1.13h6.09V242.5H511.7Z" transform="translate(-180.93 -157.77)" fill="#56a4fe"/><path d="M546.54,233h-1.06a6.48,6.48,0,0,1-2.28.78v.88h2v7.84h-2.47v1.13h6.09V242.5h-2.23Z" transform="translate(-180.93 -157.77)" fill="#56a4fe"/><path d="M564.22,232.84c-2.16,0-3.47,1.92-3.47,5.49s1.3,5.55,3.47,5.55,3.45-2,3.45-5.55S566.37,232.84,564.22,232.84Zm0,9.94c-1.27,0-2.11-1.33-2.11-4.45s.84-4.39,2.11-4.39,2.1,1.27,2.1,4.39S565.47,242.78,564.22,242.78Z" transform="translate(-180.93 -157.77)" fill="#56a4fe"/><path d="M528.31,232.84c-2.16,0-3.47,1.92-3.47,5.49s1.3,5.55,3.47,5.55,3.45-2,3.45-5.55S530.46,232.84,528.31,232.84Zm0,9.94c-1.27,0-2.11-1.33-2.11-4.45s.84-4.39,2.11-4.39,2.1,1.27,2.1,4.39S529.57,242.78,528.31,242.78Z" transform="translate(-180.93 -157.77)" fill="#56a4fe"/><path d="M582.34,232.84c-2.16,0-3.47,1.92-3.47,5.49s1.3,5.55,3.47,5.55,3.45-2,3.45-5.55S584.49,232.84,582.34,232.84Zm0,9.94c-1.27,0-2.11-1.33-2.11-4.45s.84-4.39,2.11-4.39,2.1,1.27,2.1,4.39S583.59,242.78,582.34,242.78Z" transform="translate(-180.93 -157.77)" fill="#56a4fe"/><path d="M601.81,233h-1.07a6.49,6.49,0,0,1-2.28.78v.88h2v7.84H598v1.13h6V242.5h-2.23Z" transform="translate(-180.93 -157.77)" fill="#56a4fe"/><path d="M511.7,251.08h-1.06a6.49,6.49,0,0,1-2.28.78v.88h2v7.84h-2.47v1.13h6.09v-1.13H511.7Z" transform="translate(-180.93 -157.77)" fill="#56a4fe"/><path d="M546.54,251.08h-1.06a6.491,6.491,0,0,1-2.28.78v.88h2v7.84h-2.47v1.13h6.09v-1.13h-2.23Z" transform="translate(-180.93 -157.77)" fill="#56a4fe"/><path d="M565.2,251.08h-1.06a6.491,6.491,0,0,1-2.28.78v.88h2v7.84h-2.47v1.13h6.09v-1.13H565.2Z" transform="translate(-180.93 -157.77)" fill="#56a4fe"/><path d="M528.31,250.88c-2.16,0-3.47,1.92-3.47,5.49s1.3,5.55,3.47,5.55,3.45-2,3.45-5.55S530.46,250.88,528.31,250.88Zm0,9.94c-1.27,0-2.11-1.33-2.11-4.45s.8-4.37,2.11-4.37,2.1,1.27,2.1,4.39S529.57,260.82,528.31,260.82Z" transform="translate(-180.93 -157.77)" fill="#56a4fe"/><path d="M582.34,250.88c-2.16,0-3.47,1.92-3.47,5.49s1.3,5.55,3.47,5.55,3.45-2,3.45-5.55S584.49,250.88,582.34,250.88Zm0,9.94c-1.27,0-2.11-1.33-2.11-4.45s.84-4.39,2.11-4.39,2.1,1.27,2.1,4.39S583.59,260.82,582.34,260.82Z" transform="translate(-180.93 -157.77)" fill="#56a4fe"/><path d="M601.81,251.08h-1.07a6.49,6.49,0,0,1-2.28.78v.88h2v7.84H598v1.13h6v-1.13h-2.23Z" transform="translate(-180.93 -157.77)" fill="#56a4fe"/><path d="M510.72,269.65c-2.16,0-3.47,1.92-3.47,5.49s1.3,5.55,3.47,5.55,3.45-2,3.45-5.55S512.86,269.65,510.72,269.65Zm0,9.94c-1.27,0-2.11-1.33-2.11-4.45s.84-4.39,2.11-4.39,2.1,1.27,2.1,4.39S512,279.59,510.72,279.59Z" transform="translate(-180.93 -157.77)" fill="#56a4fe"/><path d="M546.54,269.85h-1.06a6.509,6.509,0,0,1-2.28.78v.89h2v7.84h-2.47v1.13h6.09v-1.13h-2.23Z" transform="translate(-180.93 -157.77)" fill="#56a4fe"/><path d="M564.22,269.65c-2.16,0-3.47,1.92-3.47,5.49s1.3,5.55,3.47,5.55,3.45-2,3.45-5.55S566.37,269.65,564.22,269.65Zm0,9.94c-1.27,0-2.11-1.33-2.11-4.45s.84-4.39,2.11-4.39,2.1,1.27,2.1,4.39S565.47,279.59,564.22,279.59Z" transform="translate(-180.93 -157.77)" fill="#56a4fe"/><path d="M528.31,269.65c-2.16,0-3.47,1.92-3.47,5.49s1.3,5.55,3.47,5.55,3.45-2,3.45-5.55S530.46,269.65,528.31,269.65Zm0,9.94c-1.27,0-2.11-1.33-2.11-4.45s.84-4.39,2.11-4.39,2.1,1.27,2.1,4.39S529.57,279.59,528.31,279.59Z" transform="translate(-180.93 -157.77)" fill="#56a4fe"/><path d="M583.32,269.85h-1.06a6.509,6.509,0,0,1-2.28.78v.89h2v7.84h-2.47v1.13h6.09v-1.13h-2.23Z" transform="translate(-180.93 -157.77)" fill="#56a4fe"/><path d="M600.83,269.65c-2.16,0-3.47,1.92-3.47,5.49s1.3,5.55,3.47,5.55,3.45-2,3.45-5.55S603,269.65,600.83,269.65Zm0,9.94c-1.27,0-2.11-1.33-2.11-4.45s.84-4.39,2.11-4.39,2.1,1.27,2.1,4.39S602.08,279.59,600.83,279.59Z" transform="translate(-180.93 -157.77)" fill="#56a4fe"/><path d="M511.7,288.61h-1.06a6.5,6.5,0,0,1-2.28.78v.88h2v7.84h-2.47v1.13h6.09v-1.13H511.7Z" transform="translate(-180.93 -157.77)" fill="#56a4fe"/><path d="M545.56,288.41c-2.16,0-3.47,1.92-3.47,5.49s1.3,5.55,3.47,5.55,3.45-2,3.45-5.55S547.71,288.41,545.56,288.41Zm0,9.94c-1.27,0-2.11-1.33-2.11-4.45s.84-4.39,2.11-4.39,2.1,1.27,2.1,4.39S546.81,298.35,545.56,298.35Z" transform="translate(-180.93 -157.77)" fill="#56a4fe"/><path d="M565.2,288.61h-1.06a6.5,6.5,0,0,1-2.28.78v.88h2v7.84h-2.47v1.13h6.09v-1.13H565.2Z" transform="translate(-180.93 -157.77)" fill="#56a4fe"/><path d="M528.31,288.41c-2.16,0-3.47,1.92-3.47,5.49s1.3,5.55,3.47,5.55,3.45-2,3.45-5.55S530.46,288.41,528.31,288.41Zm0,9.94c-1.27,0-2.11-1.33-2.11-4.45s.84-4.39,2.11-4.39,2.1,1.27,2.1,4.39S529.57,298.35,528.31,298.35Z" transform="translate(-180.93 -157.77)" fill="#56a4fe"/><path d="M582.34,288.41c-2.16,0-3.47,1.92-3.47,5.49s1.3,5.55,3.47,5.55,3.45-2,3.45-5.55S584.49,288.41,582.34,288.41Zm0,9.94c-1.27,0-2.11-1.33-2.11-4.45s.84-4.39,2.11-4.39,2.1,1.27,2.1,4.39S583.59,298.35,582.34,298.35Z" transform="translate(-180.93 -157.77)" fill="#56a4fe"/><path d="M601.81,288.61h-1.07a6.5,6.5,0,0,1-2.28.78v.88h2v7.84H598v1.13h6v-1.13h-2.23Z" transform="translate(-180.93 -157.77)" fill="#56a4fe"/><path d="M510.72,307.18c-2.16,0-3.47,1.92-3.47,5.49s1.3,5.55,3.47,5.55,3.45-2,3.45-5.55S512.86,307.18,510.72,307.18Zm0,9.94c-1.27,0-2.11-1.33-2.11-4.45s.84-4.39,2.11-4.39,2.1,1.27,2.1,4.39S512,317.12,510.72,317.12Z" transform="translate(-180.93 -157.77)" fill="#56a4fe"/><path d="M546.54,307.38h-1.06a6.5,6.5,0,0,1-2.28.78V309h2v7.84h-2.47V318h6.09v-1.13h-2.23Z" transform="translate(-180.93 -157.77)" fill="#56a4fe"/><path d="M565.2,307.38h-1.06a6.5,6.5,0,0,1-2.28.78V309h2v7.84h-2.47V318h6.09v-1.13H565.2Z" transform="translate(-180.93 -157.77)" fill="#56a4fe"/><path d="M528.31,307.18c-2.16,0-3.47,1.92-3.47,5.49s1.3,5.55,3.47,5.55,3.45-2,3.45-5.55S530.46,307.18,528.31,307.18Zm0,9.94c-1.27,0-2.11-1.33-2.11-4.45s.84-4.39,2.11-4.39,2.1,1.27,2.1,4.39S529.57,317.12,528.31,317.12Z" transform="translate(-180.93 -157.77)" fill="#56a4fe"/><path d="M582.34,307.18c-2.16,0-3.47,1.92-3.47,5.49s1.3,5.55,3.47,5.55,3.45-2,3.45-5.55S584.49,307.18,582.34,307.18Zm0,9.94c-1.27,0-2.11-1.33-2.11-4.45s.84-4.39,2.11-4.39,2.1,1.27,2.1,4.39S583.59,317.12,582.34,317.12Z" transform="translate(-180.93 -157.77)" fill="#56a4fe"/><path d="M600.83,307.18c-2.16,0-3.47,1.92-3.47,5.49s1.3,5.55,3.47,5.55,3.45-2,3.45-5.55S603,307.18,600.83,307.18Zm0,9.94c-1.27,0-2.11-1.33-2.11-4.45s.84-4.39,2.11-4.39,2.1,1.27,2.1,4.39S602.08,317.12,600.83,317.12Z" transform="translate(-180.93 -157.77)" fill="#56a4fe"/></g><path d="M313,194.53v-.67a11.19,11.19,0,0,0-14.54-10.66s0-.08,0-.12a13.84,13.84,0,0,0-26.94-4.43,10.71,10.71,0,0,0-16,11.18,10.71,10.71,0,0,0,1.55,21.31h53.21a8.52,8.52,0,0,0,2.72-16.6Z" transform="translate(-180.93 -129.923)" fill="#aef4ff"/><path d="M513.66,155.18v-.67a11.19,11.19,0,0,0-14.54-10.66s0-.08,0-.12a13.84,13.84,0,0,0-26.94-4.43,10.71,10.71,0,0,0-16,11.18,10.71,10.71,0,0,0,1.55,21.31h53.21a8.52,8.52,0,0,0,2.72-16.6Z" transform="translate(-180.93 -129.923)" fill="#aef4ff"/><path d="M461.63,300.7v-.74a12.26,12.26,0,0,0-15.94-11.69v-.13a15.17,15.17,0,0,0-29.54-4.86,11.74,11.74,0,0,0-17.57,12.26,11.74,11.74,0,0,0,1.7,23.36h58.34a9.34,9.34,0,0,0,3-18.2Z" transform="translate(-180.93 -129.923)" fill="none" stroke="#56a4fe" stroke-miterlimit="10" stroke-width="1.1" opacity="0.3"/></g></g></g><path d="M374,356.8h0a8.25,8.25,0,0,1-8.22-8.22h0a8.25,8.25,0,0,1,8.22-8.22h0a8.25,8.25,0,0,1,8.22,8.22h0A8.25,8.25,0,0,1,374,356.8Z" transform="translate(-112.375 -39.753)" fill="#46a6d1"/><path d="M492.78,239.13a11.21,11.21,0,0,1-11.21,11.21H271.92a11.215,11.215,0,0,1,0-22.43H481.57a11.21,11.21,0,0,1,11.21,11.22Z" transform="translate(-112.519 -39.753)" fill="#e8505c" opacity="0.24"/><path d="M492.78,239.13a11.21,11.21,0,0,1-11.21,11.21H459V227.91h22.57a11.21,11.21,0,0,1,11.21,11.22Z" transform="translate(-115.601 -39.753)" fill="#e8505c"/><circle cx="4.98" cy="4.98" r="4.98" transform="translate(351.264 198.394) rotate(-45)" fill="none" stroke="#fff" stroke-miterlimit="10" stroke-width="1.53"/><line x2="3.94" y2="3.94" transform="translate(361.72 201.917)" fill="none" stroke="#fff" stroke-linecap="round" stroke-miterlimit="10" stroke-width="1.53"/><rect width="1.22" height="15.41" rx="0.56" transform="translate(164.766 191.667)" fill="#e8505c"/><rect width="38.57" height="25.08" transform="translate(287.022 65.525) rotate(-14.45)" fill="#64f0ff"/><path d="M438.32,95.66l-37.35,9.62,14.72-20.16Z" transform="translate(-113.831 -39.753)" fill="#64f0ff"/><rect width="30.88" height="26.08" transform="translate(290.193 62.701) rotate(-14.45)" fill="#fff"/><path d="M400.97,105.28l6.26,24.29L423,113.47Z" transform="translate(-113.55 -39.753)" fill="#aef4ff"/><path d="M438.32,95.66l6.26,24.29L423,113.47Z" transform="translate(-114.223 -39.753)" fill="#aef4ff"/><path d="M444.58,119.95l-37.35,9.62,14.72-20.17Z" transform="translate(-114.03 -39.753)" fill="#aef4ff"/><path d="M407.23,129.57c1.1-1.78,2.27-3.5,3.4-5.25s2.32-3.46,3.51-5.17,2.39-3.41,3.58-5.11l3.65-5.07.35-.48.54.25c3.77,1.77,7.53,3.55,11.25,5.41,1.87.92,3.72,1.87,5.57,2.83s3.69,1.93,5.51,3c-2-.73-3.87-1.55-5.81-2.32s-3.84-1.61-5.75-2.45c-3.82-1.65-7.61-3.38-11.38-5.13l.89-.23-3.71,5c-1.26,1.66-2.5,3.33-3.78,5s-2.55,3.29-3.85,4.92S408.59,128,407.23,129.57Z" transform="translate(-114.03 -39.753)" fill="#64f0ff"/><circle cx="6.01" cy="6.01" r="6.01" transform="translate(3.811 219.36) rotate(-74.55)" fill="#b0e9ff"/><path d="M112.96,254.5l1.67,2.84,4.18-3.27" transform="translate(-104.373 -39.753)" fill="none" stroke="#fff" stroke-linecap="round" stroke-linejoin="round" stroke-width="1.28"/><circle cx="6.01" cy="6.01" r="6.01" transform="translate(375.46 69.707) rotate(-23.2)" fill="#aef4ff"/><path d="M497.24,113.92l3.08,1.18,1.22-5.16" transform="translate(-116.126 -39.753)" fill="none" stroke="#fff" stroke-linecap="round" stroke-linejoin="round" stroke-width="1.28"/><circle cx="2.21" cy="2.21" r="2.21" transform="translate(77.117 139.477)" fill="#67c2ef"/><circle cx="2.21" cy="2.21" r="2.21" transform="translate(46.077 313.427)" fill="#67c2ef"/><circle cx="2.21" cy="2.21" r="2.21" transform="translate(467.047 121.447)" fill="#67c2ef"/><circle cx="2.21" cy="2.21" r="2.21" transform="translate(213.86 63.707)" fill="#67c2ef"/><path d="M199,108.86a.7.7,0,0,1-.7-.7v-5a.705.705,0,1,1,1.41,0v5a.7.7,0,0,1-.71.7Z" transform="translate(-104.373 -39.753)" fill="#67c2ef"/><path d="M201.51,106.37h-5a.705.705,0,1,1,0-1.41h5a.705.705,0,1,1,0,1.41Z" transform="translate(-104.373 -39.753)" fill="#67c2ef"/><path d="M147.56,308.79h-1.78V307a.705.705,0,1,0-1.41,0v1.78h-1.78a.705.705,0,1,0,0,1.41h1.78V312a.705.705,0,1,0,1.41,0v-1.8h1.78a.705.705,0,0,0,0-1.41Z" transform="translate(-104.373 -39.753)" fill="#67c2ef"/><path d="M588.43,233.26h-1.78v-1.78a.7.7,0,1,0-1.41,0v1.78h-1.78a.705.705,0,1,0,0,1.41h1.78v1.78a.7.7,0,1,0,1.41,0v-1.78h1.78a.705.705,0,1,0,0-1.41Z" transform="translate(-120.373 -39.753)" fill="#67c2ef"/><g transform="translate(29.637 87.688)" opacity="0.6"><g opacity="0.4"><path d="M151.45,162.28a17.42,17.42,0,1,1,17.4-17.43A17.42,17.42,0,0,1,151.45,162.28Zm0-32.14a14.755,14.755,0,1,1-.03,0Z" transform="translate(-134.01 -127.44)" fill="#aef4ff"/></g><path d="M162.08,144.86h0A.88.88,0,0,1,163,144h1.51a.88.88,0,0,1,.88.88h0a.88.88,0,0,1-.88.88H163a.88.88,0,0,1-.92-.9Z" transform="translate(-134.01 -127.44)" fill="#aef4ff"/><path d="M137.51,144.88h0a.88.88,0,0,1,.88-.88h1.51a.88.88,0,0,1,.88.88h0a.88.88,0,0,1-.88.88h-1.5a.88.88,0,0,1-.89-.88Z" transform="translate(-134.01 -127.44)" fill="#aef4ff"/><path d="M151.44,155.51h0a.88.88,0,0,1,.88.88v1.51a.88.88,0,0,1-.88.88h0a.88.88,0,0,1-.88-.88v-1.5a.88.88,0,0,1,.88-.89Z" transform="translate(-134.01 -127.44)" fill="#aef4ff"/><path d="M151.42,130.95h0a.88.88,0,0,1,.88.88v1.51a.88.88,0,0,1-.88.88h0a.88.88,0,0,1-.88-.88v-1.51A.88.88,0,0,1,151.42,130.95Z" transform="translate(-134.01 -127.44)" fill="#aef4ff"/><path d="M143.91,152.4h0a.88.88,0,0,1,0,1.25l-1.07,1.07a.88.88,0,0,1-1.25,0h0a.88.88,0,0,1,0-1.25l1.07-1.07a.88.88,0,0,1,1.25,0Z" transform="translate(-134.01 -127.44)" fill="#aef4ff"/><path d="M161.27,135h0a.88.88,0,0,1,0,1.25l-1.07,1.07a.88.88,0,0,1-1.25,0h0a.88.88,0,0,1,0-1.25L160,135a.88.88,0,0,1,1.27,0Z" transform="translate(-134.01 -127.44)" fill="#aef4ff"/><path d="M143.9,137.35h0a.88.88,0,0,1-1.25,0l-1.07-1.07a.88.88,0,0,1,0-1.25h0a.88.88,0,0,1,1.25,0l1.07,1.07a.88.88,0,0,1,0,1.25Z" transform="translate(-134.01 -127.44)" fill="#aef4ff"/><path d="M161.29,154.7h0a.88.88,0,0,1-1.25,0L159,153.64a.88.88,0,0,1,0-1.25h0a.88.88,0,0,1,1.25,0l1.07,1.07a.88.88,0,0,1-.03,1.24Z" transform="translate(-134.01 -127.44)" fill="#aef4ff"/></g><g transform="translate(45.617 95.387)" opacity="0.6"><circle cx="1.44" cy="1.44" r="1.44" transform="translate(0 8.29)" fill="#aef4ff"/><path d="M151.43,143.06h0a.28.28,0,0,1-.28-.28v-7.36a.28.28,0,0,1,.28-.28h0a.28.28,0,0,1,.28.28v7.36A.28.28,0,0,1,151.43,143.06Z" transform="translate(-149.99 -135.14)" fill="#aef4ff"/><path d="M153.42,144.87h0a.28.28,0,0,1,.28-.28h4.86a.28.28,0,0,1,.28.28h0a.28.28,0,0,1-.28.28H153.7a.28.28,0,0,1-.28-.28Z" transform="translate(-149.99 -135.14)" fill="#aef4ff"/></g><rect width="102.32" height="24.04" rx="1.62" transform="translate(111.43 73.037)" fill="#def0f9"/><rect width="102.32" height="24.04" rx="2.03" transform="translate(108.983 70.537)" fill="#aef4ff"/><path d="M307.66,126.4h-78a4.1,4.1,0,0,1-4.1-4.1h0a4.1,4.1,0,0,1,4.1-4.1h78a4.1,4.1,0,0,1,4.1,4.1h0A4.1,4.1,0,0,1,307.66,126.4Z" transform="translate(-108.654 -39.753)" fill="#fff"/><circle cx="9.09" cy="9.09" r="9.09" transform="translate(183.396 73.467)" fill="#fff"/><line y2="3.8" transform="translate(122.238 80.667)" fill="none" stroke="#a8a8a8" stroke-linecap="round" stroke-miterlimit="10" stroke-width="0.55"/><path d="M306.46,125.38l-1.69-1.46a3.37,3.37,0,1,0-2.66,1.32,3.31,3.31,0,0,0,2.05-.71L305.9,126a.43.43,0,0,0,.27.1.47.47,0,0,0,.33-.15.43.43,0,0,0-.04-.57Zm-4.35-1a1.048,1.048,0,1,0-.01-.01Z" transform="translate(-110.226 -39.753)" fill="#f9dce0"/><path d="M603.93,270.8a5.24,5.24,0,0,0-3.87,1.72l-4.17-2.93a3.54,3.54,0,1,0-.77,1.1l4.18,2.94a5.13,5.13,0,0,0,.56,5.74l-2.14,2.24a3.55,3.55,0,1,0,1,.93l2.14-2.24a5.26,5.26,0,1,0,3.11-9.5Z" transform="translate(-120.373 -39.753)" fill="#aef4ff"/><ellipse cx="45.94" cy="3.63" rx="45.94" ry="3.63" transform="translate(317.015 392.638)" fill="#e4eff4"/><path d="M494.11,407.2c-2.53-8.7-.65-18.09,2.33-26.65a14.68,14.68,0,0,1,3.08-5.7,3.45,3.45,0,0,1,3-1.22c1.6.32,2.28,2.23,2.46,3.86,1.14,10.26-5.62,19.66-7.33,29.84" transform="translate(-116.171 -39.753)" fill="#7bf3ff"/><path d="M486.92,402.83a26.7,26.7,0,0,0-2.41-7.48,13.23,13.23,0,0,0-5.35-5.63c-1-.54-2.41-.87-3.28-.1s-.65,2.42-.08,3.57c3.1,6.3,11,9.13,14.06,15.47" transform="translate(-115.687 -39.753)" fill="#7bf3ff"/><path d="M490.58,408a54.9,54.9,0,0,1-5-11.45,21.16,21.16,0,0,1,0-12.32c.42-1.22,1.46-2.61,2.68-2.19a2.43,2.43,0,0,1,1.07.91c2.26,3,3.13,6.79,3.54,10.51s.42,7.5,1.24,11.15a3.139,3.139,0,0,0,.66,1.52,1.17,1.17,0,0,0,1.51.24,1.59,1.59,0,0,0,.46-.8c.52-1.63,8.59-18.39,15.91-19.57a5.559,5.559,0,0,1,1.79-.06c9.17,1.52-11.49,20.69-11.64,23.54,7.48-6.41,9.06-7.59,12.46-8.2,2.62-.47,7.19,1.85,5.69,5.06-1,2.22-3.63,3.21-6,3.69-2.62.52-5.32.69-7.89,1.42s-5.11,2.14-6.42,4.47" transform="translate(-116.481 -39.753)" fill="#7bf3ff"/><path d="M511.22,411.11a12.466,12.466,0,0,0-4,.659,19.39,19.39,0,0,0-38.763.571,11.637,11.637,0,0,0,.06,1.46,10.73,10.73,0,0,0-19.69,7.9,7.7,7.7,0,1,0-3.74,14.43h66.13a12.51,12.51,0,0,0,0-25Z" transform="translate(-116.128 -39.753)" fill="#ebf8ff"/><ellipse cx="38.38" cy="3.03" rx="38.38" ry="3.03" transform="translate(50.667 378.957)" fill="#e4eff4"/><path d="M180.86,397.67c2.11-7.27.54-15.11-2-22.26a12.27,12.27,0,0,0-2.57-4.76,2.88,2.88,0,0,0-2.48-1c-1.34.27-1.9,1.87-2.05,3.22-1,8.57,4.7,16.43,6.12,24.94" transform="translate(-104.373 -39.753)" fill="#7bf3ff"/><path d="M186.88,394a22.31,22.31,0,0,1,2-6.25,11.06,11.06,0,0,1,4.47-4.71,2.49,2.49,0,0,1,2.74-.08c.8.71.54,2,.07,3-2.59,5.26-9.22,7.62-11.74,12.92m-.62-.57a45.879,45.879,0,0,0,4.14-9.57,17.68,17.68,0,0,0,0-10.3c-.35-1-1.22-2.18-2.24-1.83a2,2,0,0,0-.89.76c-1.89,2.49-2.62,5.67-3,8.78a85,85,0,0,1-1,9.32,2.63,2.63,0,0,1-.55,1.27,1,1,0,0,1-1.26.2,1.33,1.33,0,0,1-.39-.67c-.43-1.36-7.18-15.36-13.29-16.35a4.641,4.641,0,0,0-1.5-.05c-7.66,1.27,9.6,17.28,9.73,19.67-6.25-5.35-7.57-6.34-10.41-6.85-2.19-.4-6,1.55-4.75,4.23.87,1.85,3,2.68,5,3.08,2.19.44,4.45.58,6.6,1.19a8.68,8.68,0,0,1,5.36,3.74" transform="translate(-104.373 -39.753)" fill="#7bf3ff"/><path d="M166.57,400.93a10.419,10.419,0,0,1,3.34.55,16.2,16.2,0,1,1,32.393.48,10.591,10.591,0,0,1-.053,1.22,9,9,0,0,1,16.45,6.6,6.43,6.43,0,1,1,3.12,12.06H166.57a10.455,10.455,0,1,1,0-20.91Z" transform="translate(-104.373 -39.753)" fill="#ebf8ff"/><path d="M544.72,247.71a11.136,11.136,0,0,0-.09,1.15,7.75,7.75,0,0,0-.62,3,1.46,1.46,0,0,0,.68,1.4c-.46,2-.85,4.62.09,6.44V247.26ZM536,272a6.275,6.275,0,0,0-.6.47l-.15.12-.05.05a22,22,0,0,0-4.48,6.07c-1.73,3.32-3.54,10.15-4.8,15.21l-1.25-1.29-16.37-24.7a50.251,50.251,0,1,0-7.64,5.07l2.26,3.41a8.232,8.232,0,0,0-.21,2.21,9.156,9.156,0,0,0-.12,1.41,2.5,2.5,0,0,0,.15,1c.41.75,2.19,1.6,2.83,2.13a7.261,7.261,0,0,1,1.27,1.64c-.14.28-.18.5,0,.63.57.55,7.95,11.09,13.88,17.82l13,19.73,5.78,8.74c-.1,4.29-.19,9.06-.2,12.54-.29,6.91-.7,17.34-1,23.59a8.79,8.79,0,0,0,6.49-8.62V267.94A21.27,21.27,0,0,0,536,272Zm-58.72-3.43a214.845,214.845,0,1,1-.04.02ZM540,316l-7.81-11.82a121.746,121.746,0,0,0,6.38-10.84,40.563,40.563,0,0,0,1.28,5C540.6,300.37,540.26,311.64,540,316Z" transform="translate(-116.62 -39.753)" fill="#5fb0e7" opacity="0.8"/><ellipse cx="39.7" cy="4.19" rx="39.7" ry="4.19" transform="translate(402.197 387.168)" fill="#e4eff4"/><path d="M542.29,425.17a10,10,0,0,1-4.14,3.14c-2.21,1-6.9,1.45-4.29,2.32s5.64.34,7.18.1a31,31,0,0,1,4.84-.29c2.39,0,2.41-.16,2.09-2.86C547.52,423.85,543.37,423.07,542.29,425.17Z" transform="translate(-117.461 -39.753)" fill="#222b70"/><path d="M585.64,423.82c-.13.75.93,3-1,4.68s-6.22,3.42-3.36,3.48a16.66,16.66,0,0,0,7.07-1.32c1.46-.72.29-1.85,2.1-2.42,2.38-.75,1.89-2.5.65-3.58C589.54,421.11,586.06,421.4,585.64,423.82Z" transform="translate(-120.373 -39.753)" fill="#222b70"/><path d="M576.52,348.25s5.7-16.76-10.47-30.57c0,0-8.67,3.45-15.61,3.87a38.559,38.559,0,0,1-8.24-.18s-.46,14.89-.48,22.92Z" transform="translate(-120.373 -39.753)" fill="#023d5f"/><path d="M543.92,330.56c-1.27.48-1.71,4.32-1.9,7s-1.19,29.91-1.56,34.85a14.473,14.473,0,0,0,0,2.29,8.511,8.511,0,0,0-.06,1.44c.34,8,2,33.35,1.87,48.85a3,3,0,0,0,1.25,1.38,6.43,6.43,0,0,0,4.29-.27c1.08-12.19,9-37.43,4-49.59a2.51,2.51,0,0,1-.1-1.72c2.4-7.67,7.16-22.52,8.15-28.4C561.52,336.48,550.28,328.17,543.92,330.56Z" transform="translate(-120.373 -39.753)" fill="#023d5f"/><path d="M578.46,378.49a2.36,2.36,0,0,1-.65-1.49c-.41-8.36-.27-27.24-1.59-33.18-2.16-9.78-13.42-13.83-18.41-9.22-1,.92-1.22,6.1-.41,8.61s7.27,30.39,8.78,35.11a15.1,15.1,0,0,0,.71,1.82,8.51,8.51,0,0,0,.36,1.36c2.69,7.5,13.75,28.5,18.14,43.34a1.69,1.69,0,0,0,1.29.66,9.47,9.47,0,0,0,4.73-1.35C588.84,412.12,588.36,389.17,578.46,378.49Z" transform="translate(-120.373 -39.753)" fill="#023d5f"/><path d="M533.11,278.73c-2.71,5.22-5.63,19.06-6.3,21.18,0,0,7.1,1.65,5.06,8,3.52-4.21,6.62-9.82,9.79-15.72,1.61-3,3.91-2,3.91-2L538.39,272S535.64,273.86,533.11,278.73Z" transform="translate(-117.362 -39.753)" fill="#2dc1bd"/><path d="M513.66,280.69s-5.26,3.94-4.44,4.74,16.27,23,20.36,23.34c1.68.13,3.87-1.88,4.32-4,.17-.8.3-1.63.41-2.47C532.62,295.87,513.66,280.69,513.66,280.69Z" transform="translate(-116.974 -39.753)" fill="#2dc1bd"/><path d="M533.11,278.73c-2.71,5.22-5.63,19.06-6.3,21.18,0,0,7.1,1.65,5.06,8,3.52-4.21,6.62-9.82,9.79-15.72,1.61-3,3.91-2,3.91-2L538.39,272S535.64,273.86,533.11,278.73Z" transform="translate(-117.362 -39.753)" fill="#2dc1bd"/><path d="M513.66,280.69s-5.26,3.94-4.44,4.74,16.27,23,20.36,23.34c1.68.13,3.87-1.88,4.32-4,.17-.8.3-1.63.41-2.47C532.62,295.87,513.66,280.69,513.66,280.69Z" transform="translate(-116.974 -39.753)" fill="#2dc1bd"/><path d="M505.5,275.8a8.24,8.24,0,0,0-.37,2.79l1.14-1.39Z" transform="translate(-116.292 -39.753)" fill="#f2a181"/><path d="M550.87,239.47c-1.42.41-2.18,2.25-2.66,3.51a19.582,19.582,0,0,0-1.07,4.73,6.49,6.49,0,0,0,.23,3.33,7,7,0,0,0,.93,1.45,3,3,0,0,0,.67.71,1,1,0,0,0,.93.16c.44-.17.62-.69.75-1.15a30.352,30.352,0,0,1,3.41-8.62" transform="translate(-120.373 -39.753)" fill="#2c1e56"/><path d="M549.29,248.94c0-1-1-1.57-1.9-.59a6.09,6.09,0,0,0-1,3.51c0,1.37,1,1.64,1.89,1.83" transform="translate(-120.373 -39.753)" fill="#ffccb0"/><path d="M537.63,272.62a21.37,21.37,0,0,1,14.59-5.12c5.14.16,19.13,1,20.7,4.45.8,1.76,1.66,19.75.49,26-.88,4.67-3.13,16.22-3.13,19s1.5,4,.8,4.79c-1.57,1.81-12.27,2.58-17.3,2.58-4.47,0-12.09-1.19-12.48-2.63-.57-2.13.87-2,1.07-4.28s.76-16.71-.06-19.08c-1.48-4.28-2.2-11.25-3.38-14.42C538,281.49,535.58,274.33,537.63,272.62Z" transform="translate(-120.373 -39.753)" fill="#2dc1bd"/><path d="M569.48,287.17c.53,1.11,4.15,6.93,4.15,6.93l.15.7a29.105,29.105,0,0,1-.37,3.11c-.88,4.67-3.13,16.22-3.13,19s1.43,3.93.8,4.79c-1.23,1.67-21.42,5.44-20.43.76.09-.42,16.95-13.28,17-13.71.78-3.69,1.45-6.35,1.79-9C570.3,293.24,568.94,286.06,569.48,287.17Z" transform="translate(-120.373 -39.753)" fill="#17a59e"/><path d="M550.51,261.36s0,5.85-.28,6.09a9.251,9.251,0,0,1-1.39.78s.82,5.09,2.1,4.71,9.69-4.63,9.69-4.63-1.19-.49-1.19-1,1.13-9.68,1.13-9.68" transform="translate(-120.373 -39.753)" fill="#ffccb0"/><path d="M556.35,240.1c-1.23.33-4.46-.33-5.35,1s-1.67,4.57-2,5.46a55.625,55.625,0,0,0-1.58,5.5c-.63,2.39-1.67,6.76.66,8.75a3.11,3.11,0,0,0,1.8.91c1.1.2,2.2.43,3.31.63a11.1,11.1,0,0,0,5.31.11c2.27-.74,3.52-3.86,4.1-6l3.35-12.15Z" transform="translate(-120.373 -39.753)" fill="#ffccb0"/><path d="M550.3,275.23s-.49,22.84-1.42,36.73l3.36,4.63,2.31-5.8a176.666,176.666,0,0,0-2.18-35.41Z" transform="translate(-120.373 -39.753)" fill="#fff"/><path d="M549.53,273.22l.08.31a6.381,6.381,0,0,0,.69,1.69h0l2.06.16s1.4-.73,1.59-1.52-2.3-2.08-2.3-2.08l-.3.12a4.469,4.469,0,0,0-1.79,1.29Z" transform="translate(-120.373 -39.753)" fill="#fff"/><path d="M559.57,265.94a8.62,8.62,0,0,1,2.35,2.38c-1.06,2.43-3.46,6.73-6.09,8.69a11.921,11.921,0,0,0-4.18-5.23S558.83,270.5,559.57,265.94Z" transform="translate(-120.373 -39.753)" fill="#17a59e"/><path d="M551.65,271.78a8.86,8.86,0,0,0-4.1,3.9,19.609,19.609,0,0,1,.56-7.23s1.69-2.16,2.27-2.2a11.33,11.33,0,0,0,1.27,5.53Z" transform="translate(-120.373 -39.753)" fill="#17a59e"/><path d="M549.63,322.48c-2.55.38-3.5,1.33-4.94,2.75a.53.53,0,0,0-.22.43c0,.2.27.29.48.33,1.19.19,1.38-.57,2.49-1l2.24-1" transform="translate(-120.373 -39.753)" fill="#f2a181"/><path d="M561.92,358.27a4.56,4.56,0,0,1-3.82-2.05l-55.2-83.54a4.57,4.57,0,1,1,7.63-5l55.2,83.54a4.57,4.57,0,0,1-3.81,7.09Z" transform="translate(-120.373 -39.753)" fill="#e8505c"/><path d="M565.63,356.37a4.5,4.5,0,0,1-1.19,1.15,4.58,4.58,0,0,1-6.34-1.3l-55.2-83.53a4.57,4.57,0,0,1,1.3-6.34,3.318,3.318,0,0,1,.81-.41,4.55,4.55,0,0,0-.12,5.18l55.2,83.55a4.56,4.56,0,0,0,3.82,2,4.35,4.35,0,0,0,1.72-.3Z" transform="translate(-120.373 -39.753)" fill="#c6324b"/><circle cx="42.36" cy="42.36" r="42.36" transform="translate(320.847 146.857)" fill="#fff" opacity="0.2"/><path d="M512.23,212.3A36.92,36.92,0,0,0,454,255.86a36.91,36.91,0,1,1,58.2-43.56Z" transform="translate(-115.897 -39.753)" fill="#fff" opacity="0.08"/><path d="M479.32,276.36a47.78,47.78,0,1,1,39.8-74.11h0a47.77,47.77,0,0,1-39.8,74.11Zm-.14-88a40.19,40.19,0,1,0,33.6,18h0a40.2,40.2,0,0,0-33.59-17.96Z" transform="translate(-116.172 -39.753)" fill="#c6324b"/><path d="M479.32,279a50.38,50.38,0,1,1,42-78.15h0a50.37,50.37,0,0,1-42,78.15Zm-.14-92.76a42.38,42.38,0,1,0,35.43,19h0a42.39,42.39,0,0,0-35.43-19.03Z" transform="translate(-116.218 -39.753)" fill="#e8505c"/><path d="M556.82,320.45c-2,.41-7.26,2-7.81,2.25a23.214,23.214,0,0,0-3.37,2.49c-2,2-1,2.92-1.75,5.62a1.552,1.552,0,0,0,0,.43c0,.28.38.52.76.26.21.35.82.13,1.12-.25,0,.27.37.44,1,.1.33-.18.27-.16,1-.84a8,8,0,0,1,2.15-1.31,15.641,15.641,0,0,0,2.1-1c.8-.53,2.23-.65,2.94-2.94a2.28,2.28,0,0,1,1.1-1.1l3.23-2" transform="translate(-120.373 -39.753)" fill="#ffccb0"/><path d="M569,283.31c.84,3,4.33,23.74,4.33,23.74L553.65,321.3l1.64,4.3s23.54-7.91,25.4-13.31,1.77-29.81-4.77-38.37c-2.08-2.73-6.25-4.1-6.25-4.1" transform="translate(-120.373 -39.753)" fill="#2dc1bd"/><path d="M548.81,327.92l-.49.45a6.789,6.789,0,0,0-1,1c-.16.21-.33.4-.49.6a6.4,6.4,0,0,1-.46.51,3.856,3.856,0,0,1-.5.45,6.723,6.723,0,0,1,.34-.58,6.241,6.241,0,0,1,.38-.57,5.52,5.52,0,0,1,.49-.62,3.321,3.321,0,0,1,.59-.55l.58-.38A2.343,2.343,0,0,1,548.81,327.92Z" transform="translate(-120.373 -39.753)" fill="#f2a181"/><path d="M547.72,326.62a3.272,3.272,0,0,0-.55.62c-.15.2-.32.44-.49.7l-.26.4a2.161,2.161,0,0,0-.22.42,7.779,7.779,0,0,1-.44.89,8,8,0,0,1-.45.74,7.4,7.4,0,0,1-.5.68s.11-.32.32-.78c.1-.23.22-.5.36-.78l.42-.88a2.721,2.721,0,0,1,.26-.46c.1-.14.19-.28.29-.4s.4-.47.58-.65a4,4,0,0,1,.48-.4,1,1,0,0,1,.2-.1Z" transform="translate(-120.373 -39.753)" fill="#f2a181"/><path d="M546.48,325.57a1.727,1.727,0,0,1-.12.19c-.08.12-.21.28-.36.47s-.34.41-.5.65a3.079,3.079,0,0,0-.19.41l-.19.44c-.24.6-.47,1.2-.64,1.65s-.29.76-.29.76a4.477,4.477,0,0,1,.09-.82,7,7,0,0,1,.55-1.73,4.939,4.939,0,0,1,.48-.86,6.782,6.782,0,0,1,.59-.61A7.5,7.5,0,0,0,546.48,325.57Z" transform="translate(-120.373 -39.753)" fill="#f2a181"/><path d="M507.24,280.57s1-2.6,1.32-3.28.64-1.3.84-1.14.26.42.15.95-.7,2.24-.7,2.24" transform="translate(-116.382 -39.753)" fill="#ffccb0"/><path d="M563.85,254.39c-.77-.45-1.36-.93-1.86-.19-.27.39-.43.93-.88,1.07a.91.91,0,0,1-1-.73,2.641,2.641,0,0,1,.17-1.39l.93-3a4.5,4.5,0,0,0,.22-3,3.28,3.28,0,0,0-.94-1.21,10,10,0,0,0-4.59-2,49,49,0,0,1-4.94-1A5.341,5.341,0,0,1,549,242a4.06,4.06,0,0,1-1.33-3,6.279,6.279,0,0,1,1-3.24,5.4,5.4,0,0,0,.49,1.13,4.179,4.179,0,0,1,.9-1.41c.48,2.68,11.75,1.78,14.39,3,1.83.82,3.34,1.35,3.28,4.31a1.08,1.08,0,0,0,.36.47c1.62,1.49,2.32,3.29,2.52,6,.25,3.28-1.66,6.84-3.54,9.55a6.12,6.12,0,0,1-1.39,1.66,3.69,3.69,0,0,1-2.62.59c-.81-.16-2.41-.09-2.43-.91,0-.59,1.25-1.65,1.61-2.13" transform="translate(-120.373 -39.753)" fill="#2c1e56"/><path d="M560.9,257.49a1,1,0,0,0,1.55,1.17,3.57,3.57,0,0,0,2.25-2.76c.27-1.42-.5-2.84-1.8-2.47a1.92,1.92,0,0,0-1.23,1.87" transform="translate(-120.373 -39.753)" fill="#ffccb0"/><path d="M550.51,261.86l3.62.67a5,5,0,0,1-3.66,1.35" transform="translate(-120.373 -39.753)" fill="#f2a181"/><path d="M509.27,284.8a7.4,7.4,0,0,0-1.27-1.64c-.64-.53-2.42-1.38-2.83-2.12s0-4.67,1.19-5,2.38,2.6,2.92,3.72a4.57,4.57,0,0,1,.12,2.68l.82,1.24A11.7,11.7,0,0,0,509.27,284.8Z" transform="translate(-116.379 -39.753)" fill="#ffccb0"/><path d="M505.5,277.11s.79-1.92,1.1-2.6.64-1.3.84-1.14a1.1,1.1,0,0,1,.21,1.08c-.11.53-.7,2.24-.7,2.24" transform="translate(-116.327 -39.753)" fill="#ffccb0"/><path d="M506,278.35s1.23-3.14,1.6-4,.77-1.56,1-1.38.32.5.19,1.14-.85,2.71-.85,2.71" transform="translate(-116.356 -39.753)" fill="#ffccb0"/><path d="M506.86,279.2s1-2.6,1.32-3.28.64-1.3.84-1.14.26.42.15.95-.7,2.24-.7,2.24" transform="translate(-116.371 -39.753)" fill="#ffccb0"/><g transform="translate(96.679 205.637)" opacity="0.8"><path d="M220,309.24a3.329,3.329,0,0,0,.29.26Z" transform="translate(-204.26 -245.39)" fill="#5fb0e7"/><g opacity="0.8"><path d="M242.75,252.64l-2.17-.61c-2.56-.72-6,3.59-7.69,9.62s-1,11.5,1.58,12.21l-1.25,4.47-.15.13a.59.59,0,0,0-.22-.05c-.11,0-.21.24-.29.49a12.76,12.76,0,0,0-2.48,2.84,9.779,9.779,0,0,0-.67,2.8c-1.94,4.34-3.36,8.58-6.41,12.59-.6-1.22-1.24-2.55-1.87-3.88a4.343,4.343,0,0,0,.29-.51c-2.33-6.44-5.77-16.25-10-17a40.511,40.511,0,0,0-4.22-.49,5,5,0,0,1-.73-1.16c.3-1.11,1.07-3.79,1.58-4.25s1.22,1.18,3.58.54c1-.27,1.75-2.29,2.17-4.69v-.23c.53-.13,1.13-.28,1.26-.34.7-.36.58-.68.33-1.12a12.2,12.2,0,0,1-1.11-2.77,21.489,21.489,0,0,0-.21-5c.06.15.11.31.16.45,1-.68,1.05-2.35.94-3a7.29,7.29,0,0,0-1.17-3.11c-2.72-3.83-4.93-4.22-6.81-4.65a24.677,24.677,0,0,0-2.93-.53V359.23a9,9,0,0,0,2.57,6.36v-2.71l1.28,3.83a8.18,8.18,0,0,0,4.54,1.38h6.5a104.365,104.365,0,0,0-.39-11c.09-.06.2-.12.29-.19.13-6.05-.4-10.82-1.58-19.1-1.77-12.49-3.86-15.3-5.72-20.31l-.11-.39a1.36,1.36,0,0,0,.3-.77c0-.66-.76-2.39-.83-3.05-.39-3.83-.57-7.43.55-9.4a19.827,19.827,0,0,1,1.27-1.94c2.13,1.84,4.31,3.83,6.31,5.21.09.07.17.16.26.22a4.9,4.9,0,0,0,1,.59l.41.23-.27-.18a2.61,2.61,0,0,0,2.12-.11h.28a3.26,3.26,0,0,0,3.18-1.64c3.59-6.23,7.6-17.91,8.28-19.91,1-.51,2.65-2.19,2.81-3.37a2,2,0,0,0-.21-1.26c.18-.63.12-2.52-.88-1.67.83-1.33.58-2.67.3-4.16a.252.252,0,0,0-.32-.27l.32-1.17c2.56.72,6-3.59,7.69-9.62S245.31,253.35,242.75,252.64Z" transform="translate(-204.26 -245.39)" fill="#5fb0e7"/></g></g><path d="M218.06,303.76a10,10,0,0,1,4-3.15c-4.65-4.39-15-11.59-15-11.59l-1.83,8.63c4.1,2,9.62,8.37,13.83,10.52C218.3,307.72,216.56,306.35,218.06,303.76Z" transform="translate(-107.463 -39.753)" fill="#f4a07a"/><path d="M216.86,309.5l-.29-.26A3.348,3.348,0,0,0,216.86,309.5Z" transform="translate(-107.704 -39.753)" fill="#ebf8ff"/><path d="M227.46,284.54c-2.8,6.26-4.5,12.31-11.59,17.75-.29.22-.6.48-.93.75a10,10,0,0,0,2.69,4.3c2.4,1.78,4,.21,4.5-.52l.22-.32a96.689,96.689,0,0,0,7.46-21.25C227.62,285.61,228.36,282.53,227.46,284.54Z" transform="translate(-107.747 -39.753)" fill="#f4a07a"/><path d="M227.46,284.54a9.8,9.8,0,0,1,.66-2.8,16.65,16.65,0,0,1,3.44-3.66l-.81,5.35-1,2.32-1.43.2Z" transform="translate(-108.054 -39.753)" fill="#f4a07a"/><ellipse cx="34.61" cy="3.71" rx="34.61" ry="3.71" transform="translate(65.987 387.728)" fill="#e4eff4"/><path d="M204.1,327.9l-13.72-11.25s-6.19,8.65-3.7,16.87c1.22,4,2.72,6,3.38,8s5.05,27.22,4.77,29.08-2.4,7.11-3.16,12.6c-.92,6.61-.45,28.08-1.15,33.79s4.57,6.6,4.83,4.67c2.25-16.5,8.42-42.26,9.22-50.5S204.81,347.79,204.1,327.9Z" transform="translate(-104.373 -39.753)" fill="#ffccb0"/><path d="M204.36,344.12l-5.71,13.61A30.32,30.32,0,0,1,203,371.86c.13,2.61-.06,5.23,0,7.84a2.6,2.6,0,0,0,.09.57c.74-3.88,1.28-7.08,1.48-9.16.57-5.83.44-15.07.07-27a2.56,2.56,0,0,0-.28.01Z" transform="translate(-104.373 -39.753)" fill="#f4b798"/><path d="M196.2,416.31s-1.18,6-.83,6.75a10.48,10.48,0,0,0,2.86,3.74c1.32.82,4.25,1.78,4.48,2.14a.9.9,0,0,1-.15,1.22,6,6,0,0,1-4.13,1.11c-4-.6-4.38-2.33-6.68-2.58a2.957,2.957,0,0,1-2.23,0,2.61,2.61,0,0,1-1.57-2.51,11.29,11.29,0,0,1,1.69-4.24c.64-1.23,1-6.8,1-6.8" transform="translate(-104.373 -39.753)" fill="#ffccb0"/><path d="M202.88,430.44c.28-.5.34-1.24.07-1.42a23.07,23.07,0,0,0-2.47-1.44c-.77-.34-2-.64-1.56-.41s-.34,1.1-1.06,1.06c-2.47-.12-4.32-1.73-5.73-2.07-2-.48-2.92-2.87-3-3.25a9.48,9.48,0,0,0-1.42,2.8,4.86,4.86,0,0,0-.27,2.13,4.94,4.94,0,0,1,.25,2,3.88,3.88,0,0,0,1.47.51,5.759,5.759,0,0,0,1.57,0l.16-1.28a5.783,5.783,0,0,1,1.26.11,6.819,6.819,0,0,1,1.93.87c.29.33.52.94.9,1.13a7.88,7.88,0,0,0,3.25.76C200.87,432.08,202.4,431.29,202.88,430.44Z" transform="translate(-104.373 -39.753)" fill="#222b70"/><path d="M223,429.37c-.29-.32-3.43-.83-4.91-1.45a8.47,8.47,0,0,1-3.44-3.27c-.33-.8-.26-4.86-.21-6.56.29-11.73,2.46-40.39,2.77-47.25.55-11.93-1-24.24-5.59-43.39l-17.09-13.12s-4.79,8.9-3.18,17.41c.93,4.94,5,5.7,5.72,7.61s11,32.85,11,32.85a58.211,58.211,0,0,0-2.13,14c-.1,6.25,2.74,25.12,3.26,32.3.06,1.4.3,4.77-.11,5.84-.51,1.31-1.8,2.85-1.73,4.51a2.54,2.54,0,0,0,1.94,2.25c1.21.38,1.89-.32,2.3-.34,2.41-.1,3.08,1.56,7.24,1.56a6.58,6.58,0,0,0,4.13-1.72.88.88,0,0,0,.03-1.23Z" transform="translate(-107.108 -39.753)" fill="#ffccb0"/><path d="M223.33,430.84c.23-.53.2-1.28-.1-1.42a23.787,23.787,0,0,0-2.74-1.06c-.84-.22-2.13-.33-1.66-.17s-.22,1.14-1,1.21c-2.57.25-4.68-1.07-6.19-1.19-2.17-.17-3-2.4-3.11-2.77a9.94,9.94,0,0,0-1.53,3,4.7,4.7,0,0,0,0,2.15,4.7,4.7,0,0,1,.52,2,4.1,4.1,0,0,0,1.58.28,6.289,6.289,0,0,0,1.63-.23v-1.29a6.29,6.29,0,0,1,1.31-.08,4.359,4.359,0,0,1,2.12.75,3.881,3.881,0,0,0,1.14.82,8.72,8.72,0,0,0,3.38.26C221.45,432.77,222.94,431.75,223.33,430.84Z" transform="translate(-107.512 -39.753)" fill="#222b70"/><path d="M191,315.72c-4.38,4.5-7.18,11-5.61,18.12.42,1.89,2.8,7,3.27,8.88,1.05,4.3,3,10.59,3.35,15.56,6.75,4.06,19.63,2.55,25.17-1.4.13-6.06-.4-10.82-1.58-19.1-1.77-12.49-3.87-15.31-5.72-20.31-.22-.88-.86-2.66-1.06-3.69" transform="translate(-104.373 -39.753)" fill="#32ccc4"/><path d="M200.7,273.88c1.12.16,1.18,2.74,2.3,2.9.81.11,2.25-.5,3-.23,4.1,1.42,3.91,5.78,5.3,10.88,2.3,3.69,3.37,7.22,2.52,9.67-1.06,3-2.56,4.12-4.06,6.75-1.12,2-.95,5.57-.55,9.4.07.66.88,2.4.84,3.06-.08,1.27-1.86,2-3.91,2.39-4.71,1-12,.44-14.36.3-2-.12-4-.19-4-1.4,0-.84.75-1.33.78-3,.08-3.62-1-12.44-.94-15.5,0-7.83.06-13.65,1.9-21.2" transform="translate(-106.971 -39.753)" fill="#023d5f"/><path d="M214.75,290.08a36,36,0,0,0-5.31-4.84l-3.71,2.55c2.56,3.3,3.69,7.53,5.29,11.36a9.579,9.579,0,0,0,2.29-.65c.28-.71.19-.37.54-1.39A16.61,16.61,0,0,0,214.75,290.08Z" transform="translate(-107.433 -39.753)" fill="#0d2d47"/><path d="M212.34,261.19a20.5,20.5,0,0,0-.26-5.35c-.66-3-1.84-7.27-7.15-8.15s-10.63,1.2-11.61,5.09.39,9.28.68,12.24a18.336,18.336,0,0,1-1.21,6.84l11.59,2.67s1.06-4.14,1.7-4.73,1.22,1.18,3.58.55c1-.27,1.75-2.29,2.17-4.69v-.24a11.427,11.427,0,0,0,1.26-.34c.7-.36.58-.67.33-1.11a12.38,12.38,0,0,1-1.08-2.78Z" transform="translate(-107.102 -39.753)" fill="#ffccb0"/><ellipse cx="11.34" cy="4.81" rx="11.34" ry="4.81" transform="translate(121.839 233.413) rotate(-74.37)" fill="#e8505c"/><path d="M227.41,296.31h0a1.13,1.13,0,0,1-.78-1.39l12-42.88,2.17.61-12,42.88a1.13,1.13,0,0,1-1.39.78Z" transform="translate(-108.098 -39.753)" fill="#e8505c"/><ellipse cx="11.34" cy="4.81" rx="11.34" ry="4.81" transform="translate(119.73 232.818) rotate(-74.37)" fill="#ff8594"/><ellipse cx="9.93" cy="3.76" rx="9.93" ry="3.76" transform="translate(121.081 231.813) rotate(-74.37)" fill="#ebf8ff"/><path d="M233.33,272.62a1.16,1.16,0,0,1-.45,0c-2-.56-2.42-5.3-1-10.56s4.3-9.11,6.3-8.55a1.16,1.16,0,0,1,.4.2c-1.95,0-4.48,3.69-5.85,8.59S231.68,271.58,233.33,272.62Z" transform="translate(-108.185 -39.753)" fill="#e8505c"/><path d="M232.26,286.51a5.85,5.85,0,0,0,3.21-3.51,2,2,0,0,0-.21-1.27c.18-.63.12-2.52-.88-1.67.83-1.33.58-2.67.3-4.16-.1-.5-.68-.4-.82.74a5.59,5.59,0,0,1-2.4,3.84c-.21-.2.09-.43.1-1.07s-.35-1-.65-1-.38.88-.47,1.08l-1.07,2.26a4,4,0,0,0-.49,2.28c0,.15.31,1.63.8,1.18" transform="translate(-108.114 -39.753)" fill="#ffccb0"/><path d="M219.88,304.31c1-2.4,4.27-1.67,4.27-1.67-1.23-.78-9.5-19.21-9.5-19.21l-6.72,6.6c2.45,3.36,9.35,14.71,10.33,16a13.227,13.227,0,0,0,1.32,1.43,4.47,4.47,0,0,1,.3-3.15Z" transform="translate(-107.542 -39.753)" fill="#ffccb0"/><path d="M229.12,284.76c-1.24,5-10.23,17.07-11.06,19.16,0,0-.12,3.32,2.43,3.89a6.917,6.917,0,0,0,.71.12,3.27,3.27,0,0,0,3.18-1.65c3.93-6.83,8.38-20.21,8.38-20.21A3,3,0,0,0,229.12,284.76Z" transform="translate(-107.841 -39.753)" fill="#ffccb0"/><path d="M209.46,275.7c-4.37-.82-8.28-.12-12-2.67-2.73,3,6.85,15.87,8.65,15.93s5.25,7.41,6.19,8.42c5.63-1.18,7.14-4.64,7.14-4.64C217.14,286.31,213.7,276.5,209.46,275.7Z" transform="translate(-107.241 -39.753)" fill="#023d5f"/><path d="M206.25,276.69c-.47-1-1.43-1.71-1.81-2.76a5,5,0,0,1,0-3.33,6,6,0,0,1,1.16-1.57c1.93-2.18,2.44-3.79,1.21-6.3a7.33,7.33,0,0,1-.87-2.59c-.07-.83-.06-1.71.8-2a1,1,0,0,1,1.32.37c.21.33.39,3,1,1.34s1.27-1.78.64-5c-.07-.38-.49-1.91-.29-2.18a6.23,6.23,0,0,1,2.89,3.94c1-.68,1.06-2.35.95-3a7.29,7.29,0,0,0-1.18-3.11c-2.71-3.83-4.93-4.23-6.81-4.65a13.19,13.19,0,0,0-5.55-.44c-1.83.38-4,1.35-4.29,2.82-2.67-.19-3.72,2.3-4.18,3.21a13.18,13.18,0,0,0-1.28,4.15c-.28,2.13,0,4.3-.19,6.45a9.19,9.19,0,0,1-1.6,5c-1,1.35-2.76,1.77-3.92,3a6.9,6.9,0,0,0-1.55,6.11c.49,2.14,2,4.26,1.08,6.48-.31.72-.81,1.34-1.11,2.07a5,5,0,0,0,1,5,9.14,9.14,0,0,0,5.08,3,13.1,13.1,0,0,0,4.87-.21c3.07-.73,5.7-1,8.47-4.43,1.57-1.92.21-2.61,1.69-4.62.83-1.12,2.15-1.88,2.66-3.24a4.85,4.85,0,0,0-.15-3.52Z" transform="translate(-104.373 -39.753)" fill="#2c1e56"/><path d="M393.43,144.87H348.12a5.059,5.059,0,0,1,.44-1.58c1.15-2.72,5.35-8.22,20.48-10.68l7.47-1.54S393.82,131.06,393.43,144.87Z" transform="translate(-112.271 -39.753)" fill="#2dc1bd"/><path d="M378.41,144.87h-30.3a5.059,5.059,0,0,1,.44-1.58,6.89,6.89,0,0,1,3.59,0l1.85.49H373.7C377.55,143.74,378.41,144.87,378.41,144.87Z" transform="translate(-112.037 -39.753)" fill="#17a59e"/><path d="M370.93,136.24a2.39,2.39,0,0,1-1.66-.53,2.47,2.47,0,0,1-.93-1.41,9.354,9.354,0,0,0-.4-1.31,5.349,5.349,0,0,0-.65-1.26l7.63-8.27s.83,6.18,2.19,8.27C377.11,131.73,377.55,135.87,370.93,136.24Z" transform="translate(-112.321 -39.753)" fill="#ffccb0"/><path d="M372.87,128.21s-.93,4.72-3.6,7.5a2.47,2.47,0,0,1-.93-1.41,9.354,9.354,0,0,0-.4-1.31,22.171,22.171,0,0,0,4.93-4.78Z" transform="translate(-112.267 -39.753)" fill="#f2a181"/><path d="M351.8,112.71s-.27,8.31,3.44,8.19,0-9.16,0-9.16Z" transform="translate(-111.786 -39.753)" fill="#2c1e56"/><path d="M374,121.87a16.272,16.272,0,0,1,.07,3.15,2.469,2.469,0,0,1-.06.34,2.655,2.655,0,0,1-.07.34c-.9,3.56-5.4,8.58-8.57,9a8.439,8.439,0,0,1-1.22,0c-4.41-.2-7-3.81-8.47-7.66l-.15-.4a35.35,35.35,0,0,1-1.85-8.52c0-.3-.23-3.58.41-4.55s9.41-2.08,9.59-2.09,8.55.59,8.55.59a90.056,90.056,0,0,1,1.77,9.8Z" transform="translate(-112.063 -39.753)" fill="#ffccb0"/><path d="M350.08,110.14s.27,6.39,10.76,3.83c2.88-.7,5.42-1.36,6.85-.59,2.14,6.75,2.21,10,3,9.72,1-.33-1.62-5.94,1.66-5.33,2.51.46-.11,6.65-.11,6.65s3.05.4,3.14-1c.05-.85.15-12.93-1.93-15.8s-4.56-2.74-4.56-2.74-2.63-2.21-8.81-.4-9.44-.47-9.43-.3a12.36,12.36,0,0,0-.57,5.96Z" transform="translate(-112.022 -39.753)" fill="#2c1e56"/><path d="M393.44,144.86s-3.47,23.73-18.89,35.7a139.368,139.368,0,0,0-12.13,11.09l-.22-.19a4.369,4.369,0,0,0-1,1.12c-.41.74-.83,3.47-1.61,3.79a2.271,2.271,0,0,1-.37.09,2.51,2.51,0,0,1-1.14.5,7.26,7.26,0,0,1-2.45-.25,4.932,4.932,0,0,1-1.12.87,24.48,24.48,0,0,1-3,1.57c-.87.28-1,0-.83-.55s1.85-1.48,2.45-2a9.251,9.251,0,0,0,2-2.62c.37-.81.37-1.26,0-1.26s-1.51.69-2.38.87-1.3,0-.87-.55a6.83,6.83,0,0,1,3.06-2.37,6,6,0,0,0,2.87-1.15,9,9,0,0,0,1.61-2l-.35-.31s9.52-13.28,16.65-23.54l.47-.64c4-8.13,4.44-14.58,4.41-17.11a2.46,2.46,0,0,0-1.21-1.17Z" transform="translate(-112.311 -39.753)" fill="#5fb0e7"/><path d="M359.39,186.16a16.67,16.67,0,0,1-2.54,3.42,6,6,0,0,1-2.86,1.16,6.87,6.87,0,0,0-3.07,2.36c-.42.51,0,.74.88.55s2-.88,2.38-.88.37.45,0,1.26a9.12,9.12,0,0,1-2,2.62c-.6.46-2.26,1.39-2.45,1.94s0,.83.83.55a23.589,23.589,0,0,0,3-1.57,5.1,5.1,0,0,0,1.12-.87,7.32,7.32,0,0,0,2.45.25,2.72,2.72,0,0,0,1.15-.5,2.282,2.282,0,0,0,.36-.09c.79-.32,1.2-3,1.62-3.78a35.354,35.354,0,0,1,3.44-3.49Z" transform="translate(-111.847 -39.753)" fill="#ffccb0"/><path d="M393.44,144.86l-5.73-3.9-2.93,1.41c-1.84-.8-5-2-5-2l-1.38,4.49a2.5,2.5,0,0,1,1.21,1.17,39.026,39.026,0,0,1-4.4,17.11c-.16.22-.32.41-.48.64-7.12,10.25-16.64,23.53-16.64,23.53l4.07,3.58s6.1-5.49,11.4-10.33c1.78-1.63,7.27-6.93,10.58-13a134.111,134.111,0,0,0,9.3-22.7Z" transform="translate(-112.431 -39.753)" fill="#2dc1bd"/><path d="M355.72,147.57h-.16a3.794,3.794,0,0,1,.34.4,1.111,1.111,0,0,1,.06.3c-.22.24-.41.21-.69.19a1.1,1.1,0,0,1-.52-.25.78.78,0,0,1-.65.15,2.2,2.2,0,0,1-1-.72.21.21,0,0,1,0,.21.8.8,0,0,1-.71.19,2.3,2.3,0,0,1-1.09-.8c-.15-.15-.35-.4-.58-.67l-.56-.38a1.54,1.54,0,0,0-.86-.28h0c-2.14,0-3.1-1-5.74-1h11.86a5,5,0,0,1-.72.13l.06.06c.16.18.31.35.44.52.47.58,1.11,1.33,1.23,1.45a.333.333,0,0,1,.06.31.77.77,0,0,1-.77.19Z" transform="translate(-111.646 -39.753)" fill="#5fb0e7"/><path d="M355.21,147.57h-.16a3.794,3.794,0,0,1,.34.4,1.111,1.111,0,0,1,.06.3c-.22.24-.41.21-.69.19a1.1,1.1,0,0,1-.52-.25.78.78,0,0,1-.65.15c-.27,0-.59-.3-1-.72a.21.21,0,0,1,0,.21.8.8,0,0,1-.71.19,2.3,2.3,0,0,1-1.09-.8c-.15-.15-.35-.4-.58-.67l-.56-.38a1.54,1.54,0,0,0-.86-.28h0c-2.14,0-3.1-1-5.74-1,0,0,6.15-3,9.86-.86a12.441,12.441,0,0,0,1.57.16c1.08,0,.77.56.43.74a5,5,0,0,1-.72.13l.06.06c.16.18.31.35.44.52.47.58,1.11,1.33,1.23,1.45a.333.333,0,0,1,.06.31A.77.77,0,0,1,355.21,147.57Z" transform="translate(-111.631 -39.753)" fill="#ffccb0"/><path d="M354.84,144.91a5,5,0,0,1-.72.13,10.28,10.28,0,0,0-1.27-1,12.441,12.441,0,0,0,1.57.16C355.49,144.19,355.18,144.73,354.84,144.91Z" transform="translate(-111.779 -39.753)" opacity="0.47" fill="url(#b)"/></g></svg>