<svg xmlns="http://www.w3.org/2000/svg" width="154.979" height="293.076" viewBox="0 0 154.979 293.076"><g transform="translate(0 0)"><path d="M99.578,224.943a20.234,20.234,0,0,0-12.141.361c-5.872,2-14.718,7.323-18.209,21.413-5.43,21.915-26.382,15.115-23.039,43.631h8.247s.669-7.732,5.127-11.324A46.925,46.925,0,0,0,58,290.348h47.855s10.767-13.18,10.767-34.408C116.624,236.16,108.609,227.583,99.578,224.943Z" transform="translate(-45.829 -224.18)" fill="#574ecb"/><g transform="translate(23.777 53.312)"><path d="M102.278,278.279c-9.839-3.51-9.982-19.074-9.877-23.628a13.874,13.874,0,0,0-2.395-.56,61.727,61.727,0,0,0-17.6.267c.537,6.371.836,24.9-13.46,26.883.325,15.155.906,34.987,1.916,51.485h42.529l3.3-39.24a22.149,22.149,0,0,0-4.411-15.205Z" transform="translate(-58.944 -253.585)" fill="#f4d87d"/><path d="M88,278.831c-.2-5.53-1.042-8.84-1.218-12.453a13.58,13.58,0,0,0-9.384-12.2C77.3,258.727,78.163,275.323,88,278.831Z" transform="translate(-43.945 -253.108)" fill="#9699f8"/></g><path d="M72.512,254.012c-.738.111-1.474.216-2.241.352a13.672,13.672,0,0,0-11.458,13.579c.058,3.646.136,8.059.241,12.952C73.347,278.913,73.048,260.381,72.512,254.012Z" transform="translate(-35.275 -199.927)" fill="#9699f8"/><path d="M97.265,241.782c-.076-.479-.165-.945-.265-1.394-3.972-17.979-30.719-17.2-33.971.923-.027.15-.053.3-.076.453a25.271,25.271,0,0,0,.386,9.462c1.4,6.315,6.938,16.416,18.287,16.416s13.851-10.107,15.251-16.422A25.261,25.261,0,0,0,97.265,241.782Z" transform="translate(-32.136 -221.639)" fill="#9699f8"/><ellipse cx="4.404" cy="4.333" rx="4.404" ry="4.333" transform="translate(27.106 27.427)" fill="#9699f8"/><ellipse cx="4.404" cy="4.333" rx="4.404" ry="4.333" transform="translate(60.028 27.427)" fill="#9699f8"/><path d="M74.4,264.347h0a5.589,5.589,0,0,1-5.633-5.544V247.994l11.268,1.175V258.8A5.591,5.591,0,0,1,74.4,264.347Z" transform="translate(-27.184 -204.82)" fill="#9699f8"/><path d="M60.5,282.024l36.009,15.234,22.18-53.584-7.473-2.1L89.6,277.822l-22.155-8.4Z" transform="translate(-33.9 -210.04)" fill="#9699f8"/><path d="M80.862,283.411l36.947,12.879,18.563-54.9-7.6-1.615-19.159,37.565-22.668-6.96Z" transform="translate(-17.348 -211.5)" fill="#9699f8"/><path d="M82.923,382.979s12-.013,12,5.178H74.67l.406-5.178Z" transform="translate(-22.382 -95.081)" fill="#343771"/><path d="M66.8,382.979s12-.013,12,5.178H58.545l.406-5.178Z" transform="translate(-35.491 -95.081)" fill="#343771"/><path d="M63.387,250.679s11.607-1.639,28-17.769C91.384,217.42,53.685,227.427,63.387,250.679Z" transform="translate(-32.852 -223.136)" fill="#574ecb"/><g transform="translate(23.398 131.672)"><path d="M83.459,297.588c0,.011,0,.024,0,.035C83.463,296.946,83.459,296.2,83.459,297.588Z" transform="translate(-38.635 -296.807)" fill="#574ecb"/><path d="M103.564,297.272c0,.627,0,1.2,0-.034H61.03c-6.548,37.976,10.633,70.485,6.781,100.81-3.2,25.217-9.076,54.636-9.076,54.636h8.771s20.588-48.852,16.852-129.232c12.812,55.16,3.737,129.232,3.737,129.232h7.781S115.833,391.813,103.564,297.272Z" transform="translate(-58.735 -296.457)" fill="#574ecb"/></g><g transform="translate(29.405 23.533)"><ellipse cx="1.247" cy="1.498" rx="1.247" ry="1.498" transform="translate(28.63 2.188) rotate(-0.51)" fill="#343771"/><path d="M81.827,243.556s-3.573,3.026-9.957.241" transform="translate(-54.063 -231.961)" fill="none" stroke="#343771" stroke-linecap="round" stroke-linejoin="round" stroke-miterlimit="10" stroke-width="0.428"/><path d="M74.787,239.692s4.213,4.873.442,5.763" transform="translate(-51.692 -235.102)" fill="none" stroke="#343771" stroke-linecap="round" stroke-linejoin="round" stroke-miterlimit="10" stroke-width="0.428"/><path d="M84.644,241.166a1.893,1.893,0,0,0-2.462-.415c1.3,1.258,1.209,2.654-.654,3.178" transform="translate(-46.212 -234.504)" fill="none" stroke="#343771" stroke-linecap="round" stroke-linejoin="round" stroke-miterlimit="10" stroke-width="0.428"/><path d="M62.048,241.586a1.887,1.887,0,0,1,2.368-.785c-1.091,1.441-.781,2.807,1.144,3.042" transform="translate(-62.048 -234.355)" fill="none" stroke="#343771" stroke-linecap="round" stroke-linejoin="round" stroke-miterlimit="10" stroke-width="0.428"/><path d="M80.985,237.867s-1.876-1.585-3.461-.007" transform="translate(-49.466 -237.16)" fill="none" stroke="#343771" stroke-linecap="round" stroke-linejoin="round" stroke-miterlimit="10" stroke-width="0.428"/><path d="M72.394,238.033s-1.418-1.842-3.461-.009" transform="translate(-56.451 -237.118)" fill="none" stroke="#343771" stroke-linecap="round" stroke-linejoin="round" stroke-miterlimit="10" stroke-width="0.428"/><path d="M72.394,239.775s-1.418-1.842-3.461-.007" transform="translate(-56.451 -235.702)" fill="none" stroke="#343771" stroke-miterlimit="10" stroke-width="0.641"/></g><path d="M166.688,234.747l-83.9,3.124a4.108,4.108,0,0,0-3.847,4.2h0a4.108,4.108,0,0,0,3.847,4.2l83.9,3.124a7.132,7.132,0,0,0,7.2-7.323h0A7.132,7.132,0,0,0,166.688,234.747Z" transform="translate(-18.91 -215.593)" fill="#574ecb"/><path d="M89.306,248.883a13.527,13.527,0,0,1-2.622-7.593c.076-4.128,2.172-3.392,2.172-3.392s.076-2.654,1.574-2.8,1.423.736,1.423.736a2.257,2.257,0,0,1,1.8-1.325c1.2,0,1.5,1.4,1.5,1.4A1.57,1.57,0,0,1,98,237.014a1.278,1.278,0,0,1,1.423-.3c.974.294,1.275,1.916.674,7.961a6.911,6.911,0,0,1-4.2,5.823Z" transform="translate(-12.615 -215.783)" fill="#9699f8"/><path d="M110.555,234.716s-.785-1.41-2.192.152-1.358,4.953,1.236,4.522c.027,2.312,2.284,1.858,3.1.616.9,1.818,2.674,1.207,3.086-.488,1.918,1.133,3.033-1.024,3.1-2.738a2.035,2.035,0,0,0-2.91-2.17c-1.267-1.559-2.371-.774-2.868.15C111.5,232.974,110.555,234.716,110.555,234.716Z" transform="translate(4.261 -216.421)" fill="#9699f8"/><path d="M64.424,297.257a163.261,163.261,0,0,0,2.7,51.18c5.963,28.047,4.643,43.091,1.623,61.478s-8.305,42.754-8.305,42.754" transform="translate(-33.946 -164.77)" fill="none" stroke="#343771" stroke-linecap="round" stroke-linejoin="round" stroke-miterlimit="10" stroke-width="0.428"/><path d="M77.176,297.257v26.477H71.585V297.257" transform="translate(-24.89 -164.77)" fill="none" stroke="#343771" stroke-linecap="round" stroke-linejoin="round" stroke-miterlimit="10" stroke-width="0.428"/><path d="M72.638,297.257s2.266,19.232-10.475,19.232" transform="translate(-32.55 -164.77)" fill="none" stroke="#343771" stroke-linecap="round" stroke-linejoin="round" stroke-miterlimit="10" stroke-width="0.428"/><path d="M79.453,297.257s-4.242,19.232,9.863,19.232" transform="translate(-18.98 -164.77)" fill="none" stroke="#343771" stroke-linecap="round" stroke-linejoin="round" stroke-miterlimit="10" stroke-width="0.428"/><ellipse cx="5.178" cy="5.096" rx="5.178" ry="5.096" transform="translate(142.826 21.689)" stroke-width="0.428" stroke="#343771" stroke-linecap="round" stroke-linejoin="round" stroke-miterlimit="10" fill="none"/><path d="M118.189,235.132s-6.271,5.852,0,13.1" transform="translate(10.732 -215.276)" fill="none" stroke="#343771" stroke-linecap="round" stroke-linejoin="round" stroke-miterlimit="10" stroke-width="0.428"/><path d="M101.2,235.733s-5.229,4.877,0,10.921" transform="translate(-2.7 -214.787)" fill="none" stroke="#343771" stroke-linecap="round" stroke-linejoin="round" stroke-miterlimit="10" stroke-width="0.428"/></g></svg>