<svg xmlns="http://www.w3.org/2000/svg" width="174.004" height="281.743" viewBox="0 0 174.004 281.743"><g transform="translate(0 0)"><path d="M372.881,290.662c1.887-15.082,12.906-12.1,11.857-26.881s10.555-16.766,10.555-16.766h32.539s11.607,1.98,10.557,16.766,9.968,11.8,11.855,26.881-17.484,21.415-38.682,21.415S370.994,305.743,372.881,290.662Z" transform="translate(-355.87 -216.951)" fill="#574ecb"/><path d="M435.512,280.621s3.16,37.657,3.16,88.1-5.265,114.7-5.265,114.7h-8.425l-8.425-127.827L379.591,483.418h-9.377S390.927,369.411,395.141,335.9l.533-60.091s5.084-16.953,17.722-16.953h9.331a11.777,11.777,0,0,1,11.434,8.137c.025.089.049.176.074.265a10.283,10.283,0,0,1,.3,1.866Z" transform="translate(-357.935 -207.324)" fill="#9699f8"/><path d="M400.25,258.939s9.79,1.577,21.727,17.814c7.022,9.674,15.448,23.493,15.448,23.493l26.682-17.274v6.911L437.425,314.41l-31.946-31.439Z" transform="translate(-333.516 -207.257)" fill="#9699f8"/><path d="M399.734,258.856H423.8s25.655,39.811,25.655,125.008c-.187.422-34.213,14.409-75.565,0,4.612-29.7,5.009-47.6,17.834-62.946C385.681,279.818,397.4,262.029,399.734,258.856Z" transform="translate(-354.949 -207.324)" fill="#f4d87d"/><path d="M390.172,269.887c6.554-7.769,10.319-11.342,17.365-11.021,0,0,8.753,9.9-6.576,23.09-9.139,7.772-22.345,17.3-22.345,17.3l19.941,24.549-2.868,4.246-31.4-27.488Z" transform="translate(-362.755 -207.332)" fill="#9699f8"/><ellipse cx="4.803" cy="4.726" rx="4.803" ry="4.726" transform="translate(68.846 23.859)" fill="#9699f8"/><ellipse cx="4.803" cy="4.726" rx="4.803" ry="4.726" transform="translate(32.936 23.859)" fill="#9699f8"/><path d="M397.323,270.275h.1a6.1,6.1,0,0,0,6.1-6.1V253.721h-12.29V264.18A6.1,6.1,0,0,0,397.323,270.275Z" transform="translate(-340.851 -211.499)" fill="#9699f8"/><path d="M383.973,246.813c.083-.522.181-1.03.288-1.521,4.335-19.613,33.507-18.757,37.055,1.008.031.163.058.33.085.495a27.559,27.559,0,0,1-.422,10.321c-1.528,6.887-5.91,17.979-18.291,17.979S385.924,264,384.4,257.109A27.579,27.579,0,0,1,383.973,246.813Z" transform="translate(-346.996 -229.953)" fill="#9699f8"/><path d="M384.652,294.475s-.9-1.43,1.175-1.385,5.1,2.237,3.477,3.718c2.069,1.492.591,2.73-.91,2.487,1.207,1.773-.18,2.58-1.9,1.779.111,2.018-2.357,1.4-3.927.35s-1.985-2.623-.571-3.354c-.8-1.851.424-2.1,1.49-1.846C382.638,294,384.652,294.475,384.652,294.475Z" transform="translate(-349.056 -179.494)" fill="#9699f8"/><path d="M384.309,298.47" transform="translate(-346.476 -175.119)" fill="#9699f8"/><path d="M376.534,382.72s-13.093-.015-13.093,5.649h22.1l-.441-5.649Z" transform="translate(-363.441 -106.626)" fill="#343771"/><path d="M409.2,382.72s13.1-.015,13.1,5.649H400.2l.442-5.649Z" transform="translate(-333.559 -106.626)" fill="#343771"/><path d="M383.773,254.291a27.155,27.155,0,0,0,24.5-13.169c3.421,10.555,13.358,3.862,13.358,13.191,0,0,3.918-23.88-18.924-23.88C380.033,230.434,383.773,254.291,383.773,254.291Z" transform="translate(-347.099 -230.432)" fill="#574ecb"/><g transform="translate(34.669 23.39)"><ellipse cx="1.362" cy="1.633" rx="1.362" ry="1.633" transform="translate(28.671 2.4) rotate(-0.521)" fill="#343771"/><path d="M402.272,248.695s-3.9,3.3-10.861.263" transform="translate(-375.372 -238.975)" fill="none" stroke="#343771" stroke-linecap="round" stroke-linejoin="round" stroke-width="0.467"/><path d="M394.592,244.48s4.6,5.316.484,6.286" transform="translate(-372.786 -242.401)" fill="none" stroke="#343771" stroke-linecap="round" stroke-linejoin="round" stroke-width="0.467"/><path d="M407.212,246.088a2.063,2.063,0,0,0-2.685-.453c1.421,1.374,1.322,2.9-.716,3.468" transform="translate(-365.291 -241.749)" fill="none" stroke="#343771" stroke-linecap="round" stroke-linejoin="round" stroke-width="0.467"/><path d="M382.564,246.546a2.058,2.058,0,0,1,2.584-.854c-1.189,1.572-.852,3.06,1.247,3.318" transform="translate(-382.564 -241.585)" fill="none" stroke="#343771" stroke-linecap="round" stroke-linejoin="round" stroke-width="0.467"/><path d="M401.8,244.1s-2.047-1.73-3.775-.009" transform="translate(-369.991 -243.334)" fill="none" stroke="#343771" stroke-linecap="round" stroke-linejoin="round" stroke-width="0.467"/><ellipse cx="1.36" cy="1.635" rx="1.36" ry="1.635" transform="translate(11.69 2.609) rotate(-0.504)" fill="#343771"/><path d="M392.435,244.23s-2.047-1.728-3.775-.009" transform="translate(-377.608 -243.232)" fill="none" stroke="#343771" stroke-linecap="round" stroke-linejoin="round" stroke-width="0.467"/></g><path d="M403.578,258.846s.868,7.263-6.188,7.263-6.146-7.263-6.146-7.263" transform="translate(-340.869 -207.332)" fill="none" stroke="#343771" stroke-linecap="round" stroke-linejoin="round" stroke-width="0.467"/><line y2="9.223" transform="translate(56.721 58.771)" stroke-width="0.467" stroke="#343771" stroke-linecap="round" stroke-linejoin="round" fill="none"/><circle cx="0.548" cy="0.548" r="0.548" transform="translate(53.813 60.769)" fill="#343771"/><circle cx="0.548" cy="0.548" r="0.548" transform="translate(53.813 64.899)" fill="#343771"/><g transform="translate(115.455 30.817)"><circle cx="5.53" cy="5.53" r="5.53" transform="translate(0 20.86)" fill="#343771"/><circle cx="9.661" cy="9.661" r="9.661" transform="translate(39.225 16.728)" fill="#343771"/><path d="M437.94,265.287V290.07h-3.532V263.762Z" transform="translate(-421.202 -234.153)" fill="#343771"/><path d="M478.263,247.43v52.651s-16.184-19.254-48.089-20.178V267.608C462.079,266.684,478.263,247.43,478.263,247.43Z" transform="translate(-424.644 -247.43)" fill="#574ecb"/></g><path d="M440.978,276.847s1.65.386.141,1.806-5.212,1.985-5.105-.2c-2.527.392-2.351-1.519-1.111-2.4-2.112-.408-1.7-1.951.094-2.589-1.5-1.353.689-2.641,2.549-3s3.269.466,2.778,1.973c1.882.747,1.18,1.782.243,2.351C442.748,275.771,440.978,276.847,440.978,276.847Z" transform="translate(-306.501 -197.951)" fill="#9699f8"/></g></svg>