<svg xmlns="http://www.w3.org/2000/svg" width="674" height="455.102" viewBox="0 0 674 455.102"><g transform="translate(-137.302 -2939.904)"><g transform="translate(137.302 3320.915)"><path d="M389.545,644.117c-19.737.056-39.48.532-59.181,2.724-7.428.826-14.7,2.646-22.152,3.375-14.871,1.463-29.482,4.2-44.409,5.454-12.021,1.015-24.091,1.61-36.077,2.9A126.96,126.96,0,0,1,192.9,657.5c-8.254-1.477-16.544-2.31-24.665-4.677-9.1-2.653-18.938-4.551-28.4-4.481-13.491.1-26.6.112-39.536,4.8-4.53,1.645-10.082,4.348-13.519,7.8-7.883,7.9-8.948,27.606-1.085,35.8,13.246,13.785,41.517,19.2,60.092,19.456,20.346.28,40.117-1.232,60.491-2.1,18.9-.826,37.807-2,56.787-1.96,38.738.084,77.476,0,116.143-2.59,36.329-2.429,72.75-1.6,109.156-1.6,37.337,0,74.416.294,111.48,5.258,16.152,2.163,32.6,2.919,48.834,4.432,14.535,1.358,28.5,0,42.981-1.281a102.584,102.584,0,0,0,35.279-9.452c8.745-4.2,24.329-17.16,27.011-27.13,7.519-27.956-105.929-27.3-123.348-27.221-19.484.07-39.123.7-58.593,0-8.191-.315-16.257-1.911-24.252-3.669s-15.984-1.3-24.056-2.037c-33.669-3.06-67.415-2.611-101.2-2.611C411.515,644.18,400.516,644.082,389.545,644.117Z" transform="translate(-80.302 -644.109)" fill="rgba(255,255,255,0.68)"/></g><g transform="translate(151.648 2939.904)"><path d="M129.846,280.678c14.7-2.9,17.552-18.679,17.846-20.577a.581.581,0,0,0-.063-.364l-.952-1.869-3.4-6.763-3.4-6.763-.952-1.9a.581.581,0,0,0-.259-.266c-1.694-.9-16.047-8.044-27.158,2.03a.63.63,0,0,0,.4,1.1c2.464.14,7.407.56,9.7,1.666a.637.637,0,0,1-.168,1.176c-3.277.77-11.979,3.571-16.432,12.175-5.559,10.733-4.026,12.021-4.026,12.021l.231-.112-.231.112s.126,2,12.049,3.956c9.564,1.568,17.006-3.746,19.6-5.916a.637.637,0,0,1,1.043.567c-.476,2.5-3.095,6.714-4.453,8.78a.637.637,0,0,0,.616.945Z" transform="translate(-100.793 -141.58)" fill="#ebb044"/><path d="M140.052,274.235c10.453-1.743,11.972-13.715,12.119-15.158a.49.49,0,0,0-.056-.28l-3.4-6.763-3.4-6.763a.532.532,0,0,0-.189-.217c-1.246-.742-11.762-6.672-19.4.7a.518.518,0,0,0,.322.847c1.771.189,5.328.7,7,1.6a.483.483,0,0,1-.077.9c-2.324.483-8.471,2.338-11.384,8.78-3.634,8.03-2.492,9.06-2.492,9.06s.133,1.351,7.239,3.067l1.519.35c6.9,1.505,12.063-2.31,13.841-3.893a.483.483,0,0,1,.763.469c-.259,1.9-2,5.034-2.906,6.567a.518.518,0,0,0,.5.742Z" transform="translate(-106.231 -142.544)" fill="#ffd559"/><path d="M124.435,207.233c5.6.749,18,3.774,24.931,8.577.119.14.252.259.378.392L175.1,193.637c-4.383-2.1-19.043-8.058-34.075-2.317C123.035,198.173,117.686,206.33,124.435,207.233Z" transform="translate(-107.04 -126.589)" fill="#463aba"/><path d="M195.212,291.78c13.456-8.507,17.5-23.594,18.532-28.53l-33.55,6.728.392-.063a.567.567,0,0,0,.049.28c-.231,8.436-5.307,20.3-8.072,25.3C169.244,301.421,178.976,302.037,195.212,291.78Z" transform="translate(-122.121 -148.888)" fill="#ccaf5d"/><path d="M163.524,245.386l-.147-.308h0c-4.9-9.928-4.747-15.081-4.418-16.908l-6.133,5.888s-1.806,4.082,3.606,14.878,9.8,11.86,9.8,11.86l8.177-1.351.189-.035h0C172.885,258.534,168.572,255.475,163.524,245.386Z" transform="translate(-116.31 -138.368)" fill="#463aba"/><path d="M195.223,291.783c13.463-8.507,17.5-23.594,18.532-28.523l-33.55,6.728.392-.063a.567.567,0,0,0,.049.28c-.231,8.436-5.307,20.3-8.072,25.3C169.262,301.4,178.98,302.026,195.223,291.783Z" transform="translate(-122.125 -148.891)" fill="#463aba"/><path d="M241.734,219.451c3.074-2.261,5.867-4.537,8.4-6.8,17.741-15.8,22.943-30.931,24.3-36.21a11.636,11.636,0,0,1-2.282-2.969h0l-.077-.133c-.035-.077-.084-.147-.126-.224a11.6,11.6,0,0,1-1-2.955c-4.677-1.855-16.4-5.433-33.942-3.5a108.71,108.71,0,0,0-19.6,4.089c-11.538,3.5-20.934,8.85-30.294,16.061h-.042L170.9,201.227l-9.2,8.142.063.07-.14.133c-.322,1.757-.476,6.6,3.879,15.781.217.469.441.945.7,1.4,5.055,10.089,9.361,13.148,11.062,14l33.361-6.693h0C222.053,230.926,232,226.606,241.734,219.451Z" transform="translate(-118.991 -119.756)" fill="#00e2b4"/><path d="M329.718,171.052c1.729-1.61,2.268-2.906,1.932-3.578,0,0-.049-.056-.07-.084h0c-.294-.427-1.057-.7-2.268-.7a10.713,10.713,0,0,0-1.687.175,42.707,42.707,0,0,0-9.676,3.543l-.119-.042a11.665,11.665,0,0,0,1,2.962l.126.224a11.649,11.649,0,0,0,2.373,3.1h0a45.047,45.047,0,0,0,7.82-5.111C329.354,171.374,329.55,171.206,329.718,171.052Z" transform="translate(-165.878 -119.932)" fill="#463aba"/><path d="M267.544,194.071a14.149,14.149,0,1,0,.322.49c-.091-.175-.217-.315-.308-.5Z" transform="translate(-143.057 -126.302)" fill="#463aba"/><path d="M319.372,176.523h0l-.042-.084h0l.084-.049.056.1v.056Z" transform="translate(-166.327 -122.841)" fill="#a2a4a7"/><path d="M250.83,308.58s4.754,2.387,5.6,14.927,3.725,20.234,3.725,20.234-3.739,2.8-7.19,1.61-4.67-1.337-4.635-6.518-2.94-29.153-2.94-29.153Z" transform="translate(-144.155 -162.481)" fill="#1a3151"/><path d="M240.22,313.926a12.56,12.56,0,0,1,11.048,8.317,11.069,11.069,0,0,0-6.3-16.943,12.8,12.8,0,0,0-4.376,8.632Z" transform="translate(-142.604 -161.498)" fill="#1a3151"/><path d="M212.543,347.359,197.3,352.946l-11.055,10.047-.231-45.053L172.2,320.082l-4.572,51.991,14.717,12.448,29.615-10.061Z" transform="translate(-120.836 -165.288)" fill="#2c26c7"/><path d="M203.6,681.715l-.5,3.935,7.043,5.09,4.257-3.36-3.27-4.509-7.043-5.09Z" transform="translate(-131.473 -273.196)" fill="#1a3151"/><path d="M206.733,510.84l-1.491,11.951L215,564.217,203.47,630.134l7.274,2.709,20.871-64.131,3.515-18.721.826-39.781Z" transform="translate(-131.584 -222.946)" fill="#1a3151"/><path d="M272.741,527.4,254.7,637.889l-7.015-.168.413-71.083L236.51,516.46Z" transform="translate(-141.492 -224.82)" fill="#1a3151"/><path d="M252.518,688.41l-.1,3.984,7.491,4.159,3.886-3.893-3.7-4.068Z" transform="translate(-146.263 -276.384)" fill="#1a3151"/><path d="M204.7,450.264c6.945-40.187,5.5-69.6,6-77.658a16.845,16.845,0,0,1,6.126-12.112c2.436-.5,4.586-2.044,7.05-2.618,16.663-3.879,25.386,9.291,31.26,23.412A407,407,0,0,1,273.12,434.9c4.2,16.033,8.359,32.206,9.879,48.792.63,6.84,1.134,13.3-6.231,16.159-11.727,4.523-24.777,4.11-37.107,5.356-14.135,1.4-28.278,2.387-42.476,2.66C189.8,508,197.759,490.444,204.7,450.264Z" transform="translate(-128.813 -177.058)" fill="#2c26c7"/><path d="M173.853,313.514l-6.063-6.364,2.373-10.88,5.993.14,1.54,9.564,3,1.9-.1,4.6Z" transform="translate(-120.884 -158.79)" fill="#ddc8ac"/><path d="M248.05,357.25l15.8,3.2,31.695,32.143,37.751-.518,1.841,11.678-44.248,6.714-35.762-24.119Z" transform="translate(-144.952 -177.076)" fill="#2c26c7"/><path d="M245.423,357.846l1.9,42.953L226.31,359.513l6.462-2.135,4.614-1.267Z" transform="translate(-138.433 -176.734)" fill="#fff"/><path d="M370.31,409.372l7.043-4.152,8.857,2.436-.112,4.775-14.913,2.45Z" transform="translate(-181.615 -191.461)" fill="#ddc8ac"/><path d="M245.757,320.56c-5.181-12.035-20.367-6.357-22.593,4.817-1.26,6.357,1.862,17.5,9.48,17.811.357,1.085.966,3.144,1.981,3.7s3.823-.812,4.9-1.33a1.792,1.792,0,0,0,.784-.588,3.356,3.356,0,0,0-.084-1.981,10.685,10.685,0,0,0,2.443-1.078c3.375-2.016,5.265-5.986,5.531-9.914A25.047,25.047,0,0,0,245.757,320.56Z" transform="translate(-137.408 -164.058)" fill="#ddc8ac"/><path d="M233.434,303.6s3.039,6.476-5.244,10.313-12.413,11.9-9.3,18.77,10.726,10.719,7.743,13.372-15.9,3.557-15.9,3.557-13.239-23.671-5.475-36.931S227.7,295.733,233.434,303.6Z" transform="translate(-131.387 -159.758)" fill="#1a3151"/><path d="M343.394,677.637l-.644,4.964,9.284,6.231,5.594-4.32-4.32-5.594-9.277-6.238Z" transform="translate(-173.351 -271.667)" fill="#1a3151"/><path d="M342.6,612.9l7.155-63.242-8.612-70.8,1.939-15.06,38.458-1.463,1.386,24.518-6.455,62.906-24.287,66.372Z" transform="translate(-172.868 -208.587)" fill="#999"/><path d="M387.42,363.83l19.736,3.564,45.6,10.845-2.9,15.284-46.621-.7Z" transform="translate(-186.746 -179.049)" fill="#5b4db9"/><path d="M422.459,469.83l.105,63.816-12.847,82.159-9.249-.091-5.083-75.977-11.9-76.047Z" transform="translate(-185.568 -208.995)" fill="#999"/><path d="M407.76,684.256l9.949,5.1,5.048-4.95-4.95-5.048-10-.105Z" transform="translate(-192.846 -273.637)" fill="#1a3151"/><path d="M331.181,466.332c-.154-2.765-.2-5.076-.252-5.9-.448-7.407-.434-14.843-.154-22.257.252-6.651-.126-23.062.427-29.7.455-5.475,2.513-19.232,4.418-24.441,4.726-12.959,2.8-13.947,28.061-19.884,11.062-2.6,14.317,4.145,24.175,11.377.973.7,1.337,5.433,1.652,6.658.56,2.163,1.148,4.327,1.792,6.469q.763,2.527,1.638,5.027h0s10.747,34.306,16.481,41.307,17.146,16.453.133,24.329a63.059,63.059,0,0,1-9.263,3.27s-14.507-.336-21.893.364a126.018,126.018,0,0,0-20.163,3.676,43.931,43.931,0,0,0-12.7,5.069c-3.641,2.331-6.14,5.5-9.8,7.9a2.03,2.03,0,0,1-1.155.441C332.273,479.957,331.5,472.151,331.181,466.332Z" transform="translate(-169.7 -178.977)" fill="#5b4db9"/><path d="M369.586,356.115c-1.015,1.022-3.83,2.233-7.253,2.1a1.666,1.666,0,0,1-1.519-1.127,43.191,43.191,0,0,1-1.442-5.6c-2.534,0-5.559-.308-6.763-2.541a7.139,7.139,0,0,1-.637-2.3l-1.575-9.8a8.717,8.717,0,0,1-.1-3.4c.462-1.946,2.191-3.326,3.949-4.292a17.945,17.945,0,0,1,14.78-1.4,7.807,7.807,0,0,1,3.347,2.247c1.309,1.638,1.519,3.872,1.673,5.958l.434,5.79c.168,2.219.189,4.8-1.512,6.238-.9.763-2.17,1.071-2.913,2C368.767,351.655,369.845,354.05,369.586,356.115Z" transform="translate(-175.578 -167.932)" fill="#e1cfb5"/><path d="M380.6,305.068a21.1,21.1,0,0,1,.777-2.73c.7-1.925,1.764-3.732,2.17-5.741s0-4.39-1.736-5.524a6.35,6.35,0,0,0-3.83-.742,24.56,24.56,0,0,0-12.28,3.956c-3.5,2.275-6.3,5.048-10.642,4.936-4.061-.1-6.469,1.337-9.8,3.97-3.571,2.849-8.913,5.076-11.9,8.4a11.489,11.489,0,0,0-2.457,4.95,17.314,17.314,0,0,0,5.909,17.328,24.748,24.748,0,0,0,3.655,2.338c2.632,1.4,5.818,3.207,8.724,3.067-.749-2.387-5.461-9.1-4.313-11.65,1.82-4.061,8.7-5.23,12.532-5.7,4.2-.518,8.6,1.05,12.665.308,2.927-.532,6-3.116,7.876-5.363C380.277,314.1,379.843,308.463,380.6,305.068Z" transform="translate(-169.661 -156.995)" fill="#1a3151"/><g transform="translate(262.177 293.216)"><path d="M523.955,521.244l-.7,12.938a7.526,7.526,0,0,1-7.82,7.218l-33.151-1.75a7.526,7.526,0,0,1-7-8l.7-12.938Z" transform="translate(-475.266 -518.71)" fill="#666"/></g><path d="M408.774,232.834c2.4-45.508,40.334-80.514,84.715-78.162s78.414,41.139,76.026,86.647a83.65,83.65,0,0,1-14.7,43.331h0c-24.392,37.24-31.26,69.151-31.26,69.151l-40.446-2.1-40.446-2.1s-3.5-32.458-23.8-72.057h0a83.651,83.651,0,0,1-10.082-44.71Z" transform="translate(-193.111 -116.294)" fill="#ebb044"/><path d="M537.408,437.348l-2.87,54.953a4.068,4.068,0,0,1-4.2,3.949L455.493,492.3a4.068,4.068,0,0,1-3.739-4.369L454.646,433Z" transform="translate(-206.035 -199.792)" fill="#b0b0b0"/><g transform="translate(215.523 101.186)" opacity="0.35"><path d="M410.989,244.43c18.252,42.007,54.568,107.308,112.587,136.1l-.049.224-40.446-2.1-40.446-2.1s-3.5-32.458-23.8-72.057h0a83.652,83.652,0,0,1-10.075-44.64,84.922,84.922,0,0,1,2.233-15.424Z" transform="translate(-408.629 -244.43)" fill="#ffd559"/></g><path d="M566.278,251.421c2.1-39.732-27.62-73.6-66.379-75.613a69.536,69.536,0,0,0-57.109,25.148c13.253-20.927,36.735-34.25,62.752-32.906,38.759,2.044,68.472,35.916,66.379,75.613a72.9,72.9,0,0,1-16.866,43.086,73.107,73.107,0,0,0,11.223-35.328Z" transform="translate(-203.35 -120.312)" fill="#ffd559"/><path d="M520.2,385.112l15.3-104.969L521.33,290.995l-10.824-19.855-12.98,17.979L484.77,277.363l4.173,106.1-4.152-.217L480.24,267.471l16.677,15.375L511,263.34l11.65,21.361,18.441-14.115L524.355,385.329Z" transform="translate(-214.581 -148.915)" fill="#f4f5f5"/><path d="M543,421.481l-1.526,10.5-4.152-.217L539.2,418.8Q541.087,420.165,543,421.481Z" transform="translate(-231.698 -195.534)" fill="#ebeaeb"/><path d="M488.355,370.316,490.07,414l-4.152-.217L484,365.17Q486.142,367.767,488.355,370.316Z" transform="translate(-215.708 -179.451)" fill="#ebeaeb"/><rect width="10.166" height="82.874" transform="translate(247.346 256.968) rotate(-86.98)" fill="#7f7f7f"/><rect width="10.166" height="82.874" transform="translate(246.205 278.643) rotate(-86.98)" fill="#7f7f7f"/><path d="M490.617,480.47,453.23,478.5l.609-11.5,23.034,1.183A153.408,153.408,0,0,0,490.617,480.47Z" transform="translate(-206.481 -209.988)" fill="#8e8e8e"/><path d="M454.86,446.615l.7-13.645,1.3.07q5.314,7.736,10.789,14.254Z" transform="translate(-206.97 -199.783)" fill="#8e8e8e"/><path d="M530.336,515.714l-74.843-3.949a4.068,4.068,0,0,1-3.739-4.369l.5-9.487,54.028,2.863a120.3,120.3,0,0,0,28,12.035A4,4,0,0,1,530.336,515.714Z" transform="translate(-206.035 -219.257)" fill="#8e8e8e"/><path d="M477.134,463.835,454.1,462.652l.539-10.152,12.812.7Q472.282,458.934,477.134,463.835Z" transform="translate(-206.742 -205.64)" fill="#666"/><path d="M506.505,496.431l-54.035-2.85.539-10.152L490.4,485.4a138.52,138.52,0,0,0,16.11,11.027Z" transform="translate(-206.253 -214.915)" fill="#666"/><path d="M475.555,529.94c8.85,9.7,26.6,13.435,32.451,14.437l-25.7-1.358a7.526,7.526,0,0,1-7-8Z" transform="translate(-213.095 -228.862)" fill="#4e4e4e"/><rect width="6.413" height="26.129" rx="3.05" transform="translate(296.432 0) rotate(1.62)" fill="#ebb044"/><rect width="6.413" height="26.129" rx="2.84" transform="translate(247.017 9.882) rotate(-30.75)" fill="#ebb044"/><rect width="6.413" height="26.129" rx="3.11" transform="matrix(-0.829, -0.559, 0.559, -0.829, 337.923, 34.553)" fill="#ebb044"/><path d="M460.486,419.584l11.4.616,6.665-7.7-3.634-3.038-7.638,2.681-2.142-1.456-7.771,2.982S460.612,419.584,460.486,419.584Z" transform="translate(-207.722 -192.733)" fill="#e1cfb5"/><path d="M357.3,378.36l37.814,32.171,32.332-7.477,4.936,9.354-37.828,17.307-12.672-3.935-32.57-31.835Z" transform="translate(-175.318 -183.407)" fill="#5b4db9"/><path d="M921.6,174.262a22.5,22.5,0,0,0-22.4-22.551c-1.68,0-4.2.9-5.741,0-1.288-.749-1.764-2.534-2.751-3.585a19.568,19.568,0,0,0-22.313-4.411h-.042l-.469.224h0c-2,.875-9.3,4.656-9.907,12.952a15.326,15.326,0,0,1,11.748,4.9,13.35,13.35,0,0,1,22.439,12.266.7.7,0,0,1-.658.532h-.133a.7.7,0,0,1-.518-.791,12.049,12.049,0,0,0-20.717-10.544.7.7,0,0,1-1.036-.063,14,14,0,0,0-19.716-1.624.7.7,0,0,1-.868-1.022,15.249,15.249,0,0,1,8.051-3.5c.511-8.485,7.379-12.672,10.159-14a26.85,26.85,0,0,0-39.907,6.378,23.4,23.4,0,0,0-25.421,11.335,25.591,25.591,0,0,0-2.3,5.8,4.787,4.787,0,0,1-.273.742,30.805,30.805,0,0,1,18.959-1.092.7.7,0,0,1-.357,1.288c-15.4-4.243-28.145,6.7-28.271,6.812a.7.7,0,0,1-.329.154,24.451,24.451,0,0,0-4.481,4.474,29.755,29.755,0,0,0,23.692,47.629c1.855,0,3.823-1.043,5.6-.434a14.835,14.835,0,0,1-.42-9.543.7.7,0,1,1,1.281.4c-2.254,7.274,3.389,14.051,3.445,14.114a.7.7,0,0,1,.14.273,13.07,13.07,0,0,0,3.5,3.074,25.008,25.008,0,0,0,12.98,3.7,24.722,24.722,0,0,0,10.761-2.422.7.7,0,0,1,.126-.1c9.984-5.6,11.475-16.656,11.489-16.768a.7.7,0,0,1,1.33.161,25.66,25.66,0,0,1-8.99,15.641,25.267,25.267,0,0,0,19.064,8.745,31.2,31.2,0,0,0,11.069-2.436c3.7-1.449,6.385,4.054,7.792,6.42,2.1,3.5,3.2,7.771,6.147,10.684,4.257,4.2,8.878.462,9.382-4.67a41.162,41.162,0,0,0-.133-8.808c-.168-1.442-.469-3.095.189-4.46.784-1.631,2.268-1.4,3.83-1.743a20.78,20.78,0,0,0,14.836-27.067,18.456,18.456,0,0,1-5.951,1.365c-.448,0-.924.049-1.4.049a25.017,25.017,0,0,1-14.513-5.027.7.7,0,1,1,.777-1.092c11.7,8.289,21.081,3.256,21.172,3.207a.7.7,0,0,1,.189-.07,19.6,19.6,0,0,0-.119-35.5Zm-74.213,33.767a.7.7,0,0,1-.854-.413,14.3,14.3,0,0,0-18.007-8.892h-.091l-.126.042a.7.7,0,0,1-.8-.966,17.447,17.447,0,0,0-33.5-1.729.7.7,0,1,1-1.267-.434,18.791,18.791,0,0,1,36.007,1.589,15.648,15.648,0,0,1,19.029,9.949.7.7,0,0,1-.413.847Zm55.73-14.493a.7.7,0,0,1-.938.1,15.851,15.851,0,0,0-25.743,14,.7.7,0,0,1-.6.735h-.07a.7.7,0,0,1-.665-.6,17.195,17.195,0,0,1,27.914-15.165.7.7,0,0,1,.077.924Z" transform="translate(-303.985 -110.981)" fill="#eac5b0"/><path d="M744.456,371.262l-7.106-4.8,1.918-3.13,5.594,2.212.224-1.9,5.58,4.852-1.561,3.515Z" transform="translate(-291.682 -178.9)" fill="#a39372"/><path d="M817.727,359.77,789.582,378l-36.294-12.854-2.737,7.141,39.487,24.679,39.452-14.57Z" transform="translate(-295.641 -177.832)" fill="#7316c4"/><g transform="translate(489.761 133.366)"><g transform="translate(17.42 271.883)"><path d="M840.7,679.864v4.026l-10.32,5.16-5.167-5.16,5.167-5.16h.665l.161,1.134Z" transform="translate(-825.21 -678.73)" fill="#1a3151"/></g><g transform="translate(23.252 271.883)"><path d="M843.195,679.864H833.7l-.161-1.134h9.655Z" transform="translate(-833.54 -678.73)" fill="#1a3151"/></g><path d="M867.684,355.72c11.1.7,22.467,6.483,25.646,17.286a13.47,13.47,0,0,1,.539,2.724c.441,5.552-1.253,9.648.35,15.221,1.4,4.845,2.653,9.76,3.578,14.7,1.337,7.176,2.577,14.311,3.55,21.431A219.6,219.6,0,0,1,903.4,450.65c0,.861.2,3.284.294,6.168.2,6.049.07,14.135-2.471,14.437a2.513,2.513,0,0,1-1.358-.357c-3.277-1.589-5.853-3.669-8.745-5.482a31.328,31.328,0,0,0-3.207-1.785,40.857,40.857,0,0,0-7.2-2.562c4.2.217,4.712-.56,4.712-.56s-3.781-15.186-6.434-28.4c-1.4-6.812-2.436-13.092-2.534-16.5-.294-10.25-1.6-44.108-1.6-44.108L868.5,358.569h-.924A8.9,8.9,0,0,1,867.684,355.72Z" transform="translate(-820.418 -309.984)" fill="#7316c4"/><path d="M800.4,464.717c.651-6.714,1.33-13.421,2.156-20.115a246.549,246.549,0,0,1,7.7-39.6c1.449-4.936,3.123-9.8,4.8-14.7l6.105-17.783c2.527-7.365,6.8-12.553,14.276-15.13a28.109,28.109,0,0,1,4.2-1.078,4.49,4.49,0,0,1,.091.469,3.823,3.823,0,0,0,.735,2l-4.9.049s-13.841,48.372-14.352,56.71c-.2,3.172-.833,10.089-1.554,17.377-1.134,11.531-2.443,23.993-2.443,23.993s6.077.147,14.871.8l-1.953-.035c-6.112-.056-12.455,2.541-18.315,4.2l-1.253.35c-2.387.63-4.327,2.373-6.3,3.732C801.282,468.036,800,468.813,800.4,464.717Z" transform="translate(-800.328 -310.161)" fill="#7316c4"/><path d="M816.469,502.95c5.853-1.687,12.2-4.285,18.308-4.2l1.953.035,1.659.126c4.1.322,8.7.756,13.505,1.33l.7.084a84.641,84.641,0,0,0,12.728,1.967,40.857,40.857,0,0,1,7.2,2.562,31.273,31.273,0,0,1,3.207,1.785v6.567L864.056,624.757h-9.613v1.134h-.056l-10.565-74.836-.042-.42-5.79,75.256h-.056v-1.134H828.28L816,540.932Z" transform="translate(-805.028 -352.875)" fill="#7316c4"/><g transform="translate(49.416 271.883)"><path d="M880.523,678.73h.707l5.167,5.16-5.167,5.16-10.32-5.16v-4.026H880.4Z" transform="translate(-870.91 -678.73)" fill="#1a3151"/></g><g transform="translate(49.416 271.883)"><path d="M880.523,678.73l-.119,1.134H870.91V678.73Z" transform="translate(-870.91 -678.73)" fill="#1a3151"/></g><path d="M824.37,458s6.077.147,14.871.8l1.659.126c4.1.322,8.7.756,13.505,1.33l.7.084a84.64,84.64,0,0,0,12.728,1.967c4.2.217,4.712-.56,4.712-.56s-3.781-15.186-6.434-28.4c-1.4-6.812-2.436-13.092-2.534-16.5-.294-10.25-1.6-44.108-1.6-44.108l-6.357-12.938H854.44l-4.9.574a2.92,2.92,0,0,1-1.253,0,1.526,1.526,0,0,1-.525-.3,1.754,1.754,0,0,1-.168-.175l-4.9.049s-13.841,48.371-14.352,56.71c-.2,3.172-.833,10.089-1.554,17.377C825.686,445.534,824.37,458,824.37,458Z" transform="translate(-807.538 -311.204)" fill="#f1f1f1"/><path d="M845.005,330.408c.322-1.309-.294-2.632-.581-3.949a3.7,3.7,0,0,1-.063-1.022,29.145,29.145,0,0,0,6.4-2.016c3.564-1.554,10.5-3.214,14.22-1.4,2.926,1.456,2.03,6.091,1.883,9.025a8.023,8.023,0,0,0,.077,2.254,9.691,9.691,0,0,0,.938,1.9,8.1,8.1,0,0,1-1.729,3.214c-2.345,2.646-4.733,3.956-5.37,6.945a8.9,8.9,0,0,0-.1,2.8h-.252l-4.9.574a2.922,2.922,0,0,1-1.253,0,1.527,1.527,0,0,1-.525-.3,1.771,1.771,0,0,1-.168-.175,3.824,3.824,0,0,1-.735-2,4.429,4.429,0,0,0-.084-.469c-.637-2.73-3.648-3.956-5.272-6.378a21.206,21.206,0,0,1-3.221-9.2v-.168a4.738,4.738,0,0,0,.735.371Z" transform="translate(-813.506 -299.641)" fill="#e1cfb5"/><path d="M828.669,305.682c-.1,3.361,2.436,8.822,5.559,10.194a6.7,6.7,0,0,0,1.988.5,8.137,8.137,0,0,0,3.361,4.467,4.735,4.735,0,0,0,.749.329c.322-1.309-.294-2.632-.581-3.949a3.706,3.706,0,0,1-.063-1.022,29.144,29.144,0,0,0,6.4-2.016c3.564-1.554,10.5-3.214,14.22-1.4,2.926,1.456,2.03,6.091,1.883,9.025a8.02,8.02,0,0,0,.077,2.254,9.686,9.686,0,0,0,.938,1.9,2.611,2.611,0,0,1,.224.7c2.394-1.078,3.851-3.781,5.2-5.979a22.8,22.8,0,0,0,1.806-3.5c2.226-5.6,1.4-13.1-2.016-18.441a11.854,11.854,0,0,0-3.606-3.795c-3.389-2.1-8.1-2.254-11.748-3.669-5.132-1.988-7.736-.2-12.6,1.358-1.939.623-4.166,1.162-5.188,3-.567,1.015-.651,2.261-1.225,3.277-.735,1.3-2.1,1.981-3.347,2.8A4.677,4.677,0,0,0,828.669,305.682Z" transform="translate(-808.826 -290.394)" fill="#1a3151"/></g><path d="M955.928,304.359l1.253-8.485-3.6-.693-2.149,5.615-1.547-1.113-.2,7.386,3.648,1.232Z" transform="translate(-355.358 -158.463)" fill="#e1cfb5"/><path d="M880.76,352.451l32.458-8.443,15.032-35.447,7.113,2.8-8.471,45.788L889.5,376.409Z" transform="translate(-334.687 -162.475)" fill="#7316c4"/><path d="M764.034,680.31l.455,4.46-8.464,5.363-4.915-4,4-4.915,8.464-5.363Z" transform="translate(-295.808 -272.617)" fill="#1a3151"/><path d="M753.664,486.956l1.379,13.54-12.1,60.526,10.712,60.491-8.668,2.667L716.97,552.264l-1.54-21.991,3.8-45.543Z" transform="translate(-285.109 -215.305)" fill="#1a3151"/><path d="M676.113,492.191,675.84,549.4,687.112,623.1l8.289-.056,4.782-68.1L711.07,486.8Z" transform="translate(-273.237 -215.925)" fill="#1a3151"/><path d="M697.989,684.471l-8.934,4.544-4.516-4.453,4.453-4.509,8.962-.063Z" transform="translate(-275.846 -273.859)" fill="#1a3151"/><path d="M663.743,445.09c5.979-18.525,6.616-37.982,8.359-57.277.518-5.692,1.064-11.51,3.431-16.719,2.723-5.972,7.218-9.1,12.462-10.852,6.672-2.191,14.549-2.1,21.48-2.492,6.581-.21,12.406,24.5,19.12,36.532,4.117,7.351,8.353,13.855,11.132,21.872a173.53,173.53,0,0,1,6.77,23.531c2.338,12.091,8.324,20.528,2.611,24.644-.525.175-1.029.343-1.505.518A140.568,140.568,0,0,1,718.654,472a115.728,115.728,0,0,1-26.458.5c-12.042-1.19-23.713-2.892-34.306-9.172Z" transform="translate(-267.854 -177.226)" fill="#833aba"/><rect width="41.461" height="153.187" transform="translate(455.741 283.495) rotate(153.43)" fill="#143a66"/><path d="M638,298.909,602.9,275.07l-1.988,42.385Z" transform="translate(-250.767 -152.432)" fill="#e1cfb5"/><path d="M616.6,284.011l-13.169-8.941-.749,15.9Z" transform="translate(-251.298 -152.432)" fill="#1a3151"/><path d="M712.921,539.392l27.529-13.771a5.342,5.342,0,0,0,2.387-7.162l-7-13.638L698.73,523.366l7,13.638a5.342,5.342,0,0,0,7.19,2.387Z" transform="translate(-280.101 -221.329)" fill="#b5b7b8"/><path d="M697.233,520.387l37.078-18.546-3.466-6.931L693.62,513.162Z" transform="translate(-278.568 -218.357)" fill="#fff"/><path d="M730.5,462.049l-6.728,5.979-2.675-2.766,3.7-5.111-1.869-.721,6.378-4.411,3.172,2.5Z" transform="translate(-286.809 -206.395)" fill="#a39372"/><path d="M734.642,382.967l11.615,13.862L729.02,426.963l6.546,4.635,35.328-33.732L743.407,358.89Z" transform="translate(-289.184 -177.568)" fill="#833aba"/><path d="M725.253,327.019c-3.753-11.321-20.3-15.263-24.112-2.1-1.155,3.956-1.848,8.149-1.064,12.189s3.256,7.925,7,9.578h.063l-.441,3.151a.7.7,0,0,0,.756.973l3.76.56a4.137,4.137,0,0,0,1.862,0c1.309-.42,1.855-1.988,1.911-3.361v-.994C722.439,344.494,727.7,334.4,725.253,327.019Z" transform="translate(-280.404 -164.901)" fill="#a39372"/><path d="M693.36,303.83c-3.025-.448-5.6,2.485-8.4,4.026-2.324,1.281-4.957,1.624-7.358,2.681s-4.775,3.277-4.824,6.056c-2.436-1.267-5.083-2.569-7.813-2.044s-5.272,3.788-4.2,6.476c.973,2.408,4.117,2.976,5.16,5.349,1.652,3.753-2.8,9.571.231,12.063.7.6,1.729.742,2.451,1.358.9.763,1.183,2.1,1.582,3.249a11.826,11.826,0,0,0,12.406,8.037,14,14,0,0,0,7.057-8.338c1.4-4.376-.931-5.9-1.323-10.012A17.909,17.909,0,0,1,692.149,320c1.841-2.268,4.474-4.2,7.253-4.488,1.127-.105.777.833,2.044-.042a5.664,5.664,0,0,0,1.442-2.478C699.885,310.551,697.344,304.425,693.36,303.83Z" transform="translate(-268.64 -161.043)" fill="#1a3151"/><path d="M742.477,310.238c1.561.434,3.256.371,4.74,1.022,2.233.98,2.1,3.3,2.73,5.307.7,2.226,1.715,5.223,3.185,6.952a21.416,21.416,0,0,0,3.83,2.927,5.316,5.316,0,0,1,2.45,4.124c-.028,1.736-1.134,3.123-1.3,4.768-.2,2.45.224,3.7-.532,6.21a7.593,7.593,0,0,1-1.8,3.543c-1.281,1.162-3.1,1.141-4.7.875s-3.256-.7-4.831-.182c-3.424,1.148-2.8,4.607-3.69,7.512-1.4,4.411-6.5,7-10.418,5.419-3.319-1.33-5.237-5.181-5.09-8.99.077-1.9.833-3.683.889-5.6s-.98-4.383.7-5.846a13.307,13.307,0,0,0,1.288-.945,2.694,2.694,0,0,0,.56-1.2,5.278,5.278,0,0,0-.875-4.341,10.816,10.816,0,0,1-1.96-2.457c-.455-1.155-.091-2.506,0-3.788a7.624,7.624,0,0,0-4.075-7.309,20.3,20.3,0,0,1-4.7-2.443c-.224-.182-3.6-3.158-3.683-2.52a6.785,6.785,0,0,1,1.47-3,13.372,13.372,0,0,1,3.837-3.8c4.964-2.864,5.2,3.788,9.186,2.913.959-.21,1.687-1.092,2.548-1.617a5.737,5.737,0,0,1,5.307.105C739.214,308.614,740.719,309.748,742.477,310.238Z" transform="translate(-285.04 -161.633)" fill="#1a3151"/><path d="M660.67,459.143l4.887-1.043,6.126,4.7-4.628,5.4-4.635-3.788Z" transform="translate(-268.688 -207.319)" fill="#a39372"/></g></g></svg>