<svg xmlns="http://www.w3.org/2000/svg" xmlns:xlink="http://www.w3.org/1999/xlink" width="600" height="650" viewBox="0 0 777.455 668.779"><defs><linearGradient id="a" x1="-0.001" y1="0.501" x2="0.999" y2="0.501" gradientUnits="objectBoundingBox"><stop offset="0" stop-color="#cc68ff"/><stop offset="1" stop-color="#fb8e31"/></linearGradient><linearGradient id="b" x1="-0.426" y1="2.414" x2="-0.218" y2="-0.334" gradientUnits="objectBoundingBox"><stop offset="0" stop-color="#1ae5ff"/><stop offset="0.26" stop-color="#64e8f9"/><stop offset="0.7" stop-color="#eaeeee"/></linearGradient><linearGradient id="c" x1="-21.884" y1="0.5" x2="-20.871" y2="0.5" gradientUnits="objectBoundingBox"><stop offset="0" stop-color="#5155d4"/><stop offset="1" stop-color="#45f7ff"/></linearGradient><linearGradient id="d" y1="0.5" x2="1" y2="0.5" gradientUnits="objectBoundingBox"><stop offset="0" stop-color="#7f5eff"/><stop offset="0.24" stop-color="#8665ff"/><stop offset="0.6" stop-color="#9978ff"/><stop offset="0.94" stop-color="#b391ff"/></linearGradient><linearGradient id="e" x1="0.374" y1="-0.702" x2="0.705" y2="2.573" xlink:href="#c"/><linearGradient id="f" x1="0.5" y1="-0.429" x2="0.5" y2="1.43" xlink:href="#d"/><linearGradient id="g" x1="24.992" y1="0.954" x2="27.179" y2="0.073" xlink:href="#b"/><linearGradient id="h" x1="-1.325" y1="0.5" x2="-0.325" y2="0.5" xlink:href="#c"/><linearGradient id="i" x1="10.318" y1="1.712" x2="10.113" y2="-0.714" xlink:href="#b"/><linearGradient id="j" x1="9.711" y1="3.319" x2="9.49" y2="-1.829" xlink:href="#b"/><linearGradient id="k" x1="26.798" y1="2.196" x2="26.431" y2="0.035" xlink:href="#b"/><linearGradient id="l" x1="0.39" y1="0.71" x2="1.311" y2="-1.047" xlink:href="#a"/><linearGradient id="m" x1="5.327" y1="1.013" x2="5.948" y2="0.049" gradientUnits="objectBoundingBox"><stop offset="0" stop-color="#92f3ff"/><stop offset="1" stop-color="#fff"/></linearGradient><linearGradient id="n" x1="0" y1="0.5" x2="1" y2="0.5" xlink:href="#c"/></defs><g transform="translate(-68.71 -89)"><path d="M397.432,373.374a12.128,12.128,0,0,1,5.5,9.525c0,3.512-2.5,4.938-5.537,3.182l-50.144-28.926a12.128,12.128,0,0,1-5.5-9.545c0-3.492,2.5-4.917,5.537-3.161Z" transform="translate(291.09 271.533)" fill="#1ae5ff"/><g transform="translate(68.71 277.824)" opacity="0.57"><path d="M74.743,231.236a13.409,13.409,0,0,0-6.033,10.5l.413,142.562c0,9.091,6.488,12.81,14.359,8.264l85-48.9a13.409,13.409,0,0,0,6.033-10.5L174.1,190.6c0-9.091-6.488-12.81-14.359-8.264Z" transform="translate(-68.71 -180.391)" fill="#1ae5ff"/></g><path d="M78.868,250.823a3.967,3.967,0,0,0-1.8,3.1V261.5c0,1.157.806,1.612,1.818,1.033l69.277-40a3.967,3.967,0,0,0,1.8-3.12v-7.562c0-1.136-.806-1.591-1.818-1.033Z" transform="translate(8.913 129.623)" fill="#fff"/><path d="M78.928,258.759a3.967,3.967,0,0,0-1.8,3.12v7.583c0,1.157.806,1.591,1.818,1.033l69.277-40a3.946,3.946,0,0,0,1.8-3.1v-7.583c0-1.157-.806-1.612-1.818-1.033Z" transform="translate(8.977 138.092)" fill="#fff"/><path d="M93.132,251.009A9.4,9.4,0,0,0,89,258.343v1.736c0,2.707,1.921,3.8,4.3,2.438l22.4-12.934a9.4,9.4,0,0,0,4.277-7.4v-1.736c0-2.707-1.942-3.8-4.3-2.438Z" transform="translate(21.631 158.238)" fill="url(#a)"/><path d="M228.8,91.81l-.682-.372-.868-.455-.868-.413-.847-.372-.868-.331H224.5l-.62-.207-.888-.248-.868-.186-.95-.227h-3.079a11.908,11.908,0,0,0-1.24.186h0a10.915,10.915,0,0,0-1.426.393,10.334,10.334,0,0,0-1.736.806L199.52,98.649a10.475,10.475,0,0,1,3.058-1.384h0a12.686,12.686,0,0,1,3.6-.186h0a17.293,17.293,0,0,1,3.946.868h0a24.585,24.585,0,0,1,4.318,2.066L602.122,324.35l14.174-8.264Z" transform="translate(139.458 0)" fill="url(#b)"/><path d="M433.691,236.791v-2.066a4.675,4.675,0,0,0-.124-1.054,5.754,5.754,0,0,1-.145-1.074h0a6.031,6.031,0,0,0-.186-1.033c-.062-.351-.145-.744-.227-1.116s-.165-.744-.269-1.116-.186-.764-.289-1.136l-.248-.888h0v-.186l-.351-1.116-.372-1.1-.393-1.054-.413-1.033-.331-.785h0v-.186l-.475-1.033-.537-1.116-.661-1.281c-.248-.455-.5-.909-.764-1.364l-.124-.248-.165-.289q-.765-1.281-1.591-2.521t-1.343-1.921l-.95-1.24-.826-1.012-.826-.971-.826-.93-.165-.186h0l-.64-.682-.909-.888-.93-.868-.95-.826-.475-.393h-.1l-.351-.289-.93-.723-.93-.661-.909-.6-.909-.558-.207-.124-14.173,8.264a33.051,33.051,0,0,1,4.256,2.955h.1a41.025,41.025,0,0,1,3.926,3.657h0a49.954,49.954,0,0,1,6.694,9.07l.124.248a51.655,51.655,0,0,1,2.5,4.959h0a47.507,47.507,0,0,1,1.942,5.248h0a40.759,40.759,0,0,1,1.219,5.289h0a32.636,32.636,0,0,1,.413,5.186l-.764,270.516a24.219,24.219,0,0,1-.434,4.607v.124a17.026,17.026,0,0,1-1.2,3.76h0a12.5,12.5,0,0,1-1.612,2.479c-.207.248-.393.517-.6.744a10.454,10.454,0,0,1-2.335,1.921l14.173-8.264a10.437,10.437,0,0,0,2.335-1.922c.207-.227.393-.475.6-.723a11.48,11.48,0,0,0,.764-.95,13.446,13.446,0,0,0,.806-1.467v-.124c.165-.351.31-.7.455-1.074a11.737,11.737,0,0,0,.372-1.116c.1-.372.207-.723.289-1.1s0-.31,0-.475v-.558a3.973,3.973,0,0,1,.145-1.033,3,3,0,0,0,.1-1.033v-2.045h0l.764-270.516Q433.711,237.266,433.691,236.791Z" transform="translate(351.773 119.543)" fill="url(#c)"/><path d="M614.219,324.489c11.818,6.818,21.343,23.326,21.3,36.9l-.764,270.516c0,13.574-9.628,19.05-21.446,12.231L217.382,415.5c-11.818-6.818-21.343-23.326-21.3-36.9l.764-270.516c0-13.574,9.628-19.05,21.446-12.231Z" transform="translate(135.79 4.18)" fill="url(#d)"/><path d="M575.353,308.888c10.868,6.2,19.628,21.446,19.587,33.926l-.7,248.677c0,12.4-8.864,17.5-19.711,11.24L229.2,403.474c-10.868-6.2-19.628-21.446-19.587-33.926l.7-248.677c0-12.4,8.864-17.5,19.711-11.24Z" transform="translate(150.215 19.14)" fill="#f9fbfc"/><path d="M402.973,357.052h0a2.893,2.893,0,0,1-2.892-2.893V267.383a2.893,2.893,0,0,1,2.893-2.893h0a2.893,2.893,0,0,1,2.893,2.893v86.777a2.892,2.892,0,0,1-2.893,2.893Z" transform="translate(353.276 187.091)" fill="#f9fbfc"/><path d="M205.808,175.432a13.45,13.45,0,0,1,6.2,10.558c0,3.884-2.769,5.455-6.2,3.492a13.451,13.451,0,0,1-6.2-10.558C199.672,175.039,202.482,173.49,205.808,175.432Z" transform="translate(139.554 91.253)" fill="#fff"/><path d="M351.284,217.118a63.621,63.621,0,0,1,2.273,10.682,50.819,50.819,0,0,1,.372,6.2v2.19a11.271,11.271,0,0,1-.124,1.674v.31a10.1,10.1,0,0,1-.207,1.612c-.083.517-.207,1.24-.289,1.736s-.248,1.157-.372,1.632v.248q-.186.723-.413,1.4v.248c-.145.455-.31.909-.475,1.343s-.393.95-.579,1.364-.475.95-.682,1.343l-.124.227q-.31.558-.661,1.1l-.1.165c-.248.372-.5.723-.764,1.074s-.537.682-.826.992l-.124.145-.847.868-.165.165-.888.785-.145.1-.93.7c-.393.269-.744.475-1.074.682l-.186.1-1.033.537h-.207l-1.1.455-.7.227c-.124-13.182-9.38-29.132-20.826-35.744s-20.95-1.322-20.971,11.942c0,0,.331.558.95,1.488l-.806-1.136-1.219-1.8-.186-.289L296.78,230.2l-.227-.372-1.054-1.777-1.033-1.839-.186-.351-.93-1.8-.165-.331-.847-1.736c-.372-.785-.641-1.4-.93-2.066l-.165-.393q-.413-.93-.785-1.859c-.331-.806-.558-1.4-.764-2.066l-.1-.289q-.351-.93-.661-1.88l-.124-.372q-.641-1.921-1.157-3.843v-.372q-.248-.93-.475-1.859v-.331q-.207-.888-.372-1.777c-.165-.826-.269-1.446-.372-2.066v-.393q-.145-.93-.269-1.859a15.163,15.163,0,0,0-.207-1.942v-.31a15.556,15.556,0,0,0-.1-1.8v-2.231a40.495,40.495,0,0,1,.413-5.785,28.537,28.537,0,0,1,2.335-8.016q.331-.7.682-1.343c5.579-10.021,17.376-12.4,30.992-4.483,12.231,7.066,22.934,20.661,28.926,35.124.393.95.785,1.921,1.136,2.893A29.221,29.221,0,0,0,351.284,217.118Zm-30.992.992c7.045,4.132,12.769.785,12.789-7.293a27.975,27.975,0,0,0-12.707-22c-7.025-4.132-12.768-.806-12.789,7.293a28.037,28.037,0,0,0,12.707,22" transform="translate(231.495 86.282)" fill="url(#e)"/><path d="M440.918,300.3a10.516,10.516,0,0,1,4.773,8.264v20.1c0,3.037-2.066,4.277-4.814,2.748L256.993,225.3a10.516,10.516,0,0,1-4.773-8.264v-20.1c0-3.017,2.066-4.256,4.814-2.727Z" transform="translate(195.642 111.464)" fill="#cfe3ff"/><path d="M440.858,321.494a10.517,10.517,0,0,1,4.773,8.264v20.1c0,3.037-2.066,4.256-4.814,2.727L256.933,246.474a10.475,10.475,0,0,1-4.773-8.264v-20.1c0-3.037,2.066-4.277,4.814-2.748Z" transform="translate(195.578 134.013)" fill="#cfe3ff"/><path d="M332.584,285.249a19.628,19.628,0,0,1,8.9,15.413V304.3c0,5.682-4.029,7.955-8.967,5.1l-46.777-27a19.628,19.628,0,0,1-8.926-15.434v-3.7c0-5.661,4.132-7.955,8.967-5.1Z" transform="translate(221.868 179.039)" fill="url(#f)"/><path d="M231.155,269.39s-15.95,9.132-18.285,50.847c2.066,7.707,14.215,11.777,23.554,5.682S236.072,276.5,231.155,269.39Z" transform="translate(153.69 192.315)" fill="url(#g)"/><path d="M260.78,311.515S297.1,295.338,302,292.59s8.554-12.831,10.331-14.959,10.083-7.025,9.773-4.876-4.587,6.2-4.587,6.2a35.288,35.288,0,0,1,3.657,8.554c.62,3.368-3.967,10.083-6.4,11.9s-8.264,2.438-8.264,2.438S276.9,321.681,272,321.991,260.16,319.449,260.78,311.515Z" transform="translate(204.726 195.334)" fill="#ff9d6f"/><ellipse cx="73.429" cy="43.636" rx="73.429" ry="43.636" transform="translate(348.585 670.506)" opacity="0.21" fill="url(#h)"/><path d="M225.177,392.288s-.95,6.922.31,9.752a7.108,7.108,0,0,0,9.752,1.88,100.124,100.124,0,0,0,9.442-8.8s10.062-5.351,11.012-8.265-2.521-5.351-5.351-4.711S239.33,387.8,235.57,387.8,226.376,388.858,225.177,392.288Z" transform="translate(166.445 312.413)" fill="#113c7a"/><path d="M220,315.73S228.8,461,229.9,465.192s12.521,6.632,14.628,0c1.343-4.236,4.649-138.677,4.649-138.677Z" transform="translate(161.292 241.719)" fill="#113c7a"/><path d="M239.454,396.085a2.252,2.252,0,0,0-.764,1.694c0,2.066,0,6.446,1.2,8.264a8.471,8.471,0,0,0,10.93,2.066c4.132-2.211,16.529-11.591,19.153-13.657a7.5,7.5,0,0,0,2.541-4.008,2.273,2.273,0,0,0-1.281-2.644,10.93,10.93,0,0,0-7.541-.868c-4.132,1.4-9.38,5.888-15.041,5.661A13.884,13.884,0,0,0,239.454,396.085Z" transform="translate(181.217 317.293)" fill="#113c7a"/><path d="M273.032,319.964c-.641-6.033-7.851-8-14.463-5.95-12.686-.682-32.355-.145-33.058,9.711-1.012,14.587,5.826,25,12.4,32.087,4.876,5.227,8.12,15.248,9.483,20.124,1.157,38.533,3.7,92.851,5.31,98.058,2.562,8.368,15.207,8,15.764-.165C271.028,446.265,273.032,319.964,273.032,319.964Z" transform="translate(167.061 239.055)" fill="#113c7a"/><path d="M280.655,373.768c-1.488,7.459-22.727,11.178-35.124,9.194s-25.806-8.078-25.351-22.479c0,0-1.88-57.562-1.88-68.884a33.45,33.45,0,0,1,7.128-19.711s6.963-7.955,28.822-3.471c0,0,17.81,3.884,26.012,17.045,0,0,5.661,14.463,3.781,44.649S280.655,373.768,280.655,373.768Z" transform="translate(159.479 189.817)" fill="url(#i)"/><path d="M227.413,260.534s1.88,11.012,0,16.033c-.31,2.521,10.7,11.012,20.434,8.8,5.661-1.26,5.351-4.132,5.351-4.132s-4.711-7.872-4.132-15.413S234.025,258.9,227.413,260.534Z" transform="translate(169.188 181.77)" fill="#ff7c40"/><circle cx="25.95" cy="25.95" r="25.95" transform="translate(381.498 394.123)" fill="#ff9d6f"/><path d="M264.717,254.014s.31,25.992-5.351,31.24-14.359-4.917-28.244-8.264c-13.9-3.574,11.26-30.6,11.26-30.6Z" transform="translate(168.682 167.795)" fill="#ff9d6f"/><path d="M248.735,273.057s5.682-1.632,12.169,7.707,15.826,21.508,20.289,23.554,10.558-2.066,13-2.066,8.926,11.364,6.488,17.045-18.264,8.533-22.335,8.533S247.888,312,244.251,303.036,234.933,273.511,248.735,273.057Z" transform="translate(182.557 196.107)" fill="url(#j)"/><path d="M264.44,290.282a8.264,8.264,0,0,1,7.355-4.876c5.682-.413,12.169,10.558,11.777,16.653s-9.339,9.339-11.364,7.707S274.192,304.083,264.44,290.282Z" transform="translate(208.669 209.378)" fill="url(#k)"/><path d="M263.037,241.876s9.339,2.066,12.169,16.24c-1.219,6.1-9.752,1.219-13,9.339a44.569,44.569,0,0,1-5.269,10.558l-2.066-.806s0-6.488-2.851-6.488-3.657,7.707-2.066,10.95a12,12,0,0,0,5.269,4.876s-4.132,6.9-6.1,7.707-9.339-.806-12.169-2.066-8.12-6.9-12.169-13.388-7.707-17.851-5.269-25.578a14.9,14.9,0,0,1,8.12-9.752,20.661,20.661,0,0,1,8.926-6.488,28.285,28.285,0,0,1,26.467,4.9Z" transform="translate(159.948 156.297)" fill="#843837"/><path d="M259.654,275.223l-6.756-3.781s-17.314-1.632-23.554-5.682l-3.244,4.628a19.793,19.793,0,0,0,15.434,9.463c11.1,1.074,16.24-3.244,16.24-3.244Z" transform="translate(167.795 188.445)" fill="#cfdae4"/><g transform="translate(684.844 231.235)" opacity="0.67"><path d="M414.59,184.49v7.6a5.826,5.826,0,0,1-8.74,5.021l-35.868-20.806a5.827,5.827,0,0,1-2.892-5.062v-7.6a5.826,5.826,0,0,1,8.74-5.021L411.7,179.429a5.826,5.826,0,0,1,2.892,5.062Z" transform="translate(-366.739 -157.842)" fill="#1ae5ff"/><path d="M528.146,268.233v7.624a5.826,5.826,0,0,1-8.74,5.021L369.923,194.6a5.826,5.826,0,0,1-2.913-5.062v-7.541a5.826,5.826,0,0,1,8.74-5.021l149.462,86.281a5.826,5.826,0,0,1,2.934,4.979Z" transform="translate(-366.824 -138.279)" fill="#1ae5ff"/><g transform="translate(0 113.553)" opacity="0.53"><path d="M466.4,269.368v7.624a5.826,5.826,0,0,1-8.74,5.021l-87.83-50.723a5.826,5.826,0,0,1-2.913-5.062V218.6a5.826,5.826,0,0,1,8.74-5.021l87.83,50.723a5.827,5.827,0,0,1,2.913,5.062Z" transform="translate(-366.92 -212.802)" fill="#1ae5ff"/></g><path d="M504.871,273.2v7.624a5.826,5.826,0,0,1-8.74,5.021L369.851,212.927a5.826,5.826,0,0,1-2.851-5V200.3a5.826,5.826,0,0,1,8.74-5.021L502.02,268.2a5.827,5.827,0,0,1,2.851,5Z" transform="translate(-366.835 -118.759)" fill="#1ae5ff"/></g><g transform="translate(74.784 189.935)" opacity="0.67"><path d="M99.91,151.566v3.9a3,3,0,0,0,4.5,2.583l18.45-10.7a3,3,0,0,0,1.488-2.6v-3.9a3,3,0,0,0-4.5-2.583l-18.45,10.7a3,3,0,0,0-1.488,2.6Z" transform="translate(-41.522 -137.853)" fill="#1ae5ff"/><path d="M71.65,194.684v3.926a3,3,0,0,0,4.5,2.583l76.8-44.4a3,3,0,0,0,1.508-2.6v-3.926a3,3,0,0,0-4.5-2.583L73.138,192.164A3,3,0,0,0,71.65,194.684Z" transform="translate(-71.65 -127.81)" fill="#1ae5ff"/><g transform="translate(31.715 58.43)" opacity="0.53"><path d="M87,195.238v3.926a3,3,0,0,0,4.5,2.583l45.186-26.095a3,3,0,0,0,1.508-2.6v-3.926a3,3,0,0,0-4.5-2.583l-45.1,26.178A3,3,0,0,0,87,195.238Z" transform="translate(-87 -166.133)" fill="#1ae5ff"/></g><path d="M77.45,197.234v3.926a3,3,0,0,0,4.5,2.583l64.979-37.521a3,3,0,0,0,1.508-2.6v-3.926a3,3,0,0,0-4.5-2.583l-65,37.521A3,3,0,0,0,77.45,197.234Z" transform="translate(-65.467 -117.757)" fill="#1ae5ff"/></g><circle cx="30.992" cy="30.992" r="30.992" transform="translate(380.114 310.322)" fill="url(#l)"/><path d="M239.8,232.636l-12.934-9.463,4.711-6.426,6.715,4.9,13.6-17.335,6.281,4.917Z" transform="translate(168.616 122.933)" fill="#fff"/><g transform="translate(237.057 132.757)" opacity="0.46"><path d="M283.826,181.483a29.111,29.111,0,0,1,13.2,22.851c0,8.45-5.971,11.839-13.285,7.624L163.392,142.475a29.111,29.111,0,0,1-13.2-22.913c0-8.388,5.971-11.8,13.285-7.562Z" transform="translate(-150.19 -110.179)" fill="#1ae5ff"/></g><g transform="translate(734.038 522.383)" opacity="0.46"><path d="M483.622,348.349a20.228,20.228,0,0,1,9.174,15.888c0,5.868-4.132,8.264-9.235,5.289L399.9,321.242a20.248,20.248,0,0,1-9.174-15.93c0-5.826,4.132-8.264,9.236-5.269Z" transform="translate(-390.73 -298.758)" fill="#1ae5ff"/></g><path d="M249.246,300.214c3.1,1.8,3.1,4.669,0,6.467L146.5,366.413a12.273,12.273,0,0,1-11.157,0l-63.388-36.57c-3.1-1.777-3.12-4.669,0-6.467l102.789-59.731a12.4,12.4,0,0,1,11.157,0Z" transform="translate(0.971 184.776)" fill="url(#m)"/><g transform="translate(160.329 612.208)" opacity="0.21"><path d="M135.319,355.015c-29.545,17.066-29.711,44.731-.351,61.8s77.128,17.066,106.673,0,29.711-44.731.351-61.777S164.864,337.949,135.319,355.015Z" transform="translate(-113.054 -342.234)" fill="url(#n)"/></g><path d="M152.058,367.645s-13.6,3.554-18.9,3.554,0,5.31,8.864,5.909,17.128,1.178,18.9-1.178-.393-9.05-.393-9.05Z" transform="translate(66.445 296.25)" fill="#5155d4"/><path d="M170.358,361.645s-13.595,3.554-18.9,3.554,0,5.31,8.864,5.909,17.128,1.178,18.9-1.178-.393-9.05-.393-9.05Z" transform="translate(85.955 289.854)" fill="#5155d4"/><path d="M175.109,290.25s4.917,135.082,5.7,149.256a9.876,9.876,0,0,1-8.657,1.57S156.2,352.46,153.848,329.63s-6.2-30.723-6.2-30.723Z" transform="translate(84.159 214.554)" fill="#343996"/><path d="M136.931,299.179s-4.731,77.975,9.442,153.595c0,0,4.731,2.355,8.657-3.14,0,0,8.657-132.231,11.033-151.219S143.233,295.232,136.931,299.179Z" transform="translate(71.923 213.498)" fill="#343996"/><path d="M150.124,355.506S158,333.46,165.083,321.642,170.6,292.51,170.6,292.51l-26.859,2.355Z" transform="translate(79.99 216.964)" fill="#343996"/><path d="M160.985,269.026l-23.409-11.343s-7.087-7.087-8.864-8.512-13.471-4.256-15.6-3.9-6.033,3.554-4.959,4.256,10.992,6.033,11.343,8.161-3.554,4.959-2.066,6.384,4.607-1.426,6.736-1.426a34.608,34.608,0,0,1,8.161,2.831l22.727,13.12Z" transform="translate(41.857 166.564)" fill="#ff9d6f"/><path d="M191.995,246.376s-4.339-4.731-11.426,4.339-12.934,22.438-22.83,21.26-25.992-9.05-25.992-9.05-7.087,4.731-5.909,11.818c0,0,22.851,16.942,38.2,16.136s31.9-16.529,35.434-27.562S191.995,246.376,191.995,246.376Z" transform="translate(60.764 166.465)" fill="#ff3d9d"/><path d="M136.691,346.183c1.4,7.066,21.529,10.6,33.306,8.719s24.442-7.665,24.029-21.3c0,0,1.8-54.525,1.8-65.248a31.694,31.694,0,0,0-6.756-18.595s-6.653-7.665-27.314-3.43c0,0-16.88,3.678-24.649,16.157,0,0-5.372,13.7-3.574,42.314S136.691,346.183,136.691,346.183Z" transform="translate(68.713 166.369)" fill="#ff3d9d"/><path d="M167.433,238.848s-1.8,10.331,0,15.186c.289,2.376-10.124,10.331-19.359,8.264-5.372-1.2-5.062-3.864-5.062-3.864s4.463-7.459,3.864-14.607S161.173,237.361,167.433,238.848Z" transform="translate(79.21 158.725)" fill="#ff7c40"/><circle cx="24.587" cy="24.587" r="24.587" transform="translate(211.788 351.974)" fill="#ff9d6f"/><path d="M138,232.646s-.289,24.628,5.062,29.587,13.6-4.649,26.859-7.727-10.661-28.926-10.661-28.926Z" transform="translate(73.869 145.609)" fill="#ff9d6f"/><path d="M153.244,287.214s-34.421-15.331-39.049-17.934-8.1-12.149-9.835-14.174-9.545-6.653-9.256-4.628,4.339,5.785,4.339,5.785a33.429,33.429,0,0,0-3.471,8.1c-.579,3.182,3.76,9.545,6.074,11.281a20.8,20.8,0,0,0,7.81,2.314s28.058,18.8,32.686,19.091S153.823,294.673,153.244,287.214Z" transform="translate(28.131 171.619)" fill="#ff9d6f"/><path d="M172.286,253.526s-4.339-4.731-11.426,4.339-13,22.438-22.851,21.26-25.992-9.05-25.992-9.05-7.087,4.731-5.909,11.818c0,0,22.851,16.942,38.2,16.136s31.9-16.529,35.434-27.562S172.286,253.526,172.286,253.526Z" transform="translate(39.73 174.088)" fill="#ff3d9d"/><path d="M148.689,221.252s-8.843,1.921-11.529,15.372c1.157,5.764,9.236,1.157,12.4,8.843a42.231,42.231,0,0,0,5,10l1.921-.764s0-6.2,2.686-6.2,3.471,7.314,1.921,10.331a11.364,11.364,0,0,1-5,4.607s3.843,6.529,5.764,7.314,8.843-.764,11.529-1.921,7.686-6.529,11.529-12.686,7.314-16.921,5-24.235a14.111,14.111,0,0,0-7.686-9.236,19.546,19.546,0,0,0-8.45-6.2A26.859,26.859,0,0,0,148.689,221.252Z" transform="translate(72.975 134.565)" fill="#843837"/><path d="M143.795,238.5a19.421,19.421,0,0,1,2.955,17.128c-2.955,10.041,1.178,10.041,5.31,23.037s-7.686,28.347,3.554,47.252,41.322,16.529,54.938-2.355-7.686-32.5-8.264-49.587,13-27.169-2.355-38.987-21.859-24.793-40.764-19.483S135.53,230.233,143.795,238.5Z" transform="translate(75.886 133.559)" fill="#843837"/></g></svg>